<?xml version="1.0" encoding="utf-8" standalone="no"?>
<!DOCTYPE svg PUBLIC "-//W3C//DTD SVG 1.1//EN"
  "http://www.w3.org/Graphics/SVG/1.1/DTD/svg11.dtd">
<svg xmlns:xlink="http://www.w3.org/1999/xlink" width="732.7725pt" height="318.269813pt" viewBox="0 0 732.7725 318.269813" xmlns="http://www.w3.org/2000/svg" version="1.1">
 <metadata>
  <rdf:RDF xmlns:dc="http://purl.org/dc/elements/1.1/" xmlns:cc="http://creativecommons.org/ns#" xmlns:rdf="http://www.w3.org/1999/02/22-rdf-syntax-ns#">
   <cc:Work>
    <dc:type rdf:resource="http://purl.org/dc/dcmitype/StillImage"/>
    <dc:format>image/svg+xml</dc:format>
    <dc:creator>
     <cc:Agent>
      <dc:title>NCP plot_perf.py</dc:title>
     </cc:Agent>
    </dc:creator>
   </cc:Work>
  </rdf:RDF>
 </metadata>
 <defs>
  <style type="text/css">*{stroke-linejoin: round; stroke-linecap: butt}</style>
 </defs>
 <g id="figure_1">
  <g id="patch_1">
   <path d="M 0 318.269813
L 732.7725 318.269813
L 732.7725 0
L 0 0
z
" style="fill: #ffffff"/>
  </g>
  <g id="axes_1">
   <g id="patch_2">
    <path d="M 150.38625 263.117813
L 373.725837 263.117813
L 373.725837 29.837813
L 150.38625 29.837813
z
" style="fill: #ffffff"/>
   </g>
   <g id="patch_3">
    <path d="M 150.38625 263.117813
L 272.464281 263.117813
L 272.464281 29.837813
L 150.38625 29.837813
z
" clip-path="url(#p4cd69018d3)" style="fill: #d55e00; opacity: 0.08; stroke: #d55e00; stroke-linejoin: miter"/>
   </g>
   <g id="text_1">
    <text style="font-size: 9px; font-family: 'DejaVu Sans'; fill: #57606a" transform="translate(159.152178 219.785416)">rate-loop regime (T_ncp)</text>
    <text style="font-size: 9px; font-family: 'DejaVu Sans'; fill: #57606a" transform="translate(159.152178 230.587877)">benefit ≈ single-digit %</text>
   </g>
   <g id="matplotlib.axis_1">
    <g id="xtick_1">
     <g id="line2d_1">
      <defs>
       <path id="m1a5d3ae9a4" d="M 0 0
L 0 3.5
" style="stroke: #24292f; stroke-width: 0.8"/>
      </defs>
      <g>
       <use xlink:href="#m1a5d3ae9a4" x="178.632447" y="263.117813" style="fill: #24292f; stroke: #24292f; stroke-width: 0.8"/>
      </g>
     </g>
     <g id="text_2">
      <!-- $\mathdefault{10^{-1}}$ -->
      <g style="fill: #24292f" transform="translate(166.882447 279.417812)">
       <text>
        <tspan x="0" y="-0.762187" style="font-size: 10px; font-family: 'DejaVu Sans'; fill: #24292f">1</tspan>
        <tspan x="6.362305" y="-0.762187" style="font-size: 10px; font-family: 'DejaVu Sans'; fill: #24292f">0</tspan>
        <tspan x="12.820312" y="-4.892187" style="font-size: 7px; font-family: 'DejaVu Sans'; fill: #24292f">−</tspan>
        <tspan x="18.685547" y="-4.892187" style="font-size: 7px; font-family: 'DejaVu Sans'; fill: #24292f">1</tspan>
       </text>
      </g>
     </g>
    </g>
    <g id="xtick_2">
     <g id="line2d_2">
      <g>
       <use xlink:href="#m1a5d3ae9a4" x="272.464281" y="263.117813" style="fill: #24292f; stroke: #24292f; stroke-width: 0.8"/>
      </g>
     </g>
     <g id="text_3">
      <!-- $\mathdefault{10^{0}}$ -->
      <g style="fill: #24292f" transform="translate(263.664281 279.517812)">
       <text>
        <tspan x="0" y="-0.674688" style="font-size: 10px; font-family: 'DejaVu Sans'; fill: #24292f">1</tspan>
        <tspan x="6.362305" y="-0.674688" style="font-size: 10px; font-family: 'DejaVu Sans'; fill: #24292f">0</tspan>
        <tspan x="12.820312" y="-4.804688" style="font-size: 7px; font-family: 'DejaVu Sans'; fill: #24292f">0</tspan>
       </text>
      </g>
     </g>
    </g>
    <g id="xtick_3">
     <g id="line2d_3">
      <g>
       <use xlink:href="#m1a5d3ae9a4" x="366.296116" y="263.117813" style="fill: #24292f; stroke: #24292f; stroke-width: 0.8"/>
      </g>
     </g>
     <g id="text_4">
      <!-- $\mathdefault{10^{1}}$ -->
      <g style="fill: #24292f" transform="translate(357.496116 279.417812)">
       <text>
        <tspan x="0" y="-0.762187" style="font-size: 10px; font-family: 'DejaVu Sans'; fill: #24292f">1</tspan>
        <tspan x="6.362305" y="-0.762187" style="font-size: 10px; font-family: 'DejaVu Sans'; fill: #24292f">0</tspan>
        <tspan x="12.820312" y="-4.892187" style="font-size: 7px; font-family: 'DejaVu Sans'; fill: #24292f">1</tspan>
       </text>
      </g>
     </g>
    </g>
    <g id="xtick_4">
     <g id="line2d_4">
      <defs>
       <path id="m3e69abbc90" d="M 0 0
L 0 2
" style="stroke: #24292f; stroke-width: 0.6"/>
      </defs>
      <g>
       <use xlink:href="#m3e69abbc90" x="150.38625" y="263.117813" style="fill: #24292f; stroke: #24292f; stroke-width: 0.6"/>
      </g>
     </g>
    </g>
    <g id="xtick_5">
     <g id="line2d_5">
      <g>
       <use xlink:href="#m3e69abbc90" x="157.815972" y="263.117813" style="fill: #24292f; stroke: #24292f; stroke-width: 0.6"/>
      </g>
     </g>
    </g>
    <g id="xtick_6">
     <g id="line2d_6">
      <g>
       <use xlink:href="#m3e69abbc90" x="164.097712" y="263.117813" style="fill: #24292f; stroke: #24292f; stroke-width: 0.6"/>
      </g>
     </g>
    </g>
    <g id="xtick_7">
     <g id="line2d_7">
      <g>
       <use xlink:href="#m3e69abbc90" x="169.539202" y="263.117813" style="fill: #24292f; stroke: #24292f; stroke-width: 0.6"/>
      </g>
     </g>
    </g>
    <g id="xtick_8">
     <g id="line2d_8">
      <g>
       <use xlink:href="#m3e69abbc90" x="174.338937" y="263.117813" style="fill: #24292f; stroke: #24292f; stroke-width: 0.6"/>
      </g>
     </g>
    </g>
    <g id="xtick_9">
     <g id="line2d_9">
      <g>
       <use xlink:href="#m3e69abbc90" x="206.878643" y="263.117813" style="fill: #24292f; stroke: #24292f; stroke-width: 0.6"/>
      </g>
     </g>
    </g>
    <g id="xtick_10">
     <g id="line2d_10">
      <g>
       <use xlink:href="#m3e69abbc90" x="223.401609" y="263.117813" style="fill: #24292f; stroke: #24292f; stroke-width: 0.6"/>
      </g>
     </g>
    </g>
    <g id="xtick_11">
     <g id="line2d_11">
      <g>
       <use xlink:href="#m3e69abbc90" x="235.12484" y="263.117813" style="fill: #24292f; stroke: #24292f; stroke-width: 0.6"/>
      </g>
     </g>
    </g>
    <g id="xtick_12">
     <g id="line2d_12">
      <g>
       <use xlink:href="#m3e69abbc90" x="244.218084" y="263.117813" style="fill: #24292f; stroke: #24292f; stroke-width: 0.6"/>
      </g>
     </g>
    </g>
    <g id="xtick_13">
     <g id="line2d_13">
      <g>
       <use xlink:href="#m3e69abbc90" x="251.647806" y="263.117813" style="fill: #24292f; stroke: #24292f; stroke-width: 0.6"/>
      </g>
     </g>
    </g>
    <g id="xtick_14">
     <g id="line2d_14">
      <g>
       <use xlink:href="#m3e69abbc90" x="257.929546" y="263.117813" style="fill: #24292f; stroke: #24292f; stroke-width: 0.6"/>
      </g>
     </g>
    </g>
    <g id="xtick_15">
     <g id="line2d_15">
      <g>
       <use xlink:href="#m3e69abbc90" x="263.371037" y="263.117813" style="fill: #24292f; stroke: #24292f; stroke-width: 0.6"/>
      </g>
     </g>
    </g>
    <g id="xtick_16">
     <g id="line2d_16">
      <g>
       <use xlink:href="#m3e69abbc90" x="268.170772" y="263.117813" style="fill: #24292f; stroke: #24292f; stroke-width: 0.6"/>
      </g>
     </g>
    </g>
    <g id="xtick_17">
     <g id="line2d_17">
      <g>
       <use xlink:href="#m3e69abbc90" x="300.710478" y="263.117813" style="fill: #24292f; stroke: #24292f; stroke-width: 0.6"/>
      </g>
     </g>
    </g>
    <g id="xtick_18">
     <g id="line2d_18">
      <g>
       <use xlink:href="#m3e69abbc90" x="317.233444" y="263.117813" style="fill: #24292f; stroke: #24292f; stroke-width: 0.6"/>
      </g>
     </g>
    </g>
    <g id="xtick_19">
     <g id="line2d_19">
      <g>
       <use xlink:href="#m3e69abbc90" x="328.956675" y="263.117813" style="fill: #24292f; stroke: #24292f; stroke-width: 0.6"/>
      </g>
     </g>
    </g>
    <g id="xtick_20">
     <g id="line2d_20">
      <g>
       <use xlink:href="#m3e69abbc90" x="338.049919" y="263.117813" style="fill: #24292f; stroke: #24292f; stroke-width: 0.6"/>
      </g>
     </g>
    </g>
    <g id="xtick_21">
     <g id="line2d_21">
      <g>
       <use xlink:href="#m3e69abbc90" x="345.479641" y="263.117813" style="fill: #24292f; stroke: #24292f; stroke-width: 0.6"/>
      </g>
     </g>
    </g>
    <g id="xtick_22">
     <g id="line2d_22">
      <g>
       <use xlink:href="#m3e69abbc90" x="351.761381" y="263.117813" style="fill: #24292f; stroke: #24292f; stroke-width: 0.6"/>
      </g>
     </g>
    </g>
    <g id="xtick_23">
     <g id="line2d_23">
      <g>
       <use xlink:href="#m3e69abbc90" x="357.202871" y="263.117813" style="fill: #24292f; stroke: #24292f; stroke-width: 0.6"/>
      </g>
     </g>
    </g>
    <g id="xtick_24">
     <g id="line2d_24">
      <g>
       <use xlink:href="#m3e69abbc90" x="362.002606" y="263.117813" style="fill: #24292f; stroke: #24292f; stroke-width: 0.6"/>
      </g>
     </g>
    </g>
    <g id="text_5">
     <text style="font-size: 12px; font-family: 'DejaVu Sans'; text-anchor: middle; fill: #24292f" x="262.056044" y="295.038281" transform="rotate(-0 262.056044 295.038281)">transport-work per chunk (ms, log)</text>
    </g>
   </g>
   <g id="matplotlib.axis_2">
    <g id="ytick_1">
     <g id="line2d_25">
      <path d="M 150.38625 263.117813
L 373.725837 263.117813
" clip-path="url(#p4cd69018d3)" style="fill: none; stroke: #d0d7de; stroke-width: 0.6; stroke-linecap: square"/>
     </g>
     <g id="line2d_26">
      <defs>
       <path id="m0b039948b1" d="M 0 0
L -3.5 0
" style="stroke: #24292f; stroke-width: 0.8"/>
      </defs>
      <g>
       <use xlink:href="#m0b039948b1" x="150.38625" y="263.117813" style="fill: #24292f; stroke: #24292f; stroke-width: 0.8"/>
      </g>
     </g>
     <g id="text_6">
      <text style="font-size: 10px; font-family: 'DejaVu Sans'; text-anchor: end; fill: #24292f" x="143.38625" y="266.916641" transform="rotate(-0 143.38625 266.916641)">1.0</text>
     </g>
    </g>
    <g id="ytick_2">
     <g id="line2d_27">
      <path d="M 150.38625 214.006234
L 373.725837 214.006234
" clip-path="url(#p4cd69018d3)" style="fill: none; stroke: #d0d7de; stroke-width: 0.6; stroke-linecap: square"/>
     </g>
     <g id="line2d_28">
      <g>
       <use xlink:href="#m0b039948b1" x="150.38625" y="214.006234" style="fill: #24292f; stroke: #24292f; stroke-width: 0.8"/>
      </g>
     </g>
     <g id="text_7">
      <text style="font-size: 10px; font-family: 'DejaVu Sans'; text-anchor: end; fill: #24292f" x="143.38625" y="217.805062" transform="rotate(-0 143.38625 217.805062)">1.2</text>
     </g>
    </g>
    <g id="ytick_3">
     <g id="line2d_29">
      <path d="M 150.38625 164.894655
L 373.725837 164.894655
" clip-path="url(#p4cd69018d3)" style="fill: none; stroke: #d0d7de; stroke-width: 0.6; stroke-linecap: square"/>
     </g>
     <g id="line2d_30">
      <g>
       <use xlink:href="#m0b039948b1" x="150.38625" y="164.894655" style="fill: #24292f; stroke: #24292f; stroke-width: 0.8"/>
      </g>
     </g>
     <g id="text_8">
      <text style="font-size: 10px; font-family: 'DejaVu Sans'; text-anchor: end; fill: #24292f" x="143.38625" y="168.693483" transform="rotate(-0 143.38625 168.693483)">1.4</text>
     </g>
    </g>
    <g id="ytick_4">
     <g id="line2d_31">
      <path d="M 150.38625 115.783076
L 373.725837 115.783076
" clip-path="url(#p4cd69018d3)" style="fill: none; stroke: #d0d7de; stroke-width: 0.6; stroke-linecap: square"/>
     </g>
     <g id="line2d_32">
      <g>
       <use xlink:href="#m0b039948b1" x="150.38625" y="115.783076" style="fill: #24292f; stroke: #24292f; stroke-width: 0.8"/>
      </g>
     </g>
     <g id="text_9">
      <text style="font-size: 10px; font-family: 'DejaVu Sans'; text-anchor: end; fill: #24292f" x="143.38625" y="119.581904" transform="rotate(-0 143.38625 119.581904)">1.6</text>
     </g>
    </g>
    <g id="ytick_5">
     <g id="line2d_33">
      <path d="M 150.38625 66.671497
L 373.725837 66.671497
" clip-path="url(#p4cd69018d3)" style="fill: none; stroke: #d0d7de; stroke-width: 0.6; stroke-linecap: square"/>
     </g>
     <g id="line2d_34">
      <g>
       <use xlink:href="#m0b039948b1" x="150.38625" y="66.671497" style="fill: #24292f; stroke: #24292f; stroke-width: 0.8"/>
      </g>
     </g>
     <g id="text_10">
      <text style="font-size: 10px; font-family: 'DejaVu Sans'; text-anchor: end; fill: #24292f" x="143.38625" y="70.470325" transform="rotate(-0 143.38625 70.470325)">1.8</text>
     </g>
    </g>
    <g id="text_11">
     <text style="font-size: 12px; font-family: 'DejaVu Sans'; text-anchor: middle; fill: #24292f" x="120.600313" y="146.477812" transform="rotate(-90 120.600313 146.477812)">overlap speedup (×)</text>
    </g>
   </g>
   <g id="patch_4">
    <path d="M 150.38625 263.117813
L 150.38625 29.837813
" style="fill: none; stroke: #57606a; stroke-linejoin: miter; stroke-linecap: square"/>
   </g>
   <g id="patch_5">
    <path d="M 150.38625 263.117813
L 373.725837 263.117813
" style="fill: none; stroke: #57606a; stroke-linejoin: miter; stroke-linecap: square"/>
   </g>
   <g id="text_12">
    <path d="M 56.856512 7.630937
L 59.488075 7.630937
L 59.488075 11.520312
L 63.370887 11.520312
L 63.370887 7.630937
L 66.00245 7.630937
L 66.00245 17.837812
L 63.370887 17.837812
L 63.370887 13.510937
L 59.488075 13.510937
L 59.488075 17.837812
L 56.856512 17.837812
L 56.856512 7.630937
z
M 68.463387 10.181562
L 70.909012 10.181562
L 70.909012 17.837812
L 68.463387 17.837812
L 68.463387 10.181562
z
M 68.463387 7.2
L 70.909012 7.2
L 70.909012 9.197187
L 68.463387 9.197187
L 68.463387 7.2
z
M 79.243387 10.42
L 79.243387 12.279375
Q 78.458075 11.95125 77.725262 11.787187
Q 76.994637 11.623125 76.34495 11.623125
Q 75.647137 11.623125 75.308075 11.798125
Q 74.9712 11.973125 74.9712 12.334062
Q 74.9712 12.629375 75.227137 12.786875
Q 75.483075 12.942187 76.145887 13.01875
L 76.576825 13.08
Q 78.458075 13.318437 79.105575 13.865312
Q 79.755262 14.412187 79.755262 15.5825
Q 79.755262 16.805312 78.851825 17.422187
Q 77.950575 18.036875 76.1612 18.036875
Q 75.402137 18.036875 74.590575 17.916562
Q 73.7812 17.79625 72.925887 17.557812
L 72.925887 15.698437
Q 73.6587 16.052812 74.426512 16.232187
Q 75.196512 16.409375 75.988387 16.409375
Q 76.708075 16.409375 77.069012 16.2125
Q 77.432137 16.013437 77.432137 15.621875
Q 77.432137 15.29375 77.182762 15.134062
Q 76.933387 14.974375 76.18745 14.884687
L 75.756512 14.83
Q 74.12245 14.624375 73.4662 14.070937
Q 72.80995 13.5175 72.80995 12.38875
Q 72.80995 11.1725 73.643387 10.58625
Q 74.479012 9.997812 76.200575 9.997812
Q 76.8787 9.997812 77.62245 10.100625
Q 78.368387 10.20125 79.243387 10.42
z
M 84.265887 8.007187
L 84.265887 10.181562
L 86.790262 10.181562
L 86.790262 11.931562
L 84.265887 11.931562
L 84.265887 15.177812
Q 84.265887 15.711562 84.478075 15.899687
Q 84.690262 16.087812 85.320262 16.087812
L 86.578075 16.087812
L 86.578075 17.837812
L 84.478075 17.837812
Q 83.02995 17.837812 82.424012 17.234062
Q 81.820262 16.628125 81.820262 15.177812
L 81.820262 11.931562
L 80.601825 11.931562
L 80.601825 10.181562
L 81.820262 10.181562
L 81.820262 8.007187
L 84.265887 8.007187
z
M 91.9287 11.747812
Q 91.11495 11.747812 90.688387 12.331875
Q 90.261825 12.915937 90.261825 14.01625
Q 90.261825 15.116562 90.688387 15.702812
Q 91.11495 16.286875 91.9287 16.286875
Q 92.729325 16.286875 93.151512 15.702812
Q 93.575887 15.116562 93.575887 14.01625
Q 93.575887 12.915937 93.151512 12.331875
Q 92.729325 11.747812 91.9287 11.747812
z
M 91.9287 9.997812
Q 93.904012 9.997812 95.015262 11.065312
Q 96.126512 12.130625 96.126512 14.01625
Q 96.126512 15.904062 95.015262 16.971562
Q 93.904012 18.036875 91.9287 18.036875
Q 89.946825 18.036875 88.829012 16.971562
Q 87.7112 15.904062 87.7112 14.01625
Q 87.7112 12.130625 88.829012 11.065312
Q 89.946825 9.997812 91.9287 9.997812
z
M 103.59245 12.26625
Q 103.270887 12.115312 102.951512 12.045312
Q 102.634325 11.973125 102.312762 11.973125
Q 101.36995 11.973125 100.860262 12.579062
Q 100.350575 13.182812 100.350575 14.309375
L 100.350575 17.837812
L 97.90495 17.837812
L 97.90495 10.181562
L 100.350575 10.181562
L 100.350575 11.439375
Q 100.823075 10.686875 101.433387 10.343437
Q 102.045887 9.997812 102.9012 9.997812
Q 103.0237 9.997812 103.165887 10.00875
Q 103.310262 10.0175 103.5837 10.0525
L 103.59245 12.26625
z
M 104.8087 10.181562
L 107.254325 10.181562
L 107.254325 17.837812
L 104.8087 17.837812
L 104.8087 10.181562
z
M 104.8087 7.2
L 107.254325 7.2
L 107.254325 9.197187
L 104.8087 9.197187
L 104.8087 7.2
z
M 115.794325 10.42
L 115.794325 12.417187
Q 115.295575 12.075937 114.79245 11.911875
Q 114.289325 11.747812 113.749012 11.747812
Q 112.725262 11.747812 112.154325 12.345
Q 111.583387 12.942187 111.583387 14.01625
Q 111.583387 15.090312 112.154325 15.689687
Q 112.725262 16.286875 113.749012 16.286875
Q 114.324325 16.286875 114.840575 16.11625
Q 115.356825 15.943437 115.794325 15.60875
L 115.794325 17.6125
Q 115.219012 17.824687 114.628387 17.929687
Q 114.037762 18.036875 113.442762 18.036875
Q 111.3712 18.036875 110.200887 16.97375
Q 109.032762 15.910625 109.032762 14.01625
Q 109.032762 12.121875 110.200887 11.060937
Q 111.3712 9.997812 113.442762 9.997812
Q 114.044325 9.997812 114.628387 10.102812
Q 115.21245 10.207812 115.794325 10.42
z
M 121.33745 14.3925
Q 120.571825 14.3925 120.184637 14.652812
Q 119.799637 14.910937 119.799637 15.418437
Q 119.799637 15.882187 120.110262 16.146875
Q 120.423075 16.409375 120.976512 16.409375
Q 121.665575 16.409375 122.138075 15.915
Q 122.610575 15.418437 122.610575 14.6725
L 122.610575 14.3925
L 121.33745 14.3925
z
M 125.078075 13.469375
L 125.078075 17.837812
L 122.610575 17.837812
L 122.610575 16.7025
Q 122.118387 17.400312 121.501512 17.719687
Q 120.886825 18.036875 120.005262 18.036875
Q 118.815262 18.036875 118.0737 17.343437
Q 117.332137 16.647812 117.332137 15.540937
Q 117.332137 14.193437 118.25745 13.565625
Q 119.18495 12.935625 121.166825 12.935625
L 122.610575 12.935625
L 122.610575 12.745312
Q 122.610575 12.163437 122.1512 11.894375
Q 121.694012 11.623125 120.722762 11.623125
Q 119.93745 11.623125 119.259325 11.780625
Q 118.583387 11.938125 118.001512 12.253125
L 118.001512 10.387187
Q 118.789012 10.194687 119.580887 10.09625
Q 120.37495 9.997812 121.166825 9.997812
Q 123.238387 9.997812 124.157137 10.81375
Q 125.078075 11.629687 125.078075 13.469375
z
M 127.355262 7.2
L 129.800887 7.2
L 129.800887 17.837812
L 127.355262 17.837812
L 127.355262 7.2
z
M 140.670575 11.747812
Q 139.856825 11.747812 139.430262 12.331875
Q 139.0037 12.915937 139.0037 14.01625
Q 139.0037 15.116562 139.430262 15.702812
Q 139.856825 16.286875 140.670575 16.286875
Q 141.4712 16.286875 141.893387 15.702812
Q 142.317762 15.116562 142.317762 14.01625
Q 142.317762 12.915937 141.893387 12.331875
Q 141.4712 11.747812 140.670575 11.747812
z
M 140.670575 9.997812
Q 142.645887 9.997812 143.757137 11.065312
Q 144.868387 12.130625 144.868387 14.01625
Q 144.868387 15.904062 143.757137 16.971562
Q 142.645887 18.036875 140.670575 18.036875
Q 138.6887 18.036875 137.570887 16.971562
Q 136.453075 15.904062 136.453075 14.01625
Q 136.453075 12.130625 137.570887 11.065312
Q 138.6887 9.997812 140.670575 9.997812
z
M 145.682137 10.181562
L 148.12995 10.181562
L 150.03745 15.473125
L 151.9362 10.181562
L 154.390575 10.181562
L 151.3762 17.837812
L 148.68995 17.837812
L 145.682137 10.181562
z
M 163.414012 13.99
L 163.414012 14.685625
L 157.6937 14.685625
Q 157.7812 15.5475 158.31495 15.978437
Q 158.8487 16.409375 159.804637 16.409375
Q 160.576825 16.409375 161.3862 16.179687
Q 162.197762 15.95 163.053075 15.48625
L 163.053075 17.371875
Q 162.184637 17.7 161.3162 17.868437
Q 160.447762 18.036875 159.579325 18.036875
Q 157.5012 18.036875 156.348387 16.980312
Q 155.197762 15.92375 155.197762 14.01625
Q 155.197762 12.14375 156.3287 11.071875
Q 157.459637 9.997812 159.4437 9.997812
Q 161.248387 9.997812 162.3312 11.085
Q 163.414012 12.17 163.414012 13.99
z
M 160.898387 13.17625
Q 160.898387 12.478437 160.491512 12.051875
Q 160.084637 11.623125 159.428387 11.623125
Q 158.71745 11.623125 158.273387 12.023437
Q 157.829325 12.42375 157.71995 13.17625
L 160.898387 13.17625
z
M 170.956512 12.26625
Q 170.63495 12.115312 170.315575 12.045312
Q 169.998387 11.973125 169.676825 11.973125
Q 168.734012 11.973125 168.224325 12.579062
Q 167.714637 13.182812 167.714637 14.309375
L 167.714637 17.837812
L 165.269012 17.837812
L 165.269012 10.181562
L 167.714637 10.181562
L 167.714637 11.439375
Q 168.187137 10.686875 168.79745 10.343437
Q 169.40995 9.997812 170.265262 9.997812
Q 170.387762 9.997812 170.52995 10.00875
Q 170.674325 10.0175 170.947762 10.0525
L 170.956512 12.26625
z
M 172.172762 7.2
L 174.618387 7.2
L 174.618387 17.837812
L 172.172762 17.837812
L 172.172762 7.2
z
M 180.402137 14.3925
Q 179.636512 14.3925 179.249325 14.652812
Q 178.864325 14.910937 178.864325 15.418437
Q 178.864325 15.882187 179.17495 16.146875
Q 179.487762 16.409375 180.0412 16.409375
Q 180.730262 16.409375 181.202762 15.915
Q 181.675262 15.418437 181.675262 14.6725
L 181.675262 14.3925
L 180.402137 14.3925
z
M 184.142762 13.469375
L 184.142762 17.837812
L 181.675262 17.837812
L 181.675262 16.7025
Q 181.183075 17.400312 180.5662 17.719687
Q 179.951512 18.036875 179.06995 18.036875
Q 177.87995 18.036875 177.138387 17.343437
Q 176.396825 16.647812 176.396825 15.540937
Q 176.396825 14.193437 177.322137 13.565625
Q 178.249637 12.935625 180.231512 12.935625
L 181.675262 12.935625
L 181.675262 12.745312
Q 181.675262 12.163437 181.215887 11.894375
Q 180.7587 11.623125 179.78745 11.623125
Q 179.002137 11.623125 178.324012 11.780625
Q 177.648075 11.938125 177.0662 12.253125
L 177.0662 10.387187
Q 177.8537 10.194687 178.645575 10.09625
Q 179.439637 9.997812 180.231512 9.997812
Q 182.303075 9.997812 183.221825 10.81375
Q 184.142762 11.629687 184.142762 13.469375
z
M 188.865575 16.730937
L 188.865575 20.749375
L 186.41995 20.749375
L 186.41995 10.181562
L 188.865575 10.181562
L 188.865575 11.301562
Q 189.373075 10.632187 189.987762 10.315
Q 190.60245 9.997812 191.403075 9.997812
Q 192.818387 9.997812 193.7262 11.122187
Q 194.6362 12.246562 194.6362 14.01625
Q 194.6362 15.785937 193.7262 16.9125
Q 192.818387 18.036875 191.403075 18.036875
Q 190.60245 18.036875 189.987762 17.719687
Q 189.373075 17.400312 188.865575 16.730937
z
M 190.493075 11.774062
Q 189.707762 11.774062 189.285575 12.351562
Q 188.865575 12.929062 188.865575 14.01625
Q 188.865575 15.103437 189.285575 15.680937
Q 189.707762 16.258437 190.493075 16.258437
Q 191.278387 16.258437 191.691825 15.685312
Q 192.10745 15.11 192.10745 14.01625
Q 192.10745 12.9225 191.691825 12.349375
Q 191.278387 11.774062 190.493075 11.774062
z
M 208.4087 11.4525
Q 208.874637 10.741562 209.513387 10.369687
Q 210.152137 9.997812 210.917762 9.997812
Q 212.236825 9.997812 212.928075 10.811562
Q 213.619325 11.623125 213.619325 13.17625
L 213.619325 17.837812
L 211.158387 17.837812
L 211.158387 13.845625
Q 211.16495 13.755937 211.167137 13.661875
Q 211.171512 13.565625 211.171512 13.388437
Q 211.171512 12.574687 210.930887 12.209375
Q 210.69245 11.841875 210.1587 11.841875
Q 209.463075 11.841875 209.08245 12.417187
Q 208.704012 12.990312 208.6887 14.0775
L 208.6887 17.837812
L 206.227762 17.837812
L 206.227762 13.845625
Q 206.227762 12.574687 206.009012 12.209375
Q 205.790262 11.841875 205.230262 11.841875
Q 204.525887 11.841875 204.143075 12.419375
Q 203.760262 12.996875 203.760262 14.070937
L 203.760262 17.837812
L 201.299325 17.837812
L 201.299325 10.181562
L 203.760262 10.181562
L 203.760262 11.301562
Q 204.213075 10.654062 204.797137 10.325937
Q 205.3812 9.997812 206.085575 9.997812
Q 206.87745 9.997812 207.485575 10.380625
Q 208.095887 10.763437 208.4087 11.4525
z
M 219.545262 11.747812
Q 218.731512 11.747812 218.30495 12.331875
Q 217.878387 12.915937 217.878387 14.01625
Q 217.878387 15.116562 218.30495 15.702812
Q 218.731512 16.286875 219.545262 16.286875
Q 220.345887 16.286875 220.768075 15.702812
Q 221.19245 15.116562 221.19245 14.01625
Q 221.19245 12.915937 220.768075 12.331875
Q 220.345887 11.747812 219.545262 11.747812
z
M 219.545262 9.997812
Q 221.520575 9.997812 222.631825 11.065312
Q 223.743075 12.130625 223.743075 14.01625
Q 223.743075 15.904062 222.631825 16.971562
Q 221.520575 18.036875 219.545262 18.036875
Q 217.563387 18.036875 216.445575 16.971562
Q 215.327762 15.904062 215.327762 14.01625
Q 215.327762 12.130625 216.445575 11.065312
Q 217.563387 9.997812 219.545262 9.997812
z
M 230.72995 11.301562
L 230.72995 7.2
L 233.190887 7.2
L 233.190887 17.837812
L 230.72995 17.837812
L 230.72995 16.730937
Q 230.224637 17.406875 229.614325 17.721875
Q 229.0062 18.036875 228.207762 18.036875
Q 226.79245 18.036875 225.88245 16.9125
Q 224.974637 15.785937 224.974637 14.01625
Q 224.974637 12.246562 225.88245 11.122187
Q 226.79245 9.997812 228.207762 9.997812
Q 228.999637 9.997812 229.612137 10.315
Q 230.224637 10.632187 230.72995 11.301562
z
M 229.115575 16.258437
Q 229.903075 16.258437 230.316512 15.685312
Q 230.72995 15.11 230.72995 14.01625
Q 230.72995 12.9225 230.316512 12.349375
Q 229.903075 11.774062 229.115575 11.774062
Q 228.336825 11.774062 227.923387 12.349375
Q 227.50995 12.9225 227.50995 14.01625
Q 227.50995 15.11 227.923387 15.685312
Q 228.336825 16.258437 229.115575 16.258437
z
M 243.183387 13.99
L 243.183387 14.685625
L 237.463075 14.685625
Q 237.550575 15.5475 238.084325 15.978437
Q 238.618075 16.409375 239.574012 16.409375
Q 240.3462 16.409375 241.155575 16.179687
Q 241.967137 15.95 242.82245 15.48625
L 242.82245 17.371875
Q 241.954012 17.7 241.085575 17.868437
Q 240.217137 18.036875 239.3487 18.036875
Q 237.270575 18.036875 236.117762 16.980312
Q 234.967137 15.92375 234.967137 14.01625
Q 234.967137 12.14375 236.098075 11.071875
Q 237.229012 9.997812 239.213075 9.997812
Q 241.017762 9.997812 242.100575 11.085
Q 243.183387 12.17 243.183387 13.99
z
M 240.667762 13.17625
Q 240.667762 12.478437 240.260887 12.051875
Q 239.854012 11.623125 239.197762 11.623125
Q 238.486825 11.623125 238.042762 12.023437
Q 237.5987 12.42375 237.489325 13.17625
L 240.667762 13.17625
z
M 245.038387 7.2
L 247.484012 7.2
L 247.484012 17.837812
L 245.038387 17.837812
L 245.038387 7.2
z
M 250.227137 10.181562
L 252.694637 10.181562
L 252.694637 12.82625
L 250.227137 12.82625
L 250.227137 10.181562
z
M 250.227137 15.193125
L 252.694637 15.193125
L 252.694637 17.837812
L 250.227137 17.837812
L 250.227137 15.193125
z
M 265.517762 11.301562
L 265.517762 7.2
L 267.9787 7.2
L 267.9787 17.837812
L 265.517762 17.837812
L 265.517762 16.730937
Q 265.01245 17.406875 264.402137 17.721875
Q 263.794012 18.036875 262.995575 18.036875
Q 261.580262 18.036875 260.670262 16.9125
Q 259.76245 15.785937 259.76245 14.01625
Q 259.76245 12.246562 260.670262 11.122187
Q 261.580262 9.997812 262.995575 9.997812
Q 263.78745 9.997812 264.39995 10.315
Q 265.01245 10.632187 265.517762 11.301562
z
M 263.903387 16.258437
Q 264.690887 16.258437 265.104325 15.685312
Q 265.517762 15.11 265.517762 14.01625
Q 265.517762 12.9225 265.104325 12.349375
Q 264.690887 11.774062 263.903387 11.774062
Q 263.124637 11.774062 262.7112 12.349375
Q 262.297762 12.9225 262.297762 14.01625
Q 262.297762 15.11 262.7112 15.685312
Q 263.124637 16.258437 263.903387 16.258437
z
M 270.330262 10.181562
L 272.775887 10.181562
L 272.775887 17.837812
L 270.330262 17.837812
L 270.330262 10.181562
z
M 270.330262 7.2
L 272.775887 7.2
L 272.775887 9.197187
L 270.330262 9.197187
L 270.330262 7.2
z
M 282.2237 11.4525
Q 282.689637 10.741562 283.328387 10.369687
Q 283.967137 9.997812 284.732762 9.997812
Q 286.051825 9.997812 286.743075 10.811562
Q 287.434325 11.623125 287.434325 13.17625
L 287.434325 17.837812
L 284.973387 17.837812
L 284.973387 13.845625
Q 284.97995 13.755937 284.982137 13.661875
Q 284.986512 13.565625 284.986512 13.388437
Q 284.986512 12.574687 284.745887 12.209375
Q 284.50745 11.841875 283.9737 11.841875
Q 283.278075 11.841875 282.89745 12.417187
Q 282.519012 12.990312 282.5037 14.0775
L 282.5037 17.837812
L 280.042762 17.837812
L 280.042762 13.845625
Q 280.042762 12.574687 279.824012 12.209375
Q 279.605262 11.841875 279.045262 11.841875
Q 278.340887 11.841875 277.958075 12.419375
Q 277.575262 12.996875 277.575262 14.070937
L 277.575262 17.837812
L 275.114325 17.837812
L 275.114325 10.181562
L 277.575262 10.181562
L 277.575262 11.301562
Q 278.028075 10.654062 278.612137 10.325937
Q 279.1962 9.997812 279.900575 9.997812
Q 280.69245 9.997812 281.300575 10.380625
Q 281.910887 10.763437 282.2237 11.4525
z
M 289.718075 10.181562
L 292.1637 10.181562
L 292.1637 17.837812
L 289.718075 17.837812
L 289.718075 10.181562
z
M 289.718075 7.2
L 292.1637 7.2
L 292.1637 9.197187
L 289.718075 9.197187
L 289.718075 7.2
z
M 302.213075 13.17625
L 302.213075 17.837812
L 299.752137 17.837812
L 299.752137 17.07875
L 299.752137 14.27
Q 299.752137 13.279062 299.708387 12.902812
Q 299.664637 12.526562 299.555262 12.349375
Q 299.410887 12.10875 299.1637 11.975312
Q 298.9187 11.841875 298.6037 11.841875
Q 297.838075 11.841875 297.400575 12.434687
Q 296.963075 13.025312 296.963075 14.070937
L 296.963075 17.837812
L 294.51745 17.837812
L 294.51745 10.181562
L 296.963075 10.181562
L 296.963075 11.301562
Q 297.516512 10.632187 298.137762 10.315
Q 298.7612 9.997812 299.5137 9.997812
Q 300.839325 9.997812 301.5262 10.811562
Q 302.213075 11.623125 302.213075 13.17625
z
M 304.4837 10.181562
L 306.929325 10.181562
L 306.929325 17.837812
L 304.4837 17.837812
L 304.4837 10.181562
z
M 304.4837 7.2
L 306.929325 7.2
L 306.929325 9.197187
L 304.4837 9.197187
L 304.4837 7.2
z
M 315.2637 10.42
L 315.2637 12.279375
Q 314.478387 11.95125 313.745575 11.787187
Q 313.01495 11.623125 312.365262 11.623125
Q 311.66745 11.623125 311.328387 11.798125
Q 310.991512 11.973125 310.991512 12.334062
Q 310.991512 12.629375 311.24745 12.786875
Q 311.503387 12.942187 312.1662 13.01875
L 312.597137 13.08
Q 314.478387 13.318437 315.125887 13.865312
Q 315.775575 14.412187 315.775575 15.5825
Q 315.775575 16.805312 314.872137 17.422187
Q 313.970887 18.036875 312.181512 18.036875
Q 311.42245 18.036875 310.610887 17.916562
Q 309.801512 17.79625 308.9462 17.557812
L 308.9462 15.698437
Q 309.679012 16.052812 310.446825 16.232187
Q 311.216825 16.409375 312.0087 16.409375
Q 312.728387 16.409375 313.089325 16.2125
Q 313.45245 16.013437 313.45245 15.621875
Q 313.45245 15.29375 313.203075 15.134062
Q 312.9537 14.974375 312.207762 14.884687
L 311.776825 14.83
Q 310.142762 14.624375 309.486512 14.070937
Q 308.830262 13.5175 308.830262 12.38875
Q 308.830262 11.1725 309.6637 10.58625
Q 310.499325 9.997812 312.220887 9.997812
Q 312.899012 9.997812 313.642762 10.100625
Q 314.3887 10.20125 315.2637 10.42
z
M 325.310887 13.17625
L 325.310887 17.837812
L 322.84995 17.837812
L 322.84995 17.07875
L 322.84995 14.283125
Q 322.84995 13.279062 322.8062 12.902812
Q 322.76245 12.526562 322.653075 12.349375
Q 322.5087 12.10875 322.261512 11.975312
Q 322.016512 11.841875 321.701512 11.841875
Q 320.935887 11.841875 320.498387 12.434687
Q 320.060887 13.025312 320.060887 14.070937
L 320.060887 17.837812
L 317.615262 17.837812
L 317.615262 7.2
L 320.060887 7.2
L 320.060887 11.301562
Q 320.614325 10.632187 321.235575 10.315
Q 321.859012 9.997812 322.611512 9.997812
Q 323.937137 9.997812 324.624012 10.811562
Q 325.310887 11.623125 325.310887 13.17625
z
M 327.581512 10.181562
L 330.027137 10.181562
L 330.027137 17.837812
L 327.581512 17.837812
L 327.581512 10.181562
z
M 327.581512 7.2
L 330.027137 7.2
L 330.027137 9.197187
L 327.581512 9.197187
L 327.581512 7.2
z
M 340.076512 13.17625
L 340.076512 17.837812
L 337.615575 17.837812
L 337.615575 17.07875
L 337.615575 14.27
Q 337.615575 13.279062 337.571825 12.902812
Q 337.528075 12.526562 337.4187 12.349375
Q 337.274325 12.10875 337.027137 11.975312
Q 336.782137 11.841875 336.467137 11.841875
Q 335.701512 11.841875 335.264012 12.434687
Q 334.826512 13.025312 334.826512 14.070937
L 334.826512 17.837812
L 332.380887 17.837812
L 332.380887 10.181562
L 334.826512 10.181562
L 334.826512 11.301562
Q 335.37995 10.632187 336.0012 10.315
Q 336.624637 9.997812 337.377137 9.997812
Q 338.702762 9.997812 339.389637 10.811562
Q 340.076512 11.623125 340.076512 13.17625
z
M 347.555575 16.538437
Q 347.050262 17.207812 346.43995 17.522812
Q 345.831825 17.837812 345.033387 17.837812
Q 343.6312 17.837812 342.714637 16.735312
Q 341.800262 15.630625 341.800262 13.92
Q 341.800262 12.205 342.714637 11.109062
Q 343.6312 10.010937 345.033387 10.010937
Q 345.831825 10.010937 346.43995 10.325937
Q 347.050262 10.63875 347.555575 11.316875
L 347.555575 10.181562
L 350.016512 10.181562
L 350.016512 17.065625
Q 350.016512 18.911875 348.850575 19.885312
Q 347.684637 20.85875 345.470887 20.85875
Q 344.753387 20.85875 344.081825 20.749375
Q 343.41245 20.64 342.736512 20.414687
L 342.736512 18.507187
Q 343.37745 18.876875 343.992137 19.058437
Q 344.609012 19.24 345.230262 19.24
Q 346.433387 19.24 346.993387 18.712812
Q 347.555575 18.185625 347.555575 17.065625
L 347.555575 16.538437
z
M 345.9412 11.774062
Q 345.182137 11.774062 344.757762 12.33625
Q 344.335575 12.89625 344.335575 13.92
Q 344.335575 14.974375 344.744637 15.516875
Q 345.155887 16.059375 345.9412 16.059375
Q 346.706825 16.059375 347.1312 15.499375
Q 347.555575 14.939375 347.555575 13.92
Q 347.555575 12.89625 347.1312 12.33625
Q 346.706825 11.774062 345.9412 11.774062
z
M 363.22245 10.42
L 363.22245 12.279375
Q 362.437137 11.95125 361.704325 11.787187
Q 360.9737 11.623125 360.324012 11.623125
Q 359.6262 11.623125 359.287137 11.798125
Q 358.950262 11.973125 358.950262 12.334062
Q 358.950262 12.629375 359.2062 12.786875
Q 359.462137 12.942187 360.12495 13.01875
L 360.555887 13.08
Q 362.437137 13.318437 363.084637 13.865312
Q 363.734325 14.412187 363.734325 15.5825
Q 363.734325 16.805312 362.830887 17.422187
Q 361.929637 18.036875 360.140262 18.036875
Q 359.3812 18.036875 358.569637 17.916562
Q 357.760262 17.79625 356.90495 17.557812
L 356.90495 15.698437
Q 357.637762 16.052812 358.405575 16.232187
Q 359.175575 16.409375 359.96745 16.409375
Q 360.687137 16.409375 361.048075 16.2125
Q 361.4112 16.013437 361.4112 15.621875
Q 361.4112 15.29375 361.161825 15.134062
Q 360.91245 14.974375 360.166512 14.884687
L 359.735575 14.83
Q 358.101512 14.624375 357.445262 14.070937
Q 356.789012 13.5175 356.789012 12.38875
Q 356.789012 11.1725 357.62245 10.58625
Q 358.458075 9.997812 360.179637 9.997812
Q 360.857762 9.997812 361.601512 10.100625
Q 362.34745 10.20125 363.22245 10.42
z
M 364.567762 10.181562
L 367.015575 10.181562
L 369.074012 15.376875
L 370.824012 10.181562
L 373.269637 10.181562
L 370.049637 18.561875
Q 369.5662 19.841562 368.9187 20.349062
Q 368.273387 20.85875 367.214637 20.85875
L 365.799325 20.85875
L 365.799325 19.253125
L 366.56495 19.253125
Q 367.1862 19.253125 367.468387 19.054062
Q 367.752762 18.857187 367.910262 18.343125
L 367.980262 18.130937
L 364.567762 10.181562
z
M 382.395887 13.17625
L 382.395887 17.837812
L 379.93495 17.837812
L 379.93495 17.07875
L 379.93495 14.27
Q 379.93495 13.279062 379.8912 12.902812
Q 379.84745 12.526562 379.738075 12.349375
Q 379.5937 12.10875 379.346512 11.975312
Q 379.101512 11.841875 378.786512 11.841875
Q 378.020887 11.841875 377.583387 12.434687
Q 377.145887 13.025312 377.145887 14.070937
L 377.145887 17.837812
L 374.700262 17.837812
L 374.700262 10.181562
L 377.145887 10.181562
L 377.145887 11.301562
Q 377.699325 10.632187 378.320575 10.315
Q 378.944012 9.997812 379.696512 9.997812
Q 381.022137 9.997812 381.709012 10.811562
Q 382.395887 11.623125 382.395887 13.17625
z
M 387.33745 8.007187
L 387.33745 10.181562
L 389.861825 10.181562
L 389.861825 11.931562
L 387.33745 11.931562
L 387.33745 15.177812
Q 387.33745 15.711562 387.549637 15.899687
Q 387.761825 16.087812 388.391825 16.087812
L 389.649637 16.087812
L 389.649637 17.837812
L 387.549637 17.837812
Q 386.101512 17.837812 385.495575 17.234062
Q 384.891825 16.628125 384.891825 15.177812
L 384.891825 11.931562
L 383.673387 11.931562
L 383.673387 10.181562
L 384.891825 10.181562
L 384.891825 8.007187
L 387.33745 8.007187
z
M 399.0537 13.17625
L 399.0537 17.837812
L 396.592762 17.837812
L 396.592762 17.07875
L 396.592762 14.283125
Q 396.592762 13.279062 396.549012 12.902812
Q 396.505262 12.526562 396.395887 12.349375
Q 396.251512 12.10875 396.004325 11.975312
Q 395.759325 11.841875 395.444325 11.841875
Q 394.6787 11.841875 394.2412 12.434687
Q 393.8037 13.025312 393.8037 14.070937
L 393.8037 17.837812
L 391.358075 17.837812
L 391.358075 7.2
L 393.8037 7.2
L 393.8037 11.301562
Q 394.357137 10.632187 394.978387 10.315
Q 395.601825 9.997812 396.354325 9.997812
Q 397.67995 9.997812 398.366825 10.811562
Q 399.0537 11.623125 399.0537 13.17625
z
M 408.965262 13.99
L 408.965262 14.685625
L 403.24495 14.685625
Q 403.33245 15.5475 403.8662 15.978437
Q 404.39995 16.409375 405.355887 16.409375
Q 406.128075 16.409375 406.93745 16.179687
Q 407.749012 15.95 408.604325 15.48625
L 408.604325 17.371875
Q 407.735887 17.7 406.86745 17.868437
Q 405.999012 18.036875 405.130575 18.036875
Q 403.05245 18.036875 401.899637 16.980312
Q 400.749012 15.92375 400.749012 14.01625
Q 400.749012 12.14375 401.87995 11.071875
Q 403.010887 9.997812 404.99495 9.997812
Q 406.799637 9.997812 407.88245 11.085
Q 408.965262 12.17 408.965262 13.99
z
M 406.449637 13.17625
Q 406.449637 12.478437 406.042762 12.051875
Q 405.635887 11.623125 404.979637 11.623125
Q 404.2687 11.623125 403.824637 12.023437
Q 403.380575 12.42375 403.2712 13.17625
L 406.449637 13.17625
z
M 413.4912 8.007187
L 413.4912 10.181562
L 416.015575 10.181562
L 416.015575 11.931562
L 413.4912 11.931562
L 413.4912 15.177812
Q 413.4912 15.711562 413.703387 15.899687
Q 413.915575 16.087812 414.545575 16.087812
L 415.803387 16.087812
L 415.803387 17.837812
L 413.703387 17.837812
Q 412.255262 17.837812 411.649325 17.234062
Q 411.045575 16.628125 411.045575 15.177812
L 411.045575 11.931562
L 409.827137 11.931562
L 409.827137 10.181562
L 411.045575 10.181562
L 411.045575 8.007187
L 413.4912 8.007187
z
M 417.511825 10.181562
L 419.95745 10.181562
L 419.95745 17.837812
L 417.511825 17.837812
L 417.511825 10.181562
z
M 417.511825 7.2
L 419.95745 7.2
L 419.95745 9.197187
L 417.511825 9.197187
L 417.511825 7.2
z
M 428.49745 10.42
L 428.49745 12.417187
Q 427.9987 12.075937 427.495575 11.911875
Q 426.99245 11.747812 426.452137 11.747812
Q 425.428387 11.747812 424.85745 12.345
Q 424.286512 12.942187 424.286512 14.01625
Q 424.286512 15.090312 424.85745 15.689687
Q 425.428387 16.286875 426.452137 16.286875
Q 427.02745 16.286875 427.5437 16.11625
Q 428.05995 15.943437 428.49745 15.60875
L 428.49745 17.6125
Q 427.922137 17.824687 427.331512 17.929687
Q 426.740887 18.036875 426.145887 18.036875
Q 424.074325 18.036875 422.904012 16.97375
Q 421.735887 15.910625 421.735887 14.01625
Q 421.735887 12.121875 422.904012 11.060937
Q 424.074325 9.997812 426.145887 9.997812
Q 426.74745 9.997812 427.331512 10.102812
Q 427.915575 10.207812 428.49745 10.42
z
M 440.692762 16.538437
Q 440.18745 17.207812 439.577137 17.522812
Q 438.969012 17.837812 438.170575 17.837812
Q 436.768387 17.837812 435.851825 16.735312
Q 434.93745 15.630625 434.93745 13.92
Q 434.93745 12.205 435.851825 11.109062
Q 436.768387 10.010937 438.170575 10.010937
Q 438.969012 10.010937 439.577137 10.325937
Q 440.18745 10.63875 440.692762 11.316875
L 440.692762 10.181562
L 443.1537 10.181562
L 443.1537 17.065625
Q 443.1537 18.911875 441.987762 19.885312
Q 440.821825 20.85875 438.608075 20.85875
Q 437.890575 20.85875 437.219012 20.749375
Q 436.549637 20.64 435.8737 20.414687
L 435.8737 18.507187
Q 436.514637 18.876875 437.129325 19.058437
Q 437.7462 19.24 438.36745 19.24
Q 439.570575 19.24 440.130575 18.712812
Q 440.692762 18.185625 440.692762 17.065625
L 440.692762 16.538437
z
M 439.078387 11.774062
Q 438.319325 11.774062 437.89495 12.33625
Q 437.472762 12.89625 437.472762 13.92
Q 437.472762 14.974375 437.881825 15.516875
Q 438.293075 16.059375 439.078387 16.059375
Q 439.844012 16.059375 440.268387 15.499375
Q 440.692762 14.939375 440.692762 13.92
Q 440.692762 12.89625 440.268387 12.33625
Q 439.844012 11.774062 439.078387 11.774062
z
M 448.935262 14.3925
Q 448.169637 14.3925 447.78245 14.652812
Q 447.39745 14.910937 447.39745 15.418437
Q 447.39745 15.882187 447.708075 16.146875
Q 448.020887 16.409375 448.574325 16.409375
Q 449.263387 16.409375 449.735887 15.915
Q 450.208387 15.418437 450.208387 14.6725
L 450.208387 14.3925
L 448.935262 14.3925
z
M 452.675887 13.469375
L 452.675887 17.837812
L 450.208387 17.837812
L 450.208387 16.7025
Q 449.7162 17.400312 449.099325 17.719687
Q 448.484637 18.036875 447.603075 18.036875
Q 446.413075 18.036875 445.671512 17.343437
Q 444.92995 16.647812 444.92995 15.540937
Q 444.92995 14.193437 445.855262 13.565625
Q 446.782762 12.935625 448.764637 12.935625
L 450.208387 12.935625
L 450.208387 12.745312
Q 450.208387 12.163437 449.749012 11.894375
Q 449.291825 11.623125 448.320575 11.623125
Q 447.535262 11.623125 446.857137 11.780625
Q 446.1812 11.938125 445.599325 12.253125
L 445.599325 10.387187
Q 446.386825 10.194687 447.1787 10.09625
Q 447.972762 9.997812 448.764637 9.997812
Q 450.8362 9.997812 451.75495 10.81375
Q 452.675887 11.629687 452.675887 13.469375
z
M 454.953075 10.181562
L 457.3987 10.181562
L 457.3987 17.837812
L 454.953075 17.837812
L 454.953075 10.181562
z
M 454.953075 7.2
L 457.3987 7.2
L 457.3987 9.197187
L 454.953075 9.197187
L 454.953075 7.2
z
M 467.448075 13.17625
L 467.448075 17.837812
L 464.987137 17.837812
L 464.987137 17.07875
L 464.987137 14.27
Q 464.987137 13.279062 464.943387 12.902812
Q 464.899637 12.526562 464.790262 12.349375
Q 464.645887 12.10875 464.3987 11.975312
Q 464.1537 11.841875 463.8387 11.841875
Q 463.073075 11.841875 462.635575 12.434687
Q 462.198075 13.025312 462.198075 14.070937
L 462.198075 17.837812
L 459.75245 17.837812
L 459.75245 10.181562
L 462.198075 10.181562
L 462.198075 11.301562
Q 462.751512 10.632187 463.372762 10.315
Q 463.9962 9.997812 464.7487 9.997812
Q 466.074325 9.997812 466.7612 10.811562
Q 467.448075 11.623125 467.448075 13.17625
z
" style="fill: #24292f; stroke: #ffffff; stroke-width: 2.5"/>
    <path d="M 56.856512 7.630937
L 59.488075 7.630937
L 59.488075 11.520312
L 63.370887 11.520312
L 63.370887 7.630937
L 66.00245 7.630937
L 66.00245 17.837812
L 63.370887 17.837812
L 63.370887 13.510937
L 59.488075 13.510937
L 59.488075 17.837812
L 56.856512 17.837812
L 56.856512 7.630937
z
M 68.463387 10.181562
L 70.909012 10.181562
L 70.909012 17.837812
L 68.463387 17.837812
L 68.463387 10.181562
z
M 68.463387 7.2
L 70.909012 7.2
L 70.909012 9.197187
L 68.463387 9.197187
L 68.463387 7.2
z
M 79.243387 10.42
L 79.243387 12.279375
Q 78.458075 11.95125 77.725262 11.787187
Q 76.994637 11.623125 76.34495 11.623125
Q 75.647137 11.623125 75.308075 11.798125
Q 74.9712 11.973125 74.9712 12.334062
Q 74.9712 12.629375 75.227137 12.786875
Q 75.483075 12.942187 76.145887 13.01875
L 76.576825 13.08
Q 78.458075 13.318437 79.105575 13.865312
Q 79.755262 14.412187 79.755262 15.5825
Q 79.755262 16.805312 78.851825 17.422187
Q 77.950575 18.036875 76.1612 18.036875
Q 75.402137 18.036875 74.590575 17.916562
Q 73.7812 17.79625 72.925887 17.557812
L 72.925887 15.698437
Q 73.6587 16.052812 74.426512 16.232187
Q 75.196512 16.409375 75.988387 16.409375
Q 76.708075 16.409375 77.069012 16.2125
Q 77.432137 16.013437 77.432137 15.621875
Q 77.432137 15.29375 77.182762 15.134062
Q 76.933387 14.974375 76.18745 14.884687
L 75.756512 14.83
Q 74.12245 14.624375 73.4662 14.070937
Q 72.80995 13.5175 72.80995 12.38875
Q 72.80995 11.1725 73.643387 10.58625
Q 74.479012 9.997812 76.200575 9.997812
Q 76.8787 9.997812 77.62245 10.100625
Q 78.368387 10.20125 79.243387 10.42
z
M 84.265887 8.007187
L 84.265887 10.181562
L 86.790262 10.181562
L 86.790262 11.931562
L 84.265887 11.931562
L 84.265887 15.177812
Q 84.265887 15.711562 84.478075 15.899687
Q 84.690262 16.087812 85.320262 16.087812
L 86.578075 16.087812
L 86.578075 17.837812
L 84.478075 17.837812
Q 83.02995 17.837812 82.424012 17.234062
Q 81.820262 16.628125 81.820262 15.177812
L 81.820262 11.931562
L 80.601825 11.931562
L 80.601825 10.181562
L 81.820262 10.181562
L 81.820262 8.007187
L 84.265887 8.007187
z
M 91.9287 11.747812
Q 91.11495 11.747812 90.688387 12.331875
Q 90.261825 12.915937 90.261825 14.01625
Q 90.261825 15.116562 90.688387 15.702812
Q 91.11495 16.286875 91.9287 16.286875
Q 92.729325 16.286875 93.151512 15.702812
Q 93.575887 15.116562 93.575887 14.01625
Q 93.575887 12.915937 93.151512 12.331875
Q 92.729325 11.747812 91.9287 11.747812
z
M 91.9287 9.997812
Q 93.904012 9.997812 95.015262 11.065312
Q 96.126512 12.130625 96.126512 14.01625
Q 96.126512 15.904062 95.015262 16.971562
Q 93.904012 18.036875 91.9287 18.036875
Q 89.946825 18.036875 88.829012 16.971562
Q 87.7112 15.904062 87.7112 14.01625
Q 87.7112 12.130625 88.829012 11.065312
Q 89.946825 9.997812 91.9287 9.997812
z
M 103.59245 12.26625
Q 103.270887 12.115312 102.951512 12.045312
Q 102.634325 11.973125 102.312762 11.973125
Q 101.36995 11.973125 100.860262 12.579062
Q 100.350575 13.182812 100.350575 14.309375
L 100.350575 17.837812
L 97.90495 17.837812
L 97.90495 10.181562
L 100.350575 10.181562
L 100.350575 11.439375
Q 100.823075 10.686875 101.433387 10.343437
Q 102.045887 9.997812 102.9012 9.997812
Q 103.0237 9.997812 103.165887 10.00875
Q 103.310262 10.0175 103.5837 10.0525
L 103.59245 12.26625
z
M 104.8087 10.181562
L 107.254325 10.181562
L 107.254325 17.837812
L 104.8087 17.837812
L 104.8087 10.181562
z
M 104.8087 7.2
L 107.254325 7.2
L 107.254325 9.197187
L 104.8087 9.197187
L 104.8087 7.2
z
M 115.794325 10.42
L 115.794325 12.417187
Q 115.295575 12.075937 114.79245 11.911875
Q 114.289325 11.747812 113.749012 11.747812
Q 112.725262 11.747812 112.154325 12.345
Q 111.583387 12.942187 111.583387 14.01625
Q 111.583387 15.090312 112.154325 15.689687
Q 112.725262 16.286875 113.749012 16.286875
Q 114.324325 16.286875 114.840575 16.11625
Q 115.356825 15.943437 115.794325 15.60875
L 115.794325 17.6125
Q 115.219012 17.824687 114.628387 17.929687
Q 114.037762 18.036875 113.442762 18.036875
Q 111.3712 18.036875 110.200887 16.97375
Q 109.032762 15.910625 109.032762 14.01625
Q 109.032762 12.121875 110.200887 11.060937
Q 111.3712 9.997812 113.442762 9.997812
Q 114.044325 9.997812 114.628387 10.102812
Q 115.21245 10.207812 115.794325 10.42
z
M 121.33745 14.3925
Q 120.571825 14.3925 120.184637 14.652812
Q 119.799637 14.910937 119.799637 15.418437
Q 119.799637 15.882187 120.110262 16.146875
Q 120.423075 16.409375 120.976512 16.409375
Q 121.665575 16.409375 122.138075 15.915
Q 122.610575 15.418437 122.610575 14.6725
L 122.610575 14.3925
L 121.33745 14.3925
z
M 125.078075 13.469375
L 125.078075 17.837812
L 122.610575 17.837812
L 122.610575 16.7025
Q 122.118387 17.400312 121.501512 17.719687
Q 120.886825 18.036875 120.005262 18.036875
Q 118.815262 18.036875 118.0737 17.343437
Q 117.332137 16.647812 117.332137 15.540937
Q 117.332137 14.193437 118.25745 13.565625
Q 119.18495 12.935625 121.166825 12.935625
L 122.610575 12.935625
L 122.610575 12.745312
Q 122.610575 12.163437 122.1512 11.894375
Q 121.694012 11.623125 120.722762 11.623125
Q 119.93745 11.623125 119.259325 11.780625
Q 118.583387 11.938125 118.001512 12.253125
L 118.001512 10.387187
Q 118.789012 10.194687 119.580887 10.09625
Q 120.37495 9.997812 121.166825 9.997812
Q 123.238387 9.997812 124.157137 10.81375
Q 125.078075 11.629687 125.078075 13.469375
z
M 127.355262 7.2
L 129.800887 7.2
L 129.800887 17.837812
L 127.355262 17.837812
L 127.355262 7.2
z
M 140.670575 11.747812
Q 139.856825 11.747812 139.430262 12.331875
Q 139.0037 12.915937 139.0037 14.01625
Q 139.0037 15.116562 139.430262 15.702812
Q 139.856825 16.286875 140.670575 16.286875
Q 141.4712 16.286875 141.893387 15.702812
Q 142.317762 15.116562 142.317762 14.01625
Q 142.317762 12.915937 141.893387 12.331875
Q 141.4712 11.747812 140.670575 11.747812
z
M 140.670575 9.997812
Q 142.645887 9.997812 143.757137 11.065312
Q 144.868387 12.130625 144.868387 14.01625
Q 144.868387 15.904062 143.757137 16.971562
Q 142.645887 18.036875 140.670575 18.036875
Q 138.6887 18.036875 137.570887 16.971562
Q 136.453075 15.904062 136.453075 14.01625
Q 136.453075 12.130625 137.570887 11.065312
Q 138.6887 9.997812 140.670575 9.997812
z
M 145.682137 10.181562
L 148.12995 10.181562
L 150.03745 15.473125
L 151.9362 10.181562
L 154.390575 10.181562
L 151.3762 17.837812
L 148.68995 17.837812
L 145.682137 10.181562
z
M 163.414012 13.99
L 163.414012 14.685625
L 157.6937 14.685625
Q 157.7812 15.5475 158.31495 15.978437
Q 158.8487 16.409375 159.804637 16.409375
Q 160.576825 16.409375 161.3862 16.179687
Q 162.197762 15.95 163.053075 15.48625
L 163.053075 17.371875
Q 162.184637 17.7 161.3162 17.868437
Q 160.447762 18.036875 159.579325 18.036875
Q 157.5012 18.036875 156.348387 16.980312
Q 155.197762 15.92375 155.197762 14.01625
Q 155.197762 12.14375 156.3287 11.071875
Q 157.459637 9.997812 159.4437 9.997812
Q 161.248387 9.997812 162.3312 11.085
Q 163.414012 12.17 163.414012 13.99
z
M 160.898387 13.17625
Q 160.898387 12.478437 160.491512 12.051875
Q 160.084637 11.623125 159.428387 11.623125
Q 158.71745 11.623125 158.273387 12.023437
Q 157.829325 12.42375 157.71995 13.17625
L 160.898387 13.17625
z
M 170.956512 12.26625
Q 170.63495 12.115312 170.315575 12.045312
Q 169.998387 11.973125 169.676825 11.973125
Q 168.734012 11.973125 168.224325 12.579062
Q 167.714637 13.182812 167.714637 14.309375
L 167.714637 17.837812
L 165.269012 17.837812
L 165.269012 10.181562
L 167.714637 10.181562
L 167.714637 11.439375
Q 168.187137 10.686875 168.79745 10.343437
Q 169.40995 9.997812 170.265262 9.997812
Q 170.387762 9.997812 170.52995 10.00875
Q 170.674325 10.0175 170.947762 10.0525
L 170.956512 12.26625
z
M 172.172762 7.2
L 174.618387 7.2
L 174.618387 17.837812
L 172.172762 17.837812
L 172.172762 7.2
z
M 180.402137 14.3925
Q 179.636512 14.3925 179.249325 14.652812
Q 178.864325 14.910937 178.864325 15.418437
Q 178.864325 15.882187 179.17495 16.146875
Q 179.487762 16.409375 180.0412 16.409375
Q 180.730262 16.409375 181.202762 15.915
Q 181.675262 15.418437 181.675262 14.6725
L 181.675262 14.3925
L 180.402137 14.3925
z
M 184.142762 13.469375
L 184.142762 17.837812
L 181.675262 17.837812
L 181.675262 16.7025
Q 181.183075 17.400312 180.5662 17.719687
Q 179.951512 18.036875 179.06995 18.036875
Q 177.87995 18.036875 177.138387 17.343437
Q 176.396825 16.647812 176.396825 15.540937
Q 176.396825 14.193437 177.322137 13.565625
Q 178.249637 12.935625 180.231512 12.935625
L 181.675262 12.935625
L 181.675262 12.745312
Q 181.675262 12.163437 181.215887 11.894375
Q 180.7587 11.623125 179.78745 11.623125
Q 179.002137 11.623125 178.324012 11.780625
Q 177.648075 11.938125 177.0662 12.253125
L 177.0662 10.387187
Q 177.8537 10.194687 178.645575 10.09625
Q 179.439637 9.997812 180.231512 9.997812
Q 182.303075 9.997812 183.221825 10.81375
Q 184.142762 11.629687 184.142762 13.469375
z
M 188.865575 16.730937
L 188.865575 20.749375
L 186.41995 20.749375
L 186.41995 10.181562
L 188.865575 10.181562
L 188.865575 11.301562
Q 189.373075 10.632187 189.987762 10.315
Q 190.60245 9.997812 191.403075 9.997812
Q 192.818387 9.997812 193.7262 11.122187
Q 194.6362 12.246562 194.6362 14.01625
Q 194.6362 15.785937 193.7262 16.9125
Q 192.818387 18.036875 191.403075 18.036875
Q 190.60245 18.036875 189.987762 17.719687
Q 189.373075 17.400312 188.865575 16.730937
z
M 190.493075 11.774062
Q 189.707762 11.774062 189.285575 12.351562
Q 188.865575 12.929062 188.865575 14.01625
Q 188.865575 15.103437 189.285575 15.680937
Q 189.707762 16.258437 190.493075 16.258437
Q 191.278387 16.258437 191.691825 15.685312
Q 192.10745 15.11 192.10745 14.01625
Q 192.10745 12.9225 191.691825 12.349375
Q 191.278387 11.774062 190.493075 11.774062
z
M 208.4087 11.4525
Q 208.874637 10.741562 209.513387 10.369687
Q 210.152137 9.997812 210.917762 9.997812
Q 212.236825 9.997812 212.928075 10.811562
Q 213.619325 11.623125 213.619325 13.17625
L 213.619325 17.837812
L 211.158387 17.837812
L 211.158387 13.845625
Q 211.16495 13.755937 211.167137 13.661875
Q 211.171512 13.565625 211.171512 13.388437
Q 211.171512 12.574687 210.930887 12.209375
Q 210.69245 11.841875 210.1587 11.841875
Q 209.463075 11.841875 209.08245 12.417187
Q 208.704012 12.990312 208.6887 14.0775
L 208.6887 17.837812
L 206.227762 17.837812
L 206.227762 13.845625
Q 206.227762 12.574687 206.009012 12.209375
Q 205.790262 11.841875 205.230262 11.841875
Q 204.525887 11.841875 204.143075 12.419375
Q 203.760262 12.996875 203.760262 14.070937
L 203.760262 17.837812
L 201.299325 17.837812
L 201.299325 10.181562
L 203.760262 10.181562
L 203.760262 11.301562
Q 204.213075 10.654062 204.797137 10.325937
Q 205.3812 9.997812 206.085575 9.997812
Q 206.87745 9.997812 207.485575 10.380625
Q 208.095887 10.763437 208.4087 11.4525
z
M 219.545262 11.747812
Q 218.731512 11.747812 218.30495 12.331875
Q 217.878387 12.915937 217.878387 14.01625
Q 217.878387 15.116562 218.30495 15.702812
Q 218.731512 16.286875 219.545262 16.286875
Q 220.345887 16.286875 220.768075 15.702812
Q 221.19245 15.116562 221.19245 14.01625
Q 221.19245 12.915937 220.768075 12.331875
Q 220.345887 11.747812 219.545262 11.747812
z
M 219.545262 9.997812
Q 221.520575 9.997812 222.631825 11.065312
Q 223.743075 12.130625 223.743075 14.01625
Q 223.743075 15.904062 222.631825 16.971562
Q 221.520575 18.036875 219.545262 18.036875
Q 217.563387 18.036875 216.445575 16.971562
Q 215.327762 15.904062 215.327762 14.01625
Q 215.327762 12.130625 216.445575 11.065312
Q 217.563387 9.997812 219.545262 9.997812
z
M 230.72995 11.301562
L 230.72995 7.2
L 233.190887 7.2
L 233.190887 17.837812
L 230.72995 17.837812
L 230.72995 16.730937
Q 230.224637 17.406875 229.614325 17.721875
Q 229.0062 18.036875 228.207762 18.036875
Q 226.79245 18.036875 225.88245 16.9125
Q 224.974637 15.785937 224.974637 14.01625
Q 224.974637 12.246562 225.88245 11.122187
Q 226.79245 9.997812 228.207762 9.997812
Q 228.999637 9.997812 229.612137 10.315
Q 230.224637 10.632187 230.72995 11.301562
z
M 229.115575 16.258437
Q 229.903075 16.258437 230.316512 15.685312
Q 230.72995 15.11 230.72995 14.01625
Q 230.72995 12.9225 230.316512 12.349375
Q 229.903075 11.774062 229.115575 11.774062
Q 228.336825 11.774062 227.923387 12.349375
Q 227.50995 12.9225 227.50995 14.01625
Q 227.50995 15.11 227.923387 15.685312
Q 228.336825 16.258437 229.115575 16.258437
z
M 243.183387 13.99
L 243.183387 14.685625
L 237.463075 14.685625
Q 237.550575 15.5475 238.084325 15.978437
Q 238.618075 16.409375 239.574012 16.409375
Q 240.3462 16.409375 241.155575 16.179687
Q 241.967137 15.95 242.82245 15.48625
L 242.82245 17.371875
Q 241.954012 17.7 241.085575 17.868437
Q 240.217137 18.036875 239.3487 18.036875
Q 237.270575 18.036875 236.117762 16.980312
Q 234.967137 15.92375 234.967137 14.01625
Q 234.967137 12.14375 236.098075 11.071875
Q 237.229012 9.997812 239.213075 9.997812
Q 241.017762 9.997812 242.100575 11.085
Q 243.183387 12.17 243.183387 13.99
z
M 240.667762 13.17625
Q 240.667762 12.478437 240.260887 12.051875
Q 239.854012 11.623125 239.197762 11.623125
Q 238.486825 11.623125 238.042762 12.023437
Q 237.5987 12.42375 237.489325 13.17625
L 240.667762 13.17625
z
M 245.038387 7.2
L 247.484012 7.2
L 247.484012 17.837812
L 245.038387 17.837812
L 245.038387 7.2
z
M 250.227137 10.181562
L 252.694637 10.181562
L 252.694637 12.82625
L 250.227137 12.82625
L 250.227137 10.181562
z
M 250.227137 15.193125
L 252.694637 15.193125
L 252.694637 17.837812
L 250.227137 17.837812
L 250.227137 15.193125
z
M 265.517762 11.301562
L 265.517762 7.2
L 267.9787 7.2
L 267.9787 17.837812
L 265.517762 17.837812
L 265.517762 16.730937
Q 265.01245 17.406875 264.402137 17.721875
Q 263.794012 18.036875 262.995575 18.036875
Q 261.580262 18.036875 260.670262 16.9125
Q 259.76245 15.785937 259.76245 14.01625
Q 259.76245 12.246562 260.670262 11.122187
Q 261.580262 9.997812 262.995575 9.997812
Q 263.78745 9.997812 264.39995 10.315
Q 265.01245 10.632187 265.517762 11.301562
z
M 263.903387 16.258437
Q 264.690887 16.258437 265.104325 15.685312
Q 265.517762 15.11 265.517762 14.01625
Q 265.517762 12.9225 265.104325 12.349375
Q 264.690887 11.774062 263.903387 11.774062
Q 263.124637 11.774062 262.7112 12.349375
Q 262.297762 12.9225 262.297762 14.01625
Q 262.297762 15.11 262.7112 15.685312
Q 263.124637 16.258437 263.903387 16.258437
z
M 270.330262 10.181562
L 272.775887 10.181562
L 272.775887 17.837812
L 270.330262 17.837812
L 270.330262 10.181562
z
M 270.330262 7.2
L 272.775887 7.2
L 272.775887 9.197187
L 270.330262 9.197187
L 270.330262 7.2
z
M 282.2237 11.4525
Q 282.689637 10.741562 283.328387 10.369687
Q 283.967137 9.997812 284.732762 9.997812
Q 286.051825 9.997812 286.743075 10.811562
Q 287.434325 11.623125 287.434325 13.17625
L 287.434325 17.837812
L 284.973387 17.837812
L 284.973387 13.845625
Q 284.97995 13.755937 284.982137 13.661875
Q 284.986512 13.565625 284.986512 13.388437
Q 284.986512 12.574687 284.745887 12.209375
Q 284.50745 11.841875 283.9737 11.841875
Q 283.278075 11.841875 282.89745 12.417187
Q 282.519012 12.990312 282.5037 14.0775
L 282.5037 17.837812
L 280.042762 17.837812
L 280.042762 13.845625
Q 280.042762 12.574687 279.824012 12.209375
Q 279.605262 11.841875 279.045262 11.841875
Q 278.340887 11.841875 277.958075 12.419375
Q 277.575262 12.996875 277.575262 14.070937
L 277.575262 17.837812
L 275.114325 17.837812
L 275.114325 10.181562
L 277.575262 10.181562
L 277.575262 11.301562
Q 278.028075 10.654062 278.612137 10.325937
Q 279.1962 9.997812 279.900575 9.997812
Q 280.69245 9.997812 281.300575 10.380625
Q 281.910887 10.763437 282.2237 11.4525
z
M 289.718075 10.181562
L 292.1637 10.181562
L 292.1637 17.837812
L 289.718075 17.837812
L 289.718075 10.181562
z
M 289.718075 7.2
L 292.1637 7.2
L 292.1637 9.197187
L 289.718075 9.197187
L 289.718075 7.2
z
M 302.213075 13.17625
L 302.213075 17.837812
L 299.752137 17.837812
L 299.752137 17.07875
L 299.752137 14.27
Q 299.752137 13.279062 299.708387 12.902812
Q 299.664637 12.526562 299.555262 12.349375
Q 299.410887 12.10875 299.1637 11.975312
Q 298.9187 11.841875 298.6037 11.841875
Q 297.838075 11.841875 297.400575 12.434687
Q 296.963075 13.025312 296.963075 14.070937
L 296.963075 17.837812
L 294.51745 17.837812
L 294.51745 10.181562
L 296.963075 10.181562
L 296.963075 11.301562
Q 297.516512 10.632187 298.137762 10.315
Q 298.7612 9.997812 299.5137 9.997812
Q 300.839325 9.997812 301.5262 10.811562
Q 302.213075 11.623125 302.213075 13.17625
z
M 304.4837 10.181562
L 306.929325 10.181562
L 306.929325 17.837812
L 304.4837 17.837812
L 304.4837 10.181562
z
M 304.4837 7.2
L 306.929325 7.2
L 306.929325 9.197187
L 304.4837 9.197187
L 304.4837 7.2
z
M 315.2637 10.42
L 315.2637 12.279375
Q 314.478387 11.95125 313.745575 11.787187
Q 313.01495 11.623125 312.365262 11.623125
Q 311.66745 11.623125 311.328387 11.798125
Q 310.991512 11.973125 310.991512 12.334062
Q 310.991512 12.629375 311.24745 12.786875
Q 311.503387 12.942187 312.1662 13.01875
L 312.597137 13.08
Q 314.478387 13.318437 315.125887 13.865312
Q 315.775575 14.412187 315.775575 15.5825
Q 315.775575 16.805312 314.872137 17.422187
Q 313.970887 18.036875 312.181512 18.036875
Q 311.42245 18.036875 310.610887 17.916562
Q 309.801512 17.79625 308.9462 17.557812
L 308.9462 15.698437
Q 309.679012 16.052812 310.446825 16.232187
Q 311.216825 16.409375 312.0087 16.409375
Q 312.728387 16.409375 313.089325 16.2125
Q 313.45245 16.013437 313.45245 15.621875
Q 313.45245 15.29375 313.203075 15.134062
Q 312.9537 14.974375 312.207762 14.884687
L 311.776825 14.83
Q 310.142762 14.624375 309.486512 14.070937
Q 308.830262 13.5175 308.830262 12.38875
Q 308.830262 11.1725 309.6637 10.58625
Q 310.499325 9.997812 312.220887 9.997812
Q 312.899012 9.997812 313.642762 10.100625
Q 314.3887 10.20125 315.2637 10.42
z
M 325.310887 13.17625
L 325.310887 17.837812
L 322.84995 17.837812
L 322.84995 17.07875
L 322.84995 14.283125
Q 322.84995 13.279062 322.8062 12.902812
Q 322.76245 12.526562 322.653075 12.349375
Q 322.5087 12.10875 322.261512 11.975312
Q 322.016512 11.841875 321.701512 11.841875
Q 320.935887 11.841875 320.498387 12.434687
Q 320.060887 13.025312 320.060887 14.070937
L 320.060887 17.837812
L 317.615262 17.837812
L 317.615262 7.2
L 320.060887 7.2
L 320.060887 11.301562
Q 320.614325 10.632187 321.235575 10.315
Q 321.859012 9.997812 322.611512 9.997812
Q 323.937137 9.997812 324.624012 10.811562
Q 325.310887 11.623125 325.310887 13.17625
z
M 327.581512 10.181562
L 330.027137 10.181562
L 330.027137 17.837812
L 327.581512 17.837812
L 327.581512 10.181562
z
M 327.581512 7.2
L 330.027137 7.2
L 330.027137 9.197187
L 327.581512 9.197187
L 327.581512 7.2
z
M 340.076512 13.17625
L 340.076512 17.837812
L 337.615575 17.837812
L 337.615575 17.07875
L 337.615575 14.27
Q 337.615575 13.279062 337.571825 12.902812
Q 337.528075 12.526562 337.4187 12.349375
Q 337.274325 12.10875 337.027137 11.975312
Q 336.782137 11.841875 336.467137 11.841875
Q 335.701512 11.841875 335.264012 12.434687
Q 334.826512 13.025312 334.826512 14.070937
L 334.826512 17.837812
L 332.380887 17.837812
L 332.380887 10.181562
L 334.826512 10.181562
L 334.826512 11.301562
Q 335.37995 10.632187 336.0012 10.315
Q 336.624637 9.997812 337.377137 9.997812
Q 338.702762 9.997812 339.389637 10.811562
Q 340.076512 11.623125 340.076512 13.17625
z
M 347.555575 16.538437
Q 347.050262 17.207812 346.43995 17.522812
Q 345.831825 17.837812 345.033387 17.837812
Q 343.6312 17.837812 342.714637 16.735312
Q 341.800262 15.630625 341.800262 13.92
Q 341.800262 12.205 342.714637 11.109062
Q 343.6312 10.010937 345.033387 10.010937
Q 345.831825 10.010937 346.43995 10.325937
Q 347.050262 10.63875 347.555575 11.316875
L 347.555575 10.181562
L 350.016512 10.181562
L 350.016512 17.065625
Q 350.016512 18.911875 348.850575 19.885312
Q 347.684637 20.85875 345.470887 20.85875
Q 344.753387 20.85875 344.081825 20.749375
Q 343.41245 20.64 342.736512 20.414687
L 342.736512 18.507187
Q 343.37745 18.876875 343.992137 19.058437
Q 344.609012 19.24 345.230262 19.24
Q 346.433387 19.24 346.993387 18.712812
Q 347.555575 18.185625 347.555575 17.065625
L 347.555575 16.538437
z
M 345.9412 11.774062
Q 345.182137 11.774062 344.757762 12.33625
Q 344.335575 12.89625 344.335575 13.92
Q 344.335575 14.974375 344.744637 15.516875
Q 345.155887 16.059375 345.9412 16.059375
Q 346.706825 16.059375 347.1312 15.499375
Q 347.555575 14.939375 347.555575 13.92
Q 347.555575 12.89625 347.1312 12.33625
Q 346.706825 11.774062 345.9412 11.774062
z
M 363.22245 10.42
L 363.22245 12.279375
Q 362.437137 11.95125 361.704325 11.787187
Q 360.9737 11.623125 360.324012 11.623125
Q 359.6262 11.623125 359.287137 11.798125
Q 358.950262 11.973125 358.950262 12.334062
Q 358.950262 12.629375 359.2062 12.786875
Q 359.462137 12.942187 360.12495 13.01875
L 360.555887 13.08
Q 362.437137 13.318437 363.084637 13.865312
Q 363.734325 14.412187 363.734325 15.5825
Q 363.734325 16.805312 362.830887 17.422187
Q 361.929637 18.036875 360.140262 18.036875
Q 359.3812 18.036875 358.569637 17.916562
Q 357.760262 17.79625 356.90495 17.557812
L 356.90495 15.698437
Q 357.637762 16.052812 358.405575 16.232187
Q 359.175575 16.409375 359.96745 16.409375
Q 360.687137 16.409375 361.048075 16.2125
Q 361.4112 16.013437 361.4112 15.621875
Q 361.4112 15.29375 361.161825 15.134062
Q 360.91245 14.974375 360.166512 14.884687
L 359.735575 14.83
Q 358.101512 14.624375 357.445262 14.070937
Q 356.789012 13.5175 356.789012 12.38875
Q 356.789012 11.1725 357.62245 10.58625
Q 358.458075 9.997812 360.179637 9.997812
Q 360.857762 9.997812 361.601512 10.100625
Q 362.34745 10.20125 363.22245 10.42
z
M 364.567762 10.181562
L 367.015575 10.181562
L 369.074012 15.376875
L 370.824012 10.181562
L 373.269637 10.181562
L 370.049637 18.561875
Q 369.5662 19.841562 368.9187 20.349062
Q 368.273387 20.85875 367.214637 20.85875
L 365.799325 20.85875
L 365.799325 19.253125
L 366.56495 19.253125
Q 367.1862 19.253125 367.468387 19.054062
Q 367.752762 18.857187 367.910262 18.343125
L 367.980262 18.130937
L 364.567762 10.181562
z
M 382.395887 13.17625
L 382.395887 17.837812
L 379.93495 17.837812
L 379.93495 17.07875
L 379.93495 14.27
Q 379.93495 13.279062 379.8912 12.902812
Q 379.84745 12.526562 379.738075 12.349375
Q 379.5937 12.10875 379.346512 11.975312
Q 379.101512 11.841875 378.786512 11.841875
Q 378.020887 11.841875 377.583387 12.434687
Q 377.145887 13.025312 377.145887 14.070937
L 377.145887 17.837812
L 374.700262 17.837812
L 374.700262 10.181562
L 377.145887 10.181562
L 377.145887 11.301562
Q 377.699325 10.632187 378.320575 10.315
Q 378.944012 9.997812 379.696512 9.997812
Q 381.022137 9.997812 381.709012 10.811562
Q 382.395887 11.623125 382.395887 13.17625
z
M 387.33745 8.007187
L 387.33745 10.181562
L 389.861825 10.181562
L 389.861825 11.931562
L 387.33745 11.931562
L 387.33745 15.177812
Q 387.33745 15.711562 387.549637 15.899687
Q 387.761825 16.087812 388.391825 16.087812
L 389.649637 16.087812
L 389.649637 17.837812
L 387.549637 17.837812
Q 386.101512 17.837812 385.495575 17.234062
Q 384.891825 16.628125 384.891825 15.177812
L 384.891825 11.931562
L 383.673387 11.931562
L 383.673387 10.181562
L 384.891825 10.181562
L 384.891825 8.007187
L 387.33745 8.007187
z
M 399.0537 13.17625
L 399.0537 17.837812
L 396.592762 17.837812
L 396.592762 17.07875
L 396.592762 14.283125
Q 396.592762 13.279062 396.549012 12.902812
Q 396.505262 12.526562 396.395887 12.349375
Q 396.251512 12.10875 396.004325 11.975312
Q 395.759325 11.841875 395.444325 11.841875
Q 394.6787 11.841875 394.2412 12.434687
Q 393.8037 13.025312 393.8037 14.070937
L 393.8037 17.837812
L 391.358075 17.837812
L 391.358075 7.2
L 393.8037 7.2
L 393.8037 11.301562
Q 394.357137 10.632187 394.978387 10.315
Q 395.601825 9.997812 396.354325 9.997812
Q 397.67995 9.997812 398.366825 10.811562
Q 399.0537 11.623125 399.0537 13.17625
z
M 408.965262 13.99
L 408.965262 14.685625
L 403.24495 14.685625
Q 403.33245 15.5475 403.8662 15.978437
Q 404.39995 16.409375 405.355887 16.409375
Q 406.128075 16.409375 406.93745 16.179687
Q 407.749012 15.95 408.604325 15.48625
L 408.604325 17.371875
Q 407.735887 17.7 406.86745 17.868437
Q 405.999012 18.036875 405.130575 18.036875
Q 403.05245 18.036875 401.899637 16.980312
Q 400.749012 15.92375 400.749012 14.01625
Q 400.749012 12.14375 401.87995 11.071875
Q 403.010887 9.997812 404.99495 9.997812
Q 406.799637 9.997812 407.88245 11.085
Q 408.965262 12.17 408.965262 13.99
z
M 406.449637 13.17625
Q 406.449637 12.478437 406.042762 12.051875
Q 405.635887 11.623125 404.979637 11.623125
Q 404.2687 11.623125 403.824637 12.023437
Q 403.380575 12.42375 403.2712 13.17625
L 406.449637 13.17625
z
M 413.4912 8.007187
L 413.4912 10.181562
L 416.015575 10.181562
L 416.015575 11.931562
L 413.4912 11.931562
L 413.4912 15.177812
Q 413.4912 15.711562 413.703387 15.899687
Q 413.915575 16.087812 414.545575 16.087812
L 415.803387 16.087812
L 415.803387 17.837812
L 413.703387 17.837812
Q 412.255262 17.837812 411.649325 17.234062
Q 411.045575 16.628125 411.045575 15.177812
L 411.045575 11.931562
L 409.827137 11.931562
L 409.827137 10.181562
L 411.045575 10.181562
L 411.045575 8.007187
L 413.4912 8.007187
z
M 417.511825 10.181562
L 419.95745 10.181562
L 419.95745 17.837812
L 417.511825 17.837812
L 417.511825 10.181562
z
M 417.511825 7.2
L 419.95745 7.2
L 419.95745 9.197187
L 417.511825 9.197187
L 417.511825 7.2
z
M 428.49745 10.42
L 428.49745 12.417187
Q 427.9987 12.075937 427.495575 11.911875
Q 426.99245 11.747812 426.452137 11.747812
Q 425.428387 11.747812 424.85745 12.345
Q 424.286512 12.942187 424.286512 14.01625
Q 424.286512 15.090312 424.85745 15.689687
Q 425.428387 16.286875 426.452137 16.286875
Q 427.02745 16.286875 427.5437 16.11625
Q 428.05995 15.943437 428.49745 15.60875
L 428.49745 17.6125
Q 427.922137 17.824687 427.331512 17.929687
Q 426.740887 18.036875 426.145887 18.036875
Q 424.074325 18.036875 422.904012 16.97375
Q 421.735887 15.910625 421.735887 14.01625
Q 421.735887 12.121875 422.904012 11.060937
Q 424.074325 9.997812 426.145887 9.997812
Q 426.74745 9.997812 427.331512 10.102812
Q 427.915575 10.207812 428.49745 10.42
z
M 440.692762 16.538437
Q 440.18745 17.207812 439.577137 17.522812
Q 438.969012 17.837812 438.170575 17.837812
Q 436.768387 17.837812 435.851825 16.735312
Q 434.93745 15.630625 434.93745 13.92
Q 434.93745 12.205 435.851825 11.109062
Q 436.768387 10.010937 438.170575 10.010937
Q 438.969012 10.010937 439.577137 10.325937
Q 440.18745 10.63875 440.692762 11.316875
L 440.692762 10.181562
L 443.1537 10.181562
L 443.1537 17.065625
Q 443.1537 18.911875 441.987762 19.885312
Q 440.821825 20.85875 438.608075 20.85875
Q 437.890575 20.85875 437.219012 20.749375
Q 436.549637 20.64 435.8737 20.414687
L 435.8737 18.507187
Q 436.514637 18.876875 437.129325 19.058437
Q 437.7462 19.24 438.36745 19.24
Q 439.570575 19.24 440.130575 18.712812
Q 440.692762 18.185625 440.692762 17.065625
L 440.692762 16.538437
z
M 439.078387 11.774062
Q 438.319325 11.774062 437.89495 12.33625
Q 437.472762 12.89625 437.472762 13.92
Q 437.472762 14.974375 437.881825 15.516875
Q 438.293075 16.059375 439.078387 16.059375
Q 439.844012 16.059375 440.268387 15.499375
Q 440.692762 14.939375 440.692762 13.92
Q 440.692762 12.89625 440.268387 12.33625
Q 439.844012 11.774062 439.078387 11.774062
z
M 448.935262 14.3925
Q 448.169637 14.3925 447.78245 14.652812
Q 447.39745 14.910937 447.39745 15.418437
Q 447.39745 15.882187 447.708075 16.146875
Q 448.020887 16.409375 448.574325 16.409375
Q 449.263387 16.409375 449.735887 15.915
Q 450.208387 15.418437 450.208387 14.6725
L 450.208387 14.3925
L 448.935262 14.3925
z
M 452.675887 13.469375
L 452.675887 17.837812
L 450.208387 17.837812
L 450.208387 16.7025
Q 449.7162 17.400312 449.099325 17.719687
Q 448.484637 18.036875 447.603075 18.036875
Q 446.413075 18.036875 445.671512 17.343437
Q 444.92995 16.647812 444.92995 15.540937
Q 444.92995 14.193437 445.855262 13.565625
Q 446.782762 12.935625 448.764637 12.935625
L 450.208387 12.935625
L 450.208387 12.745312
Q 450.208387 12.163437 449.749012 11.894375
Q 449.291825 11.623125 448.320575 11.623125
Q 447.535262 11.623125 446.857137 11.780625
Q 446.1812 11.938125 445.599325 12.253125
L 445.599325 10.387187
Q 446.386825 10.194687 447.1787 10.09625
Q 447.972762 9.997812 448.764637 9.997812
Q 450.8362 9.997812 451.75495 10.81375
Q 452.675887 11.629687 452.675887 13.469375
z
M 454.953075 10.181562
L 457.3987 10.181562
L 457.3987 17.837812
L 454.953075 17.837812
L 454.953075 10.181562
z
M 454.953075 7.2
L 457.3987 7.2
L 457.3987 9.197187
L 454.953075 9.197187
L 454.953075 7.2
z
M 467.448075 13.17625
L 467.448075 17.837812
L 464.987137 17.837812
L 464.987137 17.07875
L 464.987137 14.27
Q 464.987137 13.279062 464.943387 12.902812
Q 464.899637 12.526562 464.790262 12.349375
Q 464.645887 12.10875 464.3987 11.975312
Q 464.1537 11.841875 463.8387 11.841875
Q 463.073075 11.841875 462.635575 12.434687
Q 462.198075 13.025312 462.198075 14.070937
L 462.198075 17.837812
L 459.75245 17.837812
L 459.75245 10.181562
L 462.198075 10.181562
L 462.198075 11.301562
Q 462.751512 10.632187 463.372762 10.315
Q 463.9962 9.997812 464.7487 9.997812
Q 466.074325 9.997812 466.7612 10.811562
Q 467.448075 11.623125 467.448075 13.17625
z
" style="fill: #24292f"/>
   </g>
   <g id="line2d_35">
    <path d="M 150.38625 261.583076
L 164.939707 260.924324
L 177.25417 260.150419
L 187.889389 259.265527
L 197.40511 258.252273
L 205.801336 257.139031
L 213.637812 255.871304
L 220.354792 254.572772
L 227.071772 253.041551
L 233.229004 251.398037
L 238.826488 249.672413
L 243.864223 247.903137
L 248.901958 245.901043
L 253.379944 243.901273
L 257.857931 241.669224
L 262.335918 239.177916
L 266.254156 236.761761
L 270.172395 234.101752
L 274.090633 231.17328
L 278.008871 227.949249
L 281.92711 224.39983
L 285.2856 221.073682
L 288.64409 217.461796
L 292.00258 213.539622
L 295.36107 209.280506
L 298.71956 204.655503
L 302.07805 199.633178
L 305.43654 194.179401
L 308.79503 188.257106
L 312.15352 181.826044
L 315.51201 174.842508
L 318.8705 167.259038
L 322.22899 159.024094
L 325.58748 150.08171
L 328.386222 142.045627
L 331.184963 133.438234
L 333.983705 124.218915
L 336.782447 114.344166
L 339.581189 103.767391
L 342.37993 92.438681
L 345.178672 80.304578
L 347.977414 67.307824
L 350.776155 53.387091
L 353.574897 38.476691
L 356.373639 22.506264
L 356.933387 19.178436
L 357.493135 19.302795
L 360.851625 38.591212
L 364.210115 56.353705
L 367.568606 72.710992
L 370.927096 87.77424
L 373.725837 99.412549
L 373.725837 99.412549
" clip-path="url(#p4cd69018d3)" style="fill: none; stroke: #0072b2; stroke-width: 2; stroke-linecap: square"/>
   </g>
   <g id="line2d_36">
    <defs>
     <path id="m5e1b22a6da" d="M 0 3
C 0.795609 3 1.55874 2.683901 2.12132 2.12132
C 2.683901 1.55874 3 0.795609 3 0
C 3 -0.795609 2.683901 -1.55874 2.12132 -2.12132
C 1.55874 -2.683901 0.795609 -3 0 -3
C -0.795609 -3 -1.55874 -2.683901 -2.12132 -2.12132
C -2.683901 -1.55874 -3 -0.795609 -3 0
C -3 0.795609 -2.683901 1.55874 -2.12132 2.12132
C -1.55874 2.683901 -0.795609 3 0 3
z
" style="stroke: #0072b2"/>
    </defs>
    <g clip-path="url(#p4cd69018d3)">
     <use xlink:href="#m5e1b22a6da" x="366.296116" y="66.671497" style="fill: #0072b2; stroke: #0072b2"/>
    </g>
   </g>
   <g id="line2d_37">
    <g clip-path="url(#p4cd69018d3)">
     <use xlink:href="#m5e1b22a6da" x="251.647806" y="244.70097" style="fill: #0072b2; stroke: #0072b2"/>
    </g>
   </g>
   <g id="line2d_38">
    <g clip-path="url(#p4cd69018d3)">
     <use xlink:href="#m5e1b22a6da" x="178.632447" y="260.048339" style="fill: #0072b2; stroke: #0072b2"/>
    </g>
   </g>
   <g id="text_13">
    <text style="font-size: 9px; font-family: 'DejaVu Sans'; text-anchor: end; fill: #0072b2" x="309.401992" y="155.149387" transform="rotate(-0 309.401992 155.149387)">analytic ceiling</text>
   </g>
   <g id="text_14">
    <text style="font-size: 9px; font-family: 'DejaVu Sans'; text-anchor: end; fill: #0072b2" x="360.296116" y="56.509387" transform="rotate(-0 360.296116 56.509387)">1.80× @ 10 ms</text>
   </g>
   <g id="text_15">
    <text style="font-size: 9px; font-family: 'DejaVu Sans'; text-anchor: start; fill: #0072b2" x="188.632447" y="259.886229" transform="rotate(-0 188.632447 259.886229)">1.01× @ 0.1 ms</text>
   </g>
   <g id="line2d_39">
    <defs>
     <path id="m932d53f969" d="M -4.5 4.5
L 4.5 4.5
L 4.5 -4.5
L -4.5 -4.5
z
" style="stroke: #d55e00; stroke-width: 1.8; stroke-linejoin: miter"/>
    </defs>
    <g clip-path="url(#p4cd69018d3)">
     <use xlink:href="#m932d53f969" x="366.296116" y="96.138444" style="fill-opacity: 0; stroke: #d55e00; stroke-width: 1.8; stroke-linejoin: miter"/>
    </g>
   </g>
   <g id="text_16">
    <text style="font-size: 8.5px; font-family: 'DejaVu Sans'; fill: #d55e00" transform="translate(373.296116 111.447946)">1.68× measured</text>
    <text style="font-size: 8.5px; font-family: 'DejaVu Sans'; fill: #d55e00" transform="translate(373.296116 121.65027)">(below ideal)</text>
   </g>
   <g id="patch_6">
    <path d="M 231.818743 141.805353
Q 205.635432 200.015702 179.910757 257.206418
" style="fill: none; stroke: #8b949e; stroke-linecap: round"/>
    <path d="M 182.855874 254.803027
L 179.910757 257.206418
L 179.755115 253.40829
" style="fill: none; stroke: #8b949e; stroke-linecap: round"/>
   </g>
   <g id="text_17">
    <g id="patch_7">
     <path d="M 184.327836 139.587724
L 302.719555 139.587724
Q 306.119555 139.587724 306.119555 136.187724
L 306.119555 95.378427
Q 306.119555 91.978427 302.719555 91.978427
L 184.327836 91.978427
Q 180.927836 91.978427 180.927836 95.378427
L 180.927836 136.187724
Q 180.927836 139.587724 184.327836 139.587724
z
" style="fill: #ffffff; opacity: 0.95; stroke: #8b949e; stroke-width: 0.8; stroke-linejoin: miter"/>
    </g>
    <text style="font-size: 8.5px; font-family: 'DejaVu Sans'; fill: #24292f" transform="translate(184.327836 102.687929)">idealized ceiling —</text>
    <text style="font-size: 8.5px; font-family: 'DejaVu Sans'; fill: #24292f" transform="translate(184.327836 112.890253)">off-GIL serialize only;</text>
    <text style="font-size: 8.5px; font-family: 'DejaVu Sans'; fill: #24292f" transform="translate(184.327836 123.092578)">~1.08× w/ Python serialize,</text>
    <text style="font-size: 8.5px; font-family: 'DejaVu Sans'; fill: #24292f" transform="translate(184.327836 133.294902)">→ ~1.01× at 0.1 ms work</text>
   </g>
  </g>
  <g id="axes_2">
   <g id="patch_8">
    <path d="M 457.199008 263.117813
L 596.78625 263.117813
L 596.78625 29.837813
L 457.199008 29.837813
z
" style="fill: #ffffff"/>
   </g>
   <g id="matplotlib.axis_3"/>
   <g id="matplotlib.axis_4">
    <g id="ytick_6">
     <g id="line2d_40">
      <g>
       <use xlink:href="#m0b039948b1" x="457.199008" y="219.377812" style="fill: #24292f; stroke: #24292f; stroke-width: 0.8"/>
      </g>
     </g>
     <g id="text_18">
      <text style="font-size: 10px; font-family: 'DejaVu Sans'; text-anchor: end; fill: #24292f" x="450.199008" y="223.177031" transform="rotate(-0 450.199008 223.177031)">serial</text>
     </g>
    </g>
    <g id="ytick_7">
     <g id="line2d_41">
      <g>
       <use xlink:href="#m0b039948b1" x="457.199008" y="146.477812" style="fill: #24292f; stroke: #24292f; stroke-width: 0.8"/>
      </g>
     </g>
     <g id="text_19">
      <text style="font-size: 10px; font-family: 'DejaVu Sans'; text-anchor: end; fill: #24292f" x="450.199008" y="150.277031" transform="rotate(-0 450.199008 150.277031)">Python thread</text>
     </g>
    </g>
    <g id="ytick_8">
     <g id="line2d_42">
      <g>
       <use xlink:href="#m0b039948b1" x="457.199008" y="73.577812" style="fill: #24292f; stroke: #24292f; stroke-width: 0.8"/>
      </g>
     </g>
     <g id="text_20">
      <text style="font-size: 10px; font-family: 'DejaVu Sans'; text-anchor: end; fill: #24292f" x="450.199008" y="77.377031" transform="rotate(-0 450.199008 77.377031)">native thread</text>
     </g>
    </g>
   </g>
   <g id="line2d_43">
    <path d="M 526.992629 263.117813
L 526.992629 29.837813
" clip-path="url(#pe3a75f568d)" style="fill: none; stroke-dasharray: 1.2,1.98; stroke-dashoffset: 0; stroke: #57606a; stroke-width: 1.2"/>
   </g>
   <g id="patch_9">
    <path d="M 457.199008 263.117812
L 457.199008 29.837812
" style="fill: none; stroke: #57606a; stroke-linejoin: miter; stroke-linecap: square"/>
   </g>
   <g id="patch_10">
    <path d="M 457.199008 263.117813
L 596.78625 263.117813
" style="fill: none; stroke: #57606a; stroke-linejoin: miter; stroke-linecap: square"/>
   </g>
   <g id="patch_11">
    <path d="M 457.199008 237.602812
L 526.992629 237.602812
L 526.992629 201.152812
L 457.199008 201.152812
z
" clip-path="url(#pe3a75f568d)" style="fill: #d55e00"/>
   </g>
   <g id="patch_12">
    <path d="M 457.199008 164.702812
L 532.576119 164.702812
L 532.576119 128.252812
L 457.199008 128.252812
z
" clip-path="url(#pe3a75f568d)" style="fill: #d55e00"/>
   </g>
   <g id="patch_13">
    <path d="M 457.199008 91.802812
L 574.452291 91.802812
L 574.452291 55.352812
L 457.199008 55.352812
z
" clip-path="url(#pe3a75f568d)" style="fill: url(#h44b5c79827); stroke: #d55e00; stroke-width: 1.4; stroke-linejoin: miter"/>
   </g>
   <g id="text_21">
    <text style="font-size: 10px; font-family: 'DejaVu Sans'; text-anchor: start; fill: #57606a" x="457.199008" y="18.104269" transform="rotate(-0 457.199008 18.104269)">overlap @ 10 ms work (best case)</text>
   </g>
   <g id="patch_14">
    <path d="M 457.199008 91.802812
L 574.452291 91.802812
L 574.452291 55.352812
L 457.199008 55.352812
L 457.199008 91.802812
z
" clip-path="url(#pe3a75f568d)" style="fill: none; stroke: #0b0f14; stroke-linejoin: miter"/>
   </g>
   <g id="text_22">
    <text style="font-weight: 700; font-size: 9.5px; font-family: 'DejaVu Sans'; text-anchor: start; fill: #24292f" x="530.992629" y="221.845586" transform="rotate(-0 530.992629 221.845586)">1.00×</text>
   </g>
   <g id="text_23">
    <text style="font-weight: 700; font-size: 9.5px; font-family: 'DejaVu Sans'; text-anchor: start; fill: #24292f" x="536.576119" y="148.945586" transform="rotate(-0 536.576119 148.945586)">1.08×</text>
   </g>
   <g id="text_24">
    <text style="font-weight: 700; font-size: 9.5px; font-family: 'DejaVu Sans'; text-anchor: start; fill: #24292f" x="578.452291" y="76.045586" transform="rotate(-0 578.452291 76.045586)">1.68×</text>
   </g>
   <g id="text_25">
    <text style="font-size: 8px; font-family: 'DejaVu Sans'; text-anchor: middle; fill: #57606a" x="526.992629" y="265.551562" transform="rotate(-0 526.992629 265.551562)">baseline 1.00×</text>
   </g>
   <g id="text_26">
    <text style="font-size: 8px; font-family: 'DejaVu Sans'; text-anchor: start; fill: #57606a" x="461.386625" y="186.46425" transform="rotate(-0 461.386625 186.46425)">naive Python serialize lands here</text>
   </g>
   <g id="text_27">
    <text style="font-size: 8px; font-family: 'DejaVu Sans'; fill: #57606a" transform="translate(461.386625 110.950156)">off-GIL ceiling (ctypes stand-in) —</text>
    <text style="font-size: 8px; font-family: 'DejaVu Sans'; fill: #57606a" transform="translate(461.386625 120.552344)">not measured transport</text>
   </g>
  </g>
  <g id="text_28">
   <text style="font-style: italic; font-size: 8px; font-family: 'DejaVu Sans'; text-anchor: middle; fill: #57606a" x="366.38625" y="309.147938" transform="rotate(-0 366.38625 309.147938)">HISTORICAL SYNTHETIC STAND-IN — NOT TRANSPORT EVIDENCE · 8000-neuron net · ~8 ms compute + 10 ms work / 20 ms chunk · 30 chunks · bench_gil_overlap.py (NEST 3.8.0)</text>
  </g>
 </g>
 <defs>
  <clipPath id="p4cd69018d3">
   <rect x="150.38625" y="29.837812" width="223.339587" height="233.28"/>
  </clipPath>
  <clipPath id="pe3a75f568d">
   <rect x="457.199008" y="29.837812" width="139.587242" height="233.28"/>
  </clipPath>
 </defs>
 <defs>
  <pattern id="h44b5c79827" patternUnits="userSpaceOnUse" x="0" y="0" width="72" height="72">
   <rect x="0" y="0" width="73" height="73" fill="none"/>
   <path d="M -36 36
L 36 -36
M -32 40
L 40 -32
M -28 44
L 44 -28
M -24 48
L 48 -24
M -20 52
L 52 -20
M -16 56
L 56 -16
M -12 60
L 60 -12
M -8 64
L 64 -8
M -4 68
L 68 -4
M 0 72
L 72 0
M 4 76
L 76 4
M 8 80
L 80 8
M 12 84
L 84 12
M 16 88
L 88 16
M 20 92
L 92 20
M 24 96
L 96 24
M 28 100
L 100 28
M 32 104
L 104 32
M 36 108
L 108 36
" style="fill: #d55e00; stroke: #d55e00; stroke-width: 1.0; stroke-linecap: butt; stroke-linejoin: miter"/>
  </pattern>
 </defs>
</svg>
