<?xml version="1.0" encoding="utf-8" standalone="no"?>
<!DOCTYPE svg PUBLIC "-//W3C//DTD SVG 1.1//EN"
  "http://www.w3.org/Graphics/SVG/1.1/DTD/svg11.dtd">
<svg xmlns:xlink="http://www.w3.org/1999/xlink" width="621.672748pt" height="319.029656pt" viewBox="0 0 621.672748 319.029656" xmlns="http://www.w3.org/2000/svg" version="1.1">
 <metadata>
  <rdf:RDF xmlns:dc="http://purl.org/dc/elements/1.1/" xmlns:cc="http://creativecommons.org/ns#" xmlns:rdf="http://www.w3.org/1999/02/22-rdf-syntax-ns#">
   <cc:Work>
    <dc:type rdf:resource="http://purl.org/dc/dcmitype/StillImage"/>
    <dc:format>image/svg+xml</dc:format>
    <dc:creator>
     <cc:Agent>
      <dc:title>NCP plot_perf.py</dc:title>
     </cc:Agent>
    </dc:creator>
   </cc:Work>
  </rdf:RDF>
 </metadata>
 <defs>
  <style type="text/css">*{stroke-linejoin: round; stroke-linecap: butt}</style>
 </defs>
 <g id="figure_1">
  <g id="patch_1">
   <path d="M 0 319.029656
L 621.672748 319.029656
L 621.672748 0
L 0 0
z
" style="fill: #0d1117"/>
  </g>
  <g id="axes_1">
   <g id="patch_2">
    <path d="M 58.697344 263.877656
L 482.057344 263.877656
L 482.057344 30.597656
L 58.697344 30.597656
z
" style="fill: #0d1117"/>
   </g>
   <g id="patch_3">
    <path d="M 58.697344 263.877656
L 482.057344 263.877656
L 482.057344 69.310865
L 58.697344 69.310865
z
" clip-path="url(#p87044606a0)" style="fill: #8b949e; opacity: 0.08; stroke: #8b949e; stroke-linejoin: miter"/>
   </g>
   <g id="matplotlib.axis_1">
    <g id="xtick_1">
     <g id="line2d_1">
      <defs>
       <path id="m9b5c03fcae" d="M 0 0
L 0 3.5
" style="stroke: #c9d1d9; stroke-width: 0.8"/>
      </defs>
      <g>
       <use xlink:href="#m9b5c03fcae" x="73.587001" y="263.877656" style="fill: #c9d1d9; stroke: #c9d1d9; stroke-width: 0.8"/>
      </g>
     </g>
     <g id="text_1">
      <text style="font-size: 10px; font-family: 'DejaVu Sans'; text-anchor: middle; fill: #c9d1d9" x="73.587001" y="278.475312" transform="rotate(-0 73.587001 278.475312)">1</text>
     </g>
    </g>
    <g id="xtick_2">
     <g id="line2d_2">
      <g>
       <use xlink:href="#m9b5c03fcae" x="171.543282" y="263.877656" style="fill: #c9d1d9; stroke: #c9d1d9; stroke-width: 0.8"/>
      </g>
     </g>
     <g id="text_2">
      <text style="font-size: 10px; font-family: 'DejaVu Sans'; text-anchor: middle; fill: #c9d1d9" x="171.543282" y="278.475312" transform="rotate(-0 171.543282 278.475312)">2</text>
     </g>
    </g>
    <g id="xtick_3">
     <g id="line2d_3">
      <g>
       <use xlink:href="#m9b5c03fcae" x="269.499562" y="263.877656" style="fill: #c9d1d9; stroke: #c9d1d9; stroke-width: 0.8"/>
      </g>
     </g>
     <g id="text_3">
      <text style="font-size: 10px; font-family: 'DejaVu Sans'; text-anchor: middle; fill: #c9d1d9" x="269.499562" y="278.475312" transform="rotate(-0 269.499562 278.475312)">4</text>
     </g>
    </g>
    <g id="xtick_4">
     <g id="line2d_4">
      <g>
       <use xlink:href="#m9b5c03fcae" x="367.455842" y="263.877656" style="fill: #c9d1d9; stroke: #c9d1d9; stroke-width: 0.8"/>
      </g>
     </g>
     <g id="text_4">
      <text style="font-size: 10px; font-family: 'DejaVu Sans'; text-anchor: middle; fill: #c9d1d9" x="367.455842" y="278.475312" transform="rotate(-0 367.455842 278.475312)">8</text>
     </g>
    </g>
    <g id="xtick_5">
     <g id="line2d_5">
      <g>
       <use xlink:href="#m9b5c03fcae" x="465.412123" y="263.877656" style="fill: #c9d1d9; stroke: #c9d1d9; stroke-width: 0.8"/>
      </g>
     </g>
     <g id="text_5">
      <text style="font-size: 10px; font-family: 'DejaVu Sans'; text-anchor: middle; fill: #c9d1d9" x="465.412123" y="278.475312" transform="rotate(-0 465.412123 278.475312)">16</text>
     </g>
    </g>
    <g id="text_6">
     <text style="font-size: 12px; font-family: 'DejaVu Sans'; text-anchor: middle; fill: #c9d1d9" x="270.377344" y="293.995781" transform="rotate(-0 270.377344 293.995781)">OpenMP threads</text>
    </g>
   </g>
   <g id="matplotlib.axis_2">
    <g id="ytick_1">
     <g id="line2d_6">
      <path d="M 58.697344 231.589146
L 482.057344 231.589146
" clip-path="url(#p87044606a0)" style="fill: none; stroke: #30363d; stroke-width: 0.6; stroke-linecap: square"/>
     </g>
     <g id="line2d_7">
      <defs>
       <path id="m7d5033d088" d="M 0 0
L -3.5 0
" style="stroke: #c9d1d9; stroke-width: 0.8"/>
      </defs>
      <g>
       <use xlink:href="#m7d5033d088" x="58.697344" y="231.589146" style="fill: #c9d1d9; stroke: #c9d1d9; stroke-width: 0.8"/>
      </g>
     </g>
     <g id="text_7">
      <!-- $\mathdefault{10^{-2}}$ -->
      <g style="fill: #c9d1d9" transform="translate(28.197344 236.289146)">
       <text>
        <tspan x="0" y="-0.674688" style="font-size: 10px; font-family: 'DejaVu Sans'; fill: #c9d1d9">1</tspan>
        <tspan x="6.362305" y="-0.674688" style="font-size: 10px; font-family: 'DejaVu Sans'; fill: #c9d1d9">0</tspan>
        <tspan x="12.820312" y="-4.804688" style="font-size: 7px; font-family: 'DejaVu Sans'; fill: #c9d1d9">−</tspan>
        <tspan x="18.685547" y="-4.804688" style="font-size: 7px; font-family: 'DejaVu Sans'; fill: #c9d1d9">2</tspan>
       </text>
      </g>
     </g>
    </g>
    <g id="ytick_2">
     <g id="line2d_8">
      <path d="M 58.697344 150.450005
L 482.057344 150.450005
" clip-path="url(#p87044606a0)" style="fill: none; stroke: #30363d; stroke-width: 0.6; stroke-linecap: square"/>
     </g>
     <g id="line2d_9">
      <g>
       <use xlink:href="#m7d5033d088" x="58.697344" y="150.450005" style="fill: #c9d1d9; stroke: #c9d1d9; stroke-width: 0.8"/>
      </g>
     </g>
     <g id="text_8">
      <!-- $\mathdefault{10^{-1}}$ -->
      <g style="fill: #c9d1d9" transform="translate(28.197344 155.100005)">
       <text>
        <tspan x="0" y="-0.762187" style="font-size: 10px; font-family: 'DejaVu Sans'; fill: #c9d1d9">1</tspan>
        <tspan x="6.362305" y="-0.762187" style="font-size: 10px; font-family: 'DejaVu Sans'; fill: #c9d1d9">0</tspan>
        <tspan x="12.820312" y="-4.892187" style="font-size: 7px; font-family: 'DejaVu Sans'; fill: #c9d1d9">−</tspan>
        <tspan x="18.685547" y="-4.892187" style="font-size: 7px; font-family: 'DejaVu Sans'; fill: #c9d1d9">1</tspan>
       </text>
      </g>
     </g>
    </g>
    <g id="ytick_3">
     <g id="line2d_10">
      <path d="M 58.697344 69.310865
L 482.057344 69.310865
" clip-path="url(#p87044606a0)" style="fill: none; stroke: #30363d; stroke-width: 0.6; stroke-linecap: square"/>
     </g>
     <g id="line2d_11">
      <g>
       <use xlink:href="#m7d5033d088" x="58.697344" y="69.310865" style="fill: #c9d1d9; stroke: #c9d1d9; stroke-width: 0.8"/>
      </g>
     </g>
     <g id="text_9">
      <!-- $\mathdefault{10^{0}}$ -->
      <g style="fill: #c9d1d9" transform="translate(34.097344 74.010865)">
       <text>
        <tspan x="0" y="-0.674688" style="font-size: 10px; font-family: 'DejaVu Sans'; fill: #c9d1d9">1</tspan>
        <tspan x="6.362305" y="-0.674688" style="font-size: 10px; font-family: 'DejaVu Sans'; fill: #c9d1d9">0</tspan>
        <tspan x="12.820312" y="-4.804688" style="font-size: 7px; font-family: 'DejaVu Sans'; fill: #c9d1d9">0</tspan>
       </text>
      </g>
     </g>
    </g>
    <g id="ytick_4">
     <g id="line2d_12">
      <defs>
       <path id="mf4cc7a72c9" d="M 0 0
L -2 0
" style="stroke: #c9d1d9; stroke-width: 0.6"/>
      </defs>
      <g>
       <use xlink:href="#mf4cc7a72c9" x="58.697344" y="263.877656" style="fill: #c9d1d9; stroke: #c9d1d9; stroke-width: 0.6"/>
      </g>
     </g>
    </g>
    <g id="ytick_5">
     <g id="line2d_13">
      <g>
       <use xlink:href="#mf4cc7a72c9" x="58.697344" y="256.014461" style="fill: #c9d1d9; stroke: #c9d1d9; stroke-width: 0.6"/>
      </g>
     </g>
    </g>
    <g id="ytick_6">
     <g id="line2d_14">
      <g>
       <use xlink:href="#mf4cc7a72c9" x="58.697344" y="249.589763" style="fill: #c9d1d9; stroke: #c9d1d9; stroke-width: 0.6"/>
      </g>
     </g>
    </g>
    <g id="ytick_7">
     <g id="line2d_15">
      <g>
       <use xlink:href="#mf4cc7a72c9" x="58.697344" y="244.157758" style="fill: #c9d1d9; stroke: #c9d1d9; stroke-width: 0.6"/>
      </g>
     </g>
    </g>
    <g id="ytick_8">
     <g id="line2d_16">
      <g>
       <use xlink:href="#mf4cc7a72c9" x="58.697344" y="239.452341" style="fill: #c9d1d9; stroke: #c9d1d9; stroke-width: 0.6"/>
      </g>
     </g>
    </g>
    <g id="ytick_9">
     <g id="line2d_17">
      <g>
       <use xlink:href="#mf4cc7a72c9" x="58.697344" y="235.301869" style="fill: #c9d1d9; stroke: #c9d1d9; stroke-width: 0.6"/>
      </g>
     </g>
    </g>
    <g id="ytick_10">
     <g id="line2d_18">
      <g>
       <use xlink:href="#mf4cc7a72c9" x="58.697344" y="207.163831" style="fill: #c9d1d9; stroke: #c9d1d9; stroke-width: 0.6"/>
      </g>
     </g>
    </g>
    <g id="ytick_11">
     <g id="line2d_19">
      <g>
       <use xlink:href="#mf4cc7a72c9" x="58.697344" y="192.875937" style="fill: #c9d1d9; stroke: #c9d1d9; stroke-width: 0.6"/>
      </g>
     </g>
    </g>
    <g id="ytick_12">
     <g id="line2d_20">
      <g>
       <use xlink:href="#mf4cc7a72c9" x="58.697344" y="182.738516" style="fill: #c9d1d9; stroke: #c9d1d9; stroke-width: 0.6"/>
      </g>
     </g>
    </g>
    <g id="ytick_13">
     <g id="line2d_21">
      <g>
       <use xlink:href="#mf4cc7a72c9" x="58.697344" y="174.875321" style="fill: #c9d1d9; stroke: #c9d1d9; stroke-width: 0.6"/>
      </g>
     </g>
    </g>
    <g id="ytick_14">
     <g id="line2d_22">
      <g>
       <use xlink:href="#mf4cc7a72c9" x="58.697344" y="168.450622" style="fill: #c9d1d9; stroke: #c9d1d9; stroke-width: 0.6"/>
      </g>
     </g>
    </g>
    <g id="ytick_15">
     <g id="line2d_23">
      <g>
       <use xlink:href="#mf4cc7a72c9" x="58.697344" y="163.018617" style="fill: #c9d1d9; stroke: #c9d1d9; stroke-width: 0.6"/>
      </g>
     </g>
    </g>
    <g id="ytick_16">
     <g id="line2d_24">
      <g>
       <use xlink:href="#mf4cc7a72c9" x="58.697344" y="158.313201" style="fill: #c9d1d9; stroke: #c9d1d9; stroke-width: 0.6"/>
      </g>
     </g>
    </g>
    <g id="ytick_17">
     <g id="line2d_25">
      <g>
       <use xlink:href="#mf4cc7a72c9" x="58.697344" y="154.162729" style="fill: #c9d1d9; stroke: #c9d1d9; stroke-width: 0.6"/>
      </g>
     </g>
    </g>
    <g id="ytick_18">
     <g id="line2d_26">
      <g>
       <use xlink:href="#mf4cc7a72c9" x="58.697344" y="126.02469" style="fill: #c9d1d9; stroke: #c9d1d9; stroke-width: 0.6"/>
      </g>
     </g>
    </g>
    <g id="ytick_19">
     <g id="line2d_27">
      <g>
       <use xlink:href="#mf4cc7a72c9" x="58.697344" y="111.736797" style="fill: #c9d1d9; stroke: #c9d1d9; stroke-width: 0.6"/>
      </g>
     </g>
    </g>
    <g id="ytick_20">
     <g id="line2d_28">
      <g>
       <use xlink:href="#mf4cc7a72c9" x="58.697344" y="101.599375" style="fill: #c9d1d9; stroke: #c9d1d9; stroke-width: 0.6"/>
      </g>
     </g>
    </g>
    <g id="ytick_21">
     <g id="line2d_29">
      <g>
       <use xlink:href="#mf4cc7a72c9" x="58.697344" y="93.73618" style="fill: #c9d1d9; stroke: #c9d1d9; stroke-width: 0.6"/>
      </g>
     </g>
    </g>
    <g id="ytick_22">
     <g id="line2d_30">
      <g>
       <use xlink:href="#mf4cc7a72c9" x="58.697344" y="87.311482" style="fill: #c9d1d9; stroke: #c9d1d9; stroke-width: 0.6"/>
      </g>
     </g>
    </g>
    <g id="ytick_23">
     <g id="line2d_31">
      <g>
       <use xlink:href="#mf4cc7a72c9" x="58.697344" y="81.879477" style="fill: #c9d1d9; stroke: #c9d1d9; stroke-width: 0.6"/>
      </g>
     </g>
    </g>
    <g id="ytick_24">
     <g id="line2d_32">
      <g>
       <use xlink:href="#mf4cc7a72c9" x="58.697344" y="77.17406" style="fill: #c9d1d9; stroke: #c9d1d9; stroke-width: 0.6"/>
      </g>
     </g>
    </g>
    <g id="ytick_25">
     <g id="line2d_33">
      <g>
       <use xlink:href="#mf4cc7a72c9" x="58.697344" y="73.023588" style="fill: #c9d1d9; stroke: #c9d1d9; stroke-width: 0.6"/>
      </g>
     </g>
    </g>
    <g id="ytick_26">
     <g id="line2d_34">
      <g>
       <use xlink:href="#mf4cc7a72c9" x="58.697344" y="44.88555" style="fill: #c9d1d9; stroke: #c9d1d9; stroke-width: 0.6"/>
      </g>
     </g>
    </g>
    <g id="ytick_27">
     <g id="line2d_35">
      <g>
       <use xlink:href="#mf4cc7a72c9" x="58.697344" y="30.597656" style="fill: #c9d1d9; stroke: #c9d1d9; stroke-width: 0.6"/>
      </g>
     </g>
    </g>
    <g id="text_10">
     <text style="font-size: 12px; font-family: 'DejaVu Sans'; text-anchor: middle; fill: #c9d1d9" x="21.314531" y="147.237656" transform="rotate(-90 21.314531 147.237656)">real-time factor   rt = bio-s / wall-s</text>
    </g>
   </g>
   <g id="line2d_36">
    <path d="M 58.697344 69.310865
L 482.057344 69.310865
" clip-path="url(#p87044606a0)" style="fill: none; stroke-dasharray: 5.55,2.4; stroke-dashoffset: 0; stroke: #8b949e; stroke-width: 1.5"/>
   </g>
   <g id="patch_4">
    <path d="M 58.697344 263.877656
L 58.697344 30.597656
" style="fill: none; stroke: #8b949e; stroke-linejoin: miter; stroke-linecap: square"/>
   </g>
   <g id="patch_5">
    <path d="M 58.697344 263.877656
L 482.057344 263.877656
" style="fill: none; stroke: #8b949e; stroke-linejoin: miter; stroke-linecap: square"/>
   </g>
   <g id="text_11">
    <path d="M 8.578125 7.661719
L 11.397656 7.661719
L 11.397656 11.828906
L 15.557812 11.828906
L 15.557812 7.661719
L 18.377344 7.661719
L 18.377344 18.597656
L 15.557812 18.597656
L 15.557812 13.961719
L 11.397656 13.961719
L 11.397656 18.597656
L 8.578125 18.597656
L 8.578125 7.661719
z
M 21.014062 10.394531
L 23.634375 10.394531
L 23.634375 18.597656
L 21.014062 18.597656
L 21.014062 10.394531
z
M 21.014062 7.2
L 23.634375 7.2
L 23.634375 9.339844
L 21.014062 9.339844
L 21.014062 7.2
z
M 32.564062 10.65
L 32.564062 12.642187
Q 31.722656 12.290625 30.9375 12.114844
Q 30.154687 11.939062 29.458594 11.939062
Q 28.710937 11.939062 28.347656 12.126562
Q 27.986719 12.314062 27.986719 12.700781
Q 27.986719 13.017187 28.260937 13.185937
Q 28.535156 13.352344 29.245312 13.434375
L 29.707031 13.5
Q 31.722656 13.755469 32.416406 14.341406
Q 33.1125 14.927344 33.1125 16.18125
Q 33.1125 17.491406 32.144531 18.152344
Q 31.178906 18.810937 29.261719 18.810937
Q 28.448437 18.810937 27.578906 18.682031
Q 26.711719 18.553125 25.795312 18.297656
L 25.795312 16.305469
Q 26.580469 16.685156 27.403125 16.877344
Q 28.228125 17.067187 29.076562 17.067187
Q 29.847656 17.067187 30.234375 16.85625
Q 30.623437 16.642969 30.623437 16.223437
Q 30.623437 15.871875 30.35625 15.700781
Q 30.089062 15.529687 29.289844 15.433594
L 28.828125 15.375
Q 27.077344 15.154687 26.374219 14.561719
Q 25.671094 13.96875 25.671094 12.759375
Q 25.671094 11.45625 26.564062 10.828125
Q 27.459375 10.197656 29.303906 10.197656
Q 30.030469 10.197656 30.827344 10.307812
Q 31.626562 10.415625 32.564062 10.65
z
M 37.945312 8.064844
L 37.945312 10.394531
L 40.65 10.394531
L 40.65 12.269531
L 37.945312 12.269531
L 37.945312 15.747656
Q 37.945312 16.319531 38.172656 16.521094
Q 38.4 16.722656 39.075 16.722656
L 40.422656 16.722656
L 40.422656 18.597656
L 38.172656 18.597656
Q 36.621094 18.597656 35.971875 17.950781
Q 35.325 17.301562 35.325 15.747656
L 35.325 12.269531
L 34.019531 12.269531
L 34.019531 10.394531
L 35.325 10.394531
L 35.325 8.064844
L 37.945312 8.064844
z
M 46.155469 12.072656
Q 45.283594 12.072656 44.826562 12.698437
Q 44.369531 13.324219 44.369531 14.503125
Q 44.369531 15.682031 44.826562 16.310156
Q 45.283594 16.935937 46.155469 16.935937
Q 47.013281 16.935937 47.465625 16.310156
Q 47.920312 15.682031 47.920312 14.503125
Q 47.920312 13.324219 47.465625 12.698437
Q 47.013281 12.072656 46.155469 12.072656
z
M 46.155469 10.197656
Q 48.271875 10.197656 49.4625 11.341406
Q 50.653125 12.482812 50.653125 14.503125
Q 50.653125 16.525781 49.4625 17.669531
Q 48.271875 18.810937 46.155469 18.810937
Q 44.032031 18.810937 42.834375 17.669531
Q 41.636719 16.525781 41.636719 14.503125
Q 41.636719 12.482812 42.834375 11.341406
Q 44.032031 10.197656 46.155469 10.197656
z
M 58.652344 12.628125
Q 58.307812 12.466406 57.965625 12.391406
Q 57.625781 12.314062 57.28125 12.314062
Q 56.271094 12.314062 55.725 12.963281
Q 55.178906 13.610156 55.178906 14.817187
L 55.178906 18.597656
L 52.558594 18.597656
L 52.558594 10.394531
L 55.178906 10.394531
L 55.178906 11.742187
Q 55.685156 10.935937 56.339062 10.567969
Q 56.995312 10.197656 57.911719 10.197656
Q 58.042969 10.197656 58.195312 10.209375
Q 58.35 10.21875 58.642969 10.25625
L 58.652344 12.628125
z
M 59.955469 10.394531
L 62.575781 10.394531
L 62.575781 18.597656
L 59.955469 18.597656
L 59.955469 10.394531
z
M 59.955469 7.2
L 62.575781 7.2
L 62.575781 9.339844
L 59.955469 9.339844
L 59.955469 7.2
z
M 71.725781 10.65
L 71.725781 12.789844
Q 71.191406 12.424219 70.652344 12.248437
Q 70.113281 12.072656 69.534375 12.072656
Q 68.4375 12.072656 67.825781 12.7125
Q 67.214062 13.352344 67.214062 14.503125
Q 67.214062 15.653906 67.825781 16.296094
Q 68.4375 16.935937 69.534375 16.935937
Q 70.150781 16.935937 70.703906 16.753125
Q 71.257031 16.567969 71.725781 16.209375
L 71.725781 18.35625
Q 71.109375 18.583594 70.476562 18.696094
Q 69.84375 18.810937 69.20625 18.810937
Q 66.986719 18.810937 65.732812 17.671875
Q 64.48125 16.532812 64.48125 14.503125
Q 64.48125 12.473437 65.732812 11.336719
Q 66.986719 10.197656 69.20625 10.197656
Q 69.850781 10.197656 70.476562 10.310156
Q 71.102344 10.422656 71.725781 10.65
z
M 77.664844 14.90625
Q 76.844531 14.90625 76.429687 15.185156
Q 76.017187 15.461719 76.017187 16.005469
Q 76.017187 16.502344 76.35 16.785937
Q 76.685156 17.067187 77.278125 17.067187
Q 78.016406 17.067187 78.522656 16.5375
Q 79.028906 16.005469 79.028906 15.20625
L 79.028906 14.90625
L 77.664844 14.90625
z
M 81.672656 13.917187
L 81.672656 18.597656
L 79.028906 18.597656
L 79.028906 17.38125
Q 78.501562 18.128906 77.840625 18.471094
Q 77.182031 18.810937 76.2375 18.810937
Q 74.9625 18.810937 74.167969 18.067969
Q 73.373437 17.322656 73.373437 16.136719
Q 73.373437 14.692969 74.364844 14.020312
Q 75.358594 13.345312 77.482031 13.345312
L 79.028906 13.345312
L 79.028906 13.141406
Q 79.028906 12.517969 78.536719 12.229687
Q 78.046875 11.939062 77.00625 11.939062
Q 76.164844 11.939062 75.438281 12.107812
Q 74.714062 12.276562 74.090625 12.614062
L 74.090625 10.614844
Q 74.934375 10.408594 75.782812 10.303125
Q 76.633594 10.197656 77.482031 10.197656
Q 79.701562 10.197656 80.685937 11.071875
Q 81.672656 11.946094 81.672656 13.917187
z
M 84.1125 7.2
L 86.732812 7.2
L 86.732812 18.597656
L 84.1125 18.597656
L 84.1125 7.2
z
M 94.476562 7.2
L 97.096875 7.2
L 97.096875 18.597656
L 94.476562 18.597656
L 94.476562 7.2
z
M 103.521094 12.072656
Q 102.649219 12.072656 102.192187 12.698437
Q 101.735156 13.324219 101.735156 14.503125
Q 101.735156 15.682031 102.192187 16.310156
Q 102.649219 16.935937 103.521094 16.935937
Q 104.378906 16.935937 104.83125 16.310156
Q 105.285937 15.682031 105.285937 14.503125
Q 105.285937 13.324219 104.83125 12.698437
Q 104.378906 12.072656 103.521094 12.072656
z
M 103.521094 10.197656
Q 105.6375 10.197656 106.828125 11.341406
Q 108.01875 12.482812 108.01875 14.503125
Q 108.01875 16.525781 106.828125 17.669531
Q 105.6375 18.810937 103.521094 18.810937
Q 101.397656 18.810937 100.2 17.669531
Q 99.002344 16.525781 99.002344 14.503125
Q 99.002344 12.482812 100.2 11.341406
Q 101.397656 10.197656 103.521094 10.197656
z
M 116.552344 10.65
L 116.552344 12.789844
Q 116.017969 12.424219 115.478906 12.248437
Q 114.939844 12.072656 114.360937 12.072656
Q 113.264062 12.072656 112.652344 12.7125
Q 112.040625 13.352344 112.040625 14.503125
Q 112.040625 15.653906 112.652344 16.296094
Q 113.264062 16.935937 114.360937 16.935937
Q 114.977344 16.935937 115.530469 16.753125
Q 116.083594 16.567969 116.552344 16.209375
L 116.552344 18.35625
Q 115.935937 18.583594 115.303125 18.696094
Q 114.670312 18.810937 114.032812 18.810937
Q 111.813281 18.810937 110.559375 17.671875
Q 109.307812 16.532812 109.307812 14.503125
Q 109.307812 12.473437 110.559375 11.336719
Q 111.813281 10.197656 114.032812 10.197656
Q 114.677344 10.197656 115.303125 10.310156
Q 115.928906 10.422656 116.552344 10.65
z
M 122.491406 14.90625
Q 121.671094 14.90625 121.25625 15.185156
Q 120.84375 15.461719 120.84375 16.005469
Q 120.84375 16.502344 121.176562 16.785937
Q 121.511719 17.067187 122.104687 17.067187
Q 122.842969 17.067187 123.349219 16.5375
Q 123.855469 16.005469 123.855469 15.20625
L 123.855469 14.90625
L 122.491406 14.90625
z
M 126.499219 13.917187
L 126.499219 18.597656
L 123.855469 18.597656
L 123.855469 17.38125
Q 123.328125 18.128906 122.667187 18.471094
Q 122.008594 18.810937 121.064062 18.810937
Q 119.789062 18.810937 118.994531 18.067969
Q 118.2 17.322656 118.2 16.136719
Q 118.2 14.692969 119.191406 14.020312
Q 120.185156 13.345312 122.308594 13.345312
L 123.855469 13.345312
L 123.855469 13.141406
Q 123.855469 12.517969 123.363281 12.229687
Q 122.873437 11.939062 121.832812 11.939062
Q 120.991406 11.939062 120.264844 12.107812
Q 119.540625 12.276562 118.917187 12.614062
L 118.917187 10.614844
Q 119.760937 10.408594 120.609375 10.303125
Q 121.460156 10.197656 122.308594 10.197656
Q 124.528125 10.197656 125.5125 11.071875
Q 126.499219 11.946094 126.499219 13.917187
z
M 128.939062 7.2
L 131.559375 7.2
L 131.559375 18.597656
L 128.939062 18.597656
L 128.939062 7.2
z
M 145.710937 10.65
L 145.710937 12.642187
Q 144.869531 12.290625 144.084375 12.114844
Q 143.301562 11.939062 142.605469 11.939062
Q 141.857812 11.939062 141.494531 12.126562
Q 141.133594 12.314062 141.133594 12.700781
Q 141.133594 13.017187 141.407812 13.185937
Q 141.682031 13.352344 142.392187 13.434375
L 142.853906 13.5
Q 144.869531 13.755469 145.563281 14.341406
Q 146.259375 14.927344 146.259375 16.18125
Q 146.259375 17.491406 145.291406 18.152344
Q 144.325781 18.810937 142.408594 18.810937
Q 141.595312 18.810937 140.725781 18.682031
Q 139.858594 18.553125 138.942187 18.297656
L 138.942187 16.305469
Q 139.727344 16.685156 140.55 16.877344
Q 141.375 17.067187 142.223437 17.067187
Q 142.994531 17.067187 143.38125 16.85625
Q 143.770312 16.642969 143.770312 16.223437
Q 143.770312 15.871875 143.503125 15.700781
Q 143.235937 15.529687 142.436719 15.433594
L 141.975 15.375
Q 140.224219 15.154687 139.521094 14.561719
Q 138.817969 13.96875 138.817969 12.759375
Q 138.817969 11.45625 139.710937 10.828125
Q 140.60625 10.197656 142.450781 10.197656
Q 143.177344 10.197656 143.974219 10.307812
Q 144.773437 10.415625 145.710937 10.65
z
M 147.496875 10.394531
L 150.046875 10.394531
L 151.422656 16.047656
L 152.807812 10.394531
L 154.996875 10.394531
L 156.375 15.989062
L 157.757812 10.394531
L 160.307812 10.394531
L 158.146875 18.597656
L 155.282812 18.597656
L 153.897656 12.958594
L 152.521875 18.597656
L 149.657812 18.597656
L 147.496875 10.394531
z
M 170.275781 14.475
L 170.275781 15.220312
L 164.146875 15.220312
Q 164.240625 16.14375 164.8125 16.605469
Q 165.384375 17.067187 166.408594 17.067187
Q 167.235937 17.067187 168.103125 16.821094
Q 168.972656 16.575 169.889062 16.078125
L 169.889062 18.098437
Q 168.958594 18.45 168.028125 18.630469
Q 167.097656 18.810937 166.167187 18.810937
Q 163.940625 18.810937 162.705469 17.678906
Q 161.472656 16.546875 161.472656 14.503125
Q 161.472656 12.496875 162.684375 11.348437
Q 163.896094 10.197656 166.021875 10.197656
Q 167.955469 10.197656 169.115625 11.3625
Q 170.275781 12.525 170.275781 14.475
z
M 167.580469 13.603125
Q 167.580469 12.855469 167.144531 12.398437
Q 166.708594 11.939062 166.005469 11.939062
Q 165.24375 11.939062 164.767969 12.367969
Q 164.292187 12.796875 164.175 13.603125
L 167.580469 13.603125
z
M 180.45 14.475
L 180.45 15.220312
L 174.321094 15.220312
Q 174.414844 16.14375 174.986719 16.605469
Q 175.558594 17.067187 176.582812 17.067187
Q 177.410156 17.067187 178.277344 16.821094
Q 179.146875 16.575 180.063281 16.078125
L 180.063281 18.098437
Q 179.132812 18.45 178.202344 18.630469
Q 177.271875 18.810937 176.341406 18.810937
Q 174.114844 18.810937 172.879687 17.678906
Q 171.646875 16.546875 171.646875 14.503125
Q 171.646875 12.496875 172.858594 11.348437
Q 174.070312 10.197656 176.196094 10.197656
Q 178.129687 10.197656 179.289844 11.3625
Q 180.45 12.525 180.45 14.475
z
M 177.754687 13.603125
Q 177.754687 12.855469 177.31875 12.398437
Q 176.882812 11.939062 176.179687 11.939062
Q 175.417969 11.939062 174.942187 12.367969
Q 174.466406 12.796875 174.349219 13.603125
L 177.754687 13.603125
z
M 185.057812 17.411719
L 185.057812 21.717187
L 182.4375 21.717187
L 182.4375 10.394531
L 185.057812 10.394531
L 185.057812 11.594531
Q 185.601562 10.877344 186.260156 10.5375
Q 186.91875 10.197656 187.776562 10.197656
Q 189.292969 10.197656 190.265625 11.402344
Q 191.240625 12.607031 191.240625 14.503125
Q 191.240625 16.399219 190.265625 17.60625
Q 189.292969 18.810937 187.776562 18.810937
Q 186.91875 18.810937 186.260156 18.471094
Q 185.601562 18.128906 185.057812 17.411719
z
M 186.801562 12.100781
Q 185.960156 12.100781 185.507812 12.719531
Q 185.057812 13.338281 185.057812 14.503125
Q 185.057812 15.667969 185.507812 16.286719
Q 185.960156 16.905469 186.801562 16.905469
Q 187.642969 16.905469 188.085937 16.291406
Q 188.53125 15.675 188.53125 14.503125
Q 188.53125 13.33125 188.085937 12.717187
Q 187.642969 12.100781 186.801562 12.100781
z
M 197.941406 13.544531
L 211.328906 13.544531
L 211.328906 15.433594
L 197.941406 15.433594
L 197.941406 13.544531
z
M 222.520312 12.072656
Q 221.648437 12.072656 221.191406 12.698437
Q 220.734375 13.324219 220.734375 14.503125
Q 220.734375 15.682031 221.191406 16.310156
Q 221.648437 16.935937 222.520312 16.935937
Q 223.378125 16.935937 223.830469 16.310156
Q 224.285156 15.682031 224.285156 14.503125
Q 224.285156 13.324219 223.830469 12.698437
Q 223.378125 12.072656 222.520312 12.072656
z
M 222.520312 10.197656
Q 224.636719 10.197656 225.827344 11.341406
Q 227.017969 12.482812 227.017969 14.503125
Q 227.017969 16.525781 225.827344 17.669531
Q 224.636719 18.810937 222.520312 18.810937
Q 220.396875 18.810937 219.199219 17.669531
Q 218.001562 16.525781 218.001562 14.503125
Q 218.001562 12.482812 219.199219 11.341406
Q 220.396875 10.197656 222.520312 10.197656
z
M 237.16875 13.603125
L 237.16875 18.597656
L 234.532031 18.597656
L 234.532031 17.784375
L 234.532031 14.775
Q 234.532031 13.713281 234.485156 13.310156
Q 234.438281 12.907031 234.321094 12.717187
Q 234.166406 12.459375 233.901562 12.316406
Q 233.639062 12.173437 233.301562 12.173437
Q 232.48125 12.173437 232.0125 12.808594
Q 231.54375 13.441406 231.54375 14.561719
L 231.54375 18.597656
L 228.923437 18.597656
L 228.923437 10.394531
L 231.54375 10.394531
L 231.54375 11.594531
Q 232.136719 10.877344 232.802344 10.5375
Q 233.470312 10.197656 234.276562 10.197656
Q 235.696875 10.197656 236.432812 11.069531
Q 237.16875 11.939062 237.16875 13.603125
z
M 239.601562 7.2
L 242.221875 7.2
L 242.221875 18.597656
L 239.601562 18.597656
L 239.601562 7.2
z
M 243.665625 10.394531
L 246.288281 10.394531
L 248.49375 15.960937
L 250.36875 10.394531
L 252.989062 10.394531
L 249.539062 19.373437
Q 249.021094 20.744531 248.327344 21.288281
Q 247.635937 21.834375 246.501562 21.834375
L 244.985156 21.834375
L 244.985156 20.114062
L 245.805469 20.114062
Q 246.471094 20.114062 246.773437 19.900781
Q 247.078125 19.689844 247.246875 19.139062
L 247.321875 18.911719
L 243.665625 10.394531
z
M 266.151562 10.65
L 266.151562 12.642187
Q 265.310156 12.290625 264.525 12.114844
Q 263.742188 11.939062 263.046094 11.939062
Q 262.298437 11.939062 261.935156 12.126562
Q 261.574219 12.314062 261.574219 12.700781
Q 261.574219 13.017187 261.848437 13.185937
Q 262.122656 13.352344 262.832812 13.434375
L 263.294531 13.5
Q 265.310156 13.755469 266.003906 14.341406
Q 266.7 14.927344 266.7 16.18125
Q 266.7 17.491406 265.732031 18.152344
Q 264.766406 18.810937 262.849219 18.810937
Q 262.035937 18.810937 261.166406 18.682031
Q 260.299219 18.553125 259.382812 18.297656
L 259.382812 16.305469
Q 260.167969 16.685156 260.990625 16.877344
Q 261.815625 17.067187 262.664062 17.067187
Q 263.435156 17.067187 263.821875 16.85625
Q 264.210938 16.642969 264.210938 16.223437
Q 264.210938 15.871875 263.94375 15.700781
Q 263.676562 15.529687 262.877344 15.433594
L 262.415625 15.375
Q 260.664844 15.154687 259.961719 14.561719
Q 259.258594 13.96875 259.258594 12.759375
Q 259.258594 11.45625 260.151562 10.828125
Q 261.046875 10.197656 262.891406 10.197656
Q 263.617969 10.197656 264.414844 10.307812
Q 265.214062 10.415625 266.151562 10.65
z
M 272.346094 14.90625
Q 271.525781 14.90625 271.110937 15.185156
Q 270.698437 15.461719 270.698437 16.005469
Q 270.698437 16.502344 271.03125 16.785937
Q 271.366406 17.067187 271.959375 17.067187
Q 272.697656 17.067187 273.203906 16.5375
Q 273.710156 16.005469 273.710156 15.20625
L 273.710156 14.90625
L 272.346094 14.90625
z
M 276.353906 13.917187
L 276.353906 18.597656
L 273.710156 18.597656
L 273.710156 17.38125
Q 273.182812 18.128906 272.521875 18.471094
Q 271.863281 18.810937 270.91875 18.810937
Q 269.64375 18.810937 268.849219 18.067969
Q 268.054688 17.322656 268.054688 16.136719
Q 268.054688 14.692969 269.046094 14.020312
Q 270.039844 13.345312 272.163281 13.345312
L 273.710156 13.345312
L 273.710156 13.141406
Q 273.710156 12.517969 273.217969 12.229687
Q 272.728125 11.939062 271.6875 11.939062
Q 270.846094 11.939062 270.119531 12.107812
Q 269.395312 12.276562 268.771875 12.614062
L 268.771875 10.614844
Q 269.615625 10.408594 270.464062 10.303125
Q 271.314844 10.197656 272.163281 10.197656
Q 274.382812 10.197656 275.367188 11.071875
Q 276.353906 11.946094 276.353906 13.917187
z
M 286.394531 11.75625
Q 286.89375 10.994531 287.578125 10.596094
Q 288.2625 10.197656 289.082812 10.197656
Q 290.496094 10.197656 291.236719 11.069531
Q 291.977344 11.939062 291.977344 13.603125
L 291.977344 18.597656
L 289.340625 18.597656
L 289.340625 14.320312
Q 289.347656 14.224219 289.35 14.123437
Q 289.354687 14.020312 289.354687 13.830469
Q 289.354687 12.958594 289.096875 12.567187
Q 288.841406 12.173437 288.269531 12.173437
Q 287.524219 12.173437 287.116406 12.789844
Q 286.710938 13.403906 286.694531 14.56875
L 286.694531 18.597656
L 284.057812 18.597656
L 284.057812 14.320312
Q 284.057812 12.958594 283.823437 12.567187
Q 283.589062 12.173437 282.989062 12.173437
Q 282.234375 12.173437 281.824219 12.792187
Q 281.414062 13.410937 281.414062 14.561719
L 281.414062 18.597656
L 278.777344 18.597656
L 278.777344 10.394531
L 281.414062 10.394531
L 281.414062 11.594531
Q 281.899219 10.900781 282.525 10.549219
Q 283.150781 10.197656 283.905469 10.197656
Q 284.753906 10.197656 285.405469 10.607812
Q 286.059375 11.017969 286.394531 11.75625
z
M 297.044531 17.411719
L 297.044531 21.717187
L 294.424219 21.717187
L 294.424219 10.394531
L 297.044531 10.394531
L 297.044531 11.594531
Q 297.588281 10.877344 298.246875 10.5375
Q 298.905469 10.197656 299.763281 10.197656
Q 301.279687 10.197656 302.252344 11.402344
Q 303.227344 12.607031 303.227344 14.503125
Q 303.227344 16.399219 302.252344 17.60625
Q 301.279687 18.810937 299.763281 18.810937
Q 298.905469 18.810937 298.246875 18.471094
Q 297.588281 18.128906 297.044531 17.411719
z
M 298.788281 12.100781
Q 297.946875 12.100781 297.494531 12.719531
Q 297.044531 13.338281 297.044531 14.503125
Q 297.044531 15.667969 297.494531 16.286719
Q 297.946875 16.905469 298.788281 16.905469
Q 299.629687 16.905469 300.072656 16.291406
Q 300.517969 15.675 300.517969 14.503125
Q 300.517969 13.33125 300.072656 12.717187
Q 299.629687 12.100781 298.788281 12.100781
z
M 305.160937 7.2
L 307.78125 7.2
L 307.78125 18.597656
L 305.160937 18.597656
L 305.160937 7.2
z
M 318.489844 14.475
L 318.489844 15.220312
L 312.360937 15.220312
Q 312.454687 16.14375 313.026562 16.605469
Q 313.598437 17.067187 314.622656 17.067187
Q 315.45 17.067187 316.317187 16.821094
Q 317.186719 16.575 318.103125 16.078125
L 318.103125 18.098437
Q 317.172656 18.45 316.242188 18.630469
Q 315.311719 18.810937 314.38125 18.810937
Q 312.154687 18.810937 310.919531 17.678906
Q 309.686719 16.546875 309.686719 14.503125
Q 309.686719 12.496875 310.898438 11.348437
Q 312.110156 10.197656 314.235937 10.197656
Q 316.169531 10.197656 317.329687 11.3625
Q 318.489844 12.525 318.489844 14.475
z
M 315.794531 13.603125
Q 315.794531 12.855469 315.358594 12.398437
Q 314.922656 11.939062 314.219531 11.939062
Q 313.457812 11.939062 312.982031 12.367969
Q 312.50625 12.796875 312.389062 13.603125
L 315.794531 13.603125
z
M 326.057812 11.594531
L 326.057812 7.2
L 328.694531 7.2
L 328.694531 18.597656
L 326.057812 18.597656
L 326.057812 17.411719
Q 325.516406 18.135937 324.8625 18.473437
Q 324.210938 18.810937 323.355469 18.810937
Q 321.839062 18.810937 320.864062 17.60625
Q 319.891406 16.399219 319.891406 14.503125
Q 319.891406 12.607031 320.864062 11.402344
Q 321.839062 10.197656 323.355469 10.197656
Q 324.203906 10.197656 324.860156 10.5375
Q 325.516406 10.877344 326.057812 11.594531
z
M 324.328125 16.905469
Q 325.171875 16.905469 325.614844 16.291406
Q 326.057812 15.675 326.057812 14.503125
Q 326.057812 13.33125 325.614844 12.717187
Q 325.171875 12.100781 324.328125 12.100781
Q 323.49375 12.100781 323.050781 12.717187
Q 322.607812 13.33125 322.607812 14.503125
Q 322.607812 15.675 323.050781 16.291406
Q 323.49375 16.905469 324.328125 16.905469
z
M 336.932812 16.65
L 339.424219 16.65
L 339.424219 9.58125
L 336.867188 10.108594
L 336.867188 8.189062
L 339.407812 7.661719
L 342.089062 7.661719
L 342.089062 16.65
L 344.580469 16.65
L 344.580469 18.597656
L 336.932812 18.597656
L 336.932812 16.65
z
M 352.511719 13.117969
Q 352.511719 11.067187 352.127344 10.230469
Q 351.742969 9.391406 350.833594 9.391406
Q 349.926562 9.391406 349.5375 10.230469
Q 349.148438 11.067187 349.148438 13.117969
Q 349.148438 15.192187 349.5375 16.042969
Q 349.926562 16.891406 350.833594 16.891406
Q 351.735937 16.891406 352.122656 16.042969
Q 352.511719 15.192187 352.511719 13.117969
z
M 355.33125 13.141406
Q 355.33125 15.857812 354.159375 17.334375
Q 352.9875 18.810937 350.833594 18.810937
Q 348.672656 18.810937 347.500781 17.334375
Q 346.328906 15.857812 346.328906 13.141406
Q 346.328906 10.415625 347.500781 8.941406
Q 348.672656 7.464844 350.833594 7.464844
Q 352.9875 7.464844 354.159375 8.941406
Q 355.33125 10.415625 355.33125 13.141406
z
M 357.309375 7.2
L 359.929688 7.2
L 359.929688 13.403906
L 362.948437 10.394531
L 365.995312 10.394531
L 361.9875 14.158594
L 366.309375 18.597656
L 363.13125 18.597656
L 359.929688 15.178125
L 359.929688 18.597656
L 357.309375 18.597656
L 357.309375 7.2
z
M 378.914062 10.65
L 378.914062 12.642187
Q 378.072656 12.290625 377.2875 12.114844
Q 376.504687 11.939062 375.808594 11.939062
Q 375.060937 11.939062 374.697656 12.126562
Q 374.336719 12.314062 374.336719 12.700781
Q 374.336719 13.017187 374.610937 13.185937
Q 374.885156 13.352344 375.595312 13.434375
L 376.057031 13.5
Q 378.072656 13.755469 378.766406 14.341406
Q 379.4625 14.927344 379.4625 16.18125
Q 379.4625 17.491406 378.494531 18.152344
Q 377.528906 18.810937 375.611719 18.810937
Q 374.798437 18.810937 373.928906 18.682031
Q 373.061719 18.553125 372.145312 18.297656
L 372.145312 16.305469
Q 372.930469 16.685156 373.753125 16.877344
Q 374.578125 17.067187 375.426562 17.067187
Q 376.197656 17.067187 376.584375 16.85625
Q 376.973437 16.642969 376.973437 16.223437
Q 376.973437 15.871875 376.70625 15.700781
Q 376.439062 15.529687 375.639844 15.433594
L 375.178125 15.375
Q 373.427344 15.154687 372.724219 14.561719
Q 372.021094 13.96875 372.021094 12.759375
Q 372.021094 11.45625 372.914062 10.828125
Q 373.809375 10.197656 375.653906 10.197656
Q 376.380469 10.197656 377.177344 10.307812
Q 377.976562 10.415625 378.914062 10.65
z
M 389.620312 14.475
L 389.620312 15.220312
L 383.491406 15.220312
Q 383.585156 16.14375 384.157031 16.605469
Q 384.728906 17.067187 385.753125 17.067187
Q 386.580469 17.067187 387.447656 16.821094
Q 388.317187 16.575 389.233594 16.078125
L 389.233594 18.098437
Q 388.303125 18.45 387.372656 18.630469
Q 386.442187 18.810937 385.511719 18.810937
Q 383.285156 18.810937 382.05 17.678906
Q 380.817187 16.546875 380.817187 14.503125
Q 380.817187 12.496875 382.028906 11.348437
Q 383.240625 10.197656 385.366406 10.197656
Q 387.3 10.197656 388.460156 11.3625
Q 389.620312 12.525 389.620312 14.475
z
M 386.925 13.603125
Q 386.925 12.855469 386.489062 12.398437
Q 386.053125 11.939062 385.35 11.939062
Q 384.588281 11.939062 384.1125 12.367969
Q 383.636719 12.796875 383.519531 13.603125
L 386.925 13.603125
z
M 397.701562 12.628125
Q 397.357031 12.466406 397.014844 12.391406
Q 396.675 12.314062 396.330469 12.314062
Q 395.320312 12.314062 394.774219 12.963281
Q 394.228125 13.610156 394.228125 14.817187
L 394.228125 18.597656
L 391.607812 18.597656
L 391.607812 10.394531
L 394.228125 10.394531
L 394.228125 11.742187
Q 394.734375 10.935937 395.388281 10.567969
Q 396.044531 10.197656 396.960938 10.197656
Q 397.092187 10.197656 397.244531 10.209375
Q 397.399219 10.21875 397.692187 10.25625
L 397.701562 12.628125
z
M 399.004687 10.394531
L 401.625 10.394531
L 401.625 18.597656
L 399.004687 18.597656
L 399.004687 10.394531
z
M 399.004687 7.2
L 401.625 7.2
L 401.625 9.339844
L 399.004687 9.339844
L 399.004687 7.2
z
M 412.333594 14.475
L 412.333594 15.220312
L 406.204687 15.220312
Q 406.298437 16.14375 406.870312 16.605469
Q 407.442187 17.067187 408.466406 17.067187
Q 409.29375 17.067187 410.160937 16.821094
Q 411.030469 16.575 411.946875 16.078125
L 411.946875 18.098437
Q 411.016406 18.45 410.085938 18.630469
Q 409.155469 18.810937 408.225 18.810937
Q 405.998437 18.810937 404.763281 17.678906
Q 403.530469 16.546875 403.530469 14.503125
Q 403.530469 12.496875 404.742188 11.348437
Q 405.953906 10.197656 408.079687 10.197656
Q 410.013281 10.197656 411.173437 11.3625
Q 412.333594 12.525 412.333594 14.475
z
M 409.638281 13.603125
Q 409.638281 12.855469 409.202344 12.398437
Q 408.766406 11.939062 408.063281 11.939062
Q 407.301562 11.939062 406.825781 12.367969
Q 406.35 12.796875 406.232812 13.603125
L 409.638281 13.603125
z
M 420.728906 10.65
L 420.728906 12.642187
Q 419.8875 12.290625 419.102344 12.114844
Q 418.319531 11.939062 417.623437 11.939062
Q 416.875781 11.939062 416.5125 12.126562
Q 416.151562 12.314062 416.151562 12.700781
Q 416.151562 13.017187 416.425781 13.185937
Q 416.7 13.352344 417.410156 13.434375
L 417.871875 13.5
Q 419.8875 13.755469 420.58125 14.341406
Q 421.277344 14.927344 421.277344 16.18125
Q 421.277344 17.491406 420.309375 18.152344
Q 419.34375 18.810937 417.426562 18.810937
Q 416.613281 18.810937 415.74375 18.682031
Q 414.876562 18.553125 413.960156 18.297656
L 413.960156 16.305469
Q 414.745312 16.685156 415.567969 16.877344
Q 416.392969 17.067187 417.241406 17.067187
Q 418.0125 17.067187 418.399219 16.85625
Q 418.788281 16.642969 418.788281 16.223437
Q 418.788281 15.871875 418.521094 15.700781
Q 418.253906 15.529687 417.454687 15.433594
L 416.992969 15.375
Q 415.242188 15.154687 414.539062 14.561719
Q 413.835938 13.96875 413.835938 12.759375
Q 413.835938 11.45625 414.728906 10.828125
Q 415.624219 10.197656 417.46875 10.197656
Q 418.195312 10.197656 418.992188 10.307812
Q 419.791406 10.415625 420.728906 10.65
z
M 435.098437 10.65
L 435.098437 12.789844
Q 434.564062 12.424219 434.025 12.248437
Q 433.485937 12.072656 432.907031 12.072656
Q 431.810156 12.072656 431.198437 12.7125
Q 430.586719 13.352344 430.586719 14.503125
Q 430.586719 15.653906 431.198437 16.296094
Q 431.810156 16.935937 432.907031 16.935937
Q 433.523438 16.935937 434.076562 16.753125
Q 434.629687 16.567969 435.098437 16.209375
L 435.098437 18.35625
Q 434.482031 18.583594 433.849219 18.696094
Q 433.216406 18.810937 432.578906 18.810937
Q 430.359375 18.810937 429.105469 17.671875
Q 427.853906 16.532812 427.853906 14.503125
Q 427.853906 12.473437 429.105469 11.336719
Q 430.359375 10.197656 432.578906 10.197656
Q 433.223437 10.197656 433.849219 10.310156
Q 434.475 10.422656 435.098437 10.65
z
M 443.45625 12.628125
Q 443.111719 12.466406 442.769531 12.391406
Q 442.429688 12.314062 442.085156 12.314062
Q 441.075 12.314062 440.528906 12.963281
Q 439.982812 13.610156 439.982812 14.817187
L 439.982812 18.597656
L 437.3625 18.597656
L 437.3625 10.394531
L 439.982812 10.394531
L 439.982812 11.742187
Q 440.489062 10.935937 441.142969 10.567969
Q 441.799219 10.197656 442.715625 10.197656
Q 442.846875 10.197656 442.999219 10.209375
Q 443.153906 10.21875 443.446875 10.25625
L 443.45625 12.628125
z
M 448.661719 12.072656
Q 447.789844 12.072656 447.332812 12.698437
Q 446.875781 13.324219 446.875781 14.503125
Q 446.875781 15.682031 447.332812 16.310156
Q 447.789844 16.935937 448.661719 16.935937
Q 449.519531 16.935937 449.971875 16.310156
Q 450.426562 15.682031 450.426562 14.503125
Q 450.426562 13.324219 449.971875 12.698437
Q 449.519531 12.072656 448.661719 12.072656
z
M 448.661719 10.197656
Q 450.778125 10.197656 451.96875 11.341406
Q 453.159375 12.482812 453.159375 14.503125
Q 453.159375 16.525781 451.96875 17.669531
Q 450.778125 18.810937 448.661719 18.810937
Q 446.538281 18.810937 445.340625 17.669531
Q 444.142969 16.525781 444.142969 14.503125
Q 444.142969 12.482812 445.340625 11.341406
Q 446.538281 10.197656 448.661719 10.197656
z
M 461.472656 10.65
L 461.472656 12.642187
Q 460.63125 12.290625 459.846094 12.114844
Q 459.063281 11.939062 458.367188 11.939062
Q 457.619531 11.939062 457.25625 12.126562
Q 456.895312 12.314062 456.895312 12.700781
Q 456.895312 13.017187 457.169531 13.185937
Q 457.44375 13.352344 458.153906 13.434375
L 458.615625 13.5
Q 460.63125 13.755469 461.325 14.341406
Q 462.021094 14.927344 462.021094 16.18125
Q 462.021094 17.491406 461.053125 18.152344
Q 460.0875 18.810937 458.170312 18.810937
Q 457.357031 18.810937 456.4875 18.682031
Q 455.620312 18.553125 454.703906 18.297656
L 454.703906 16.305469
Q 455.489062 16.685156 456.311719 16.877344
Q 457.136719 17.067187 457.985156 17.067187
Q 458.75625 17.067187 459.142969 16.85625
Q 459.532031 16.642969 459.532031 16.223437
Q 459.532031 15.871875 459.264844 15.700781
Q 458.997656 15.529687 458.198437 15.433594
L 457.736719 15.375
Q 455.985937 15.154687 455.282812 14.561719
Q 454.579687 13.96875 454.579687 12.759375
Q 454.579687 11.45625 455.472656 10.828125
Q 456.367969 10.197656 458.2125 10.197656
Q 458.939062 10.197656 459.735937 10.307812
Q 460.535156 10.415625 461.472656 10.65
z
M 470.4 10.65
L 470.4 12.642187
Q 469.558594 12.290625 468.773437 12.114844
Q 467.990625 11.939062 467.294531 11.939062
Q 466.546875 11.939062 466.183594 12.126562
Q 465.822656 12.314062 465.822656 12.700781
Q 465.822656 13.017187 466.096875 13.185937
Q 466.371094 13.352344 467.08125 13.434375
L 467.542969 13.5
Q 469.558594 13.755469 470.252344 14.341406
Q 470.948437 14.927344 470.948437 16.18125
Q 470.948437 17.491406 469.980469 18.152344
Q 469.014844 18.810937 467.097656 18.810937
Q 466.284375 18.810937 465.414844 18.682031
Q 464.547656 18.553125 463.63125 18.297656
L 463.63125 16.305469
Q 464.416406 16.685156 465.239062 16.877344
Q 466.064062 17.067187 466.9125 17.067187
Q 467.683594 17.067187 468.070312 16.85625
Q 468.459375 16.642969 468.459375 16.223437
Q 468.459375 15.871875 468.192187 15.700781
Q 467.925 15.529687 467.125781 15.433594
L 466.664062 15.375
Q 464.913281 15.154687 464.210156 14.561719
Q 463.507031 13.96875 463.507031 12.759375
Q 463.507031 11.45625 464.4 10.828125
Q 465.295312 10.197656 467.139844 10.197656
Q 467.866406 10.197656 468.663281 10.307812
Q 469.4625 10.415625 470.4 10.65
z
M 481.10625 14.475
L 481.10625 15.220312
L 474.977344 15.220312
Q 475.071094 16.14375 475.642969 16.605469
Q 476.214844 17.067187 477.239062 17.067187
Q 478.066406 17.067187 478.933594 16.821094
Q 479.803125 16.575 480.719531 16.078125
L 480.719531 18.098437
Q 479.789062 18.45 478.858594 18.630469
Q 477.928125 18.810937 476.997656 18.810937
Q 474.771094 18.810937 473.535937 17.678906
Q 472.303125 16.546875 472.303125 14.503125
Q 472.303125 12.496875 473.514844 11.348437
Q 474.726562 10.197656 476.852344 10.197656
Q 478.785937 10.197656 479.946094 11.3625
Q 481.10625 12.525 481.10625 14.475
z
M 478.410937 13.603125
Q 478.410937 12.855469 477.975 12.398437
Q 477.539062 11.939062 476.835937 11.939062
Q 476.074219 11.939062 475.598437 12.367969
Q 475.122656 12.796875 475.005469 13.603125
L 478.410937 13.603125
z
M 489.501562 10.65
L 489.501562 12.642187
Q 488.660156 12.290625 487.875 12.114844
Q 487.092187 11.939062 486.396094 11.939062
Q 485.648437 11.939062 485.285156 12.126562
Q 484.924219 12.314062 484.924219 12.700781
Q 484.924219 13.017187 485.198437 13.185937
Q 485.472656 13.352344 486.182812 13.434375
L 486.644531 13.5
Q 488.660156 13.755469 489.353906 14.341406
Q 490.05 14.927344 490.05 16.18125
Q 490.05 17.491406 489.082031 18.152344
Q 488.116406 18.810937 486.199219 18.810937
Q 485.385937 18.810937 484.516406 18.682031
Q 483.649219 18.553125 482.732812 18.297656
L 482.732812 16.305469
Q 483.517969 16.685156 484.340625 16.877344
Q 485.165625 17.067187 486.014062 17.067187
Q 486.785156 17.067187 487.171875 16.85625
Q 487.560937 16.642969 487.560937 16.223437
Q 487.560937 15.871875 487.29375 15.700781
Q 487.026562 15.529687 486.227344 15.433594
L 485.765625 15.375
Q 484.014844 15.154687 483.311719 14.561719
Q 482.608594 13.96875 482.608594 12.759375
Q 482.608594 11.45625 483.501562 10.828125
Q 484.396875 10.197656 486.241406 10.197656
Q 486.967969 10.197656 487.764844 10.307812
Q 488.564062 10.415625 489.501562 10.65
z
M 503.336719 12.628125
Q 502.992187 12.466406 502.65 12.391406
Q 502.310156 12.314062 501.965625 12.314062
Q 500.955469 12.314062 500.409375 12.963281
Q 499.863281 13.610156 499.863281 14.817187
L 499.863281 18.597656
L 497.242969 18.597656
L 497.242969 10.394531
L 499.863281 10.394531
L 499.863281 11.742187
Q 500.369531 10.935937 501.023437 10.567969
Q 501.679687 10.197656 502.596094 10.197656
Q 502.727344 10.197656 502.879687 10.209375
Q 503.034375 10.21875 503.327344 10.25625
L 503.336719 12.628125
z
M 507.501562 8.064844
L 507.501562 10.394531
L 510.20625 10.394531
L 510.20625 12.269531
L 507.501562 12.269531
L 507.501562 15.747656
Q 507.501562 16.319531 507.728906 16.521094
Q 507.95625 16.722656 508.63125 16.722656
L 509.978906 16.722656
L 509.978906 18.597656
L 507.728906 18.597656
Q 506.177344 18.597656 505.528125 17.950781
Q 504.88125 17.301562 504.88125 15.747656
L 504.88125 12.269531
L 503.575781 12.269531
L 503.575781 10.394531
L 504.88125 10.394531
L 504.88125 8.064844
L 507.501562 8.064844
z
M 512.1375 11.369531
L 521.526562 11.369531
L 521.526562 13.089844
L 512.1375 13.089844
L 512.1375 11.369531
z
M 512.1375 14.7
L 521.526562 14.7
L 521.526562 16.436719
L 512.1375 16.436719
L 512.1375 14.7
z
M 524.875781 16.65
L 527.367188 16.65
L 527.367188 9.58125
L 524.810156 10.108594
L 524.810156 8.189062
L 527.350781 7.661719
L 530.032031 7.661719
L 530.032031 16.65
L 532.523438 16.65
L 532.523438 18.597656
L 524.875781 18.597656
L 524.875781 16.65
z
" style="fill: #c9d1d9; stroke: #0d1117; stroke-width: 2.5"/>
    <path d="M 8.578125 7.661719
L 11.397656 7.661719
L 11.397656 11.828906
L 15.557812 11.828906
L 15.557812 7.661719
L 18.377344 7.661719
L 18.377344 18.597656
L 15.557812 18.597656
L 15.557812 13.961719
L 11.397656 13.961719
L 11.397656 18.597656
L 8.578125 18.597656
L 8.578125 7.661719
z
M 21.014062 10.394531
L 23.634375 10.394531
L 23.634375 18.597656
L 21.014062 18.597656
L 21.014062 10.394531
z
M 21.014062 7.2
L 23.634375 7.2
L 23.634375 9.339844
L 21.014062 9.339844
L 21.014062 7.2
z
M 32.564062 10.65
L 32.564062 12.642187
Q 31.722656 12.290625 30.9375 12.114844
Q 30.154687 11.939062 29.458594 11.939062
Q 28.710937 11.939062 28.347656 12.126562
Q 27.986719 12.314062 27.986719 12.700781
Q 27.986719 13.017187 28.260937 13.185937
Q 28.535156 13.352344 29.245312 13.434375
L 29.707031 13.5
Q 31.722656 13.755469 32.416406 14.341406
Q 33.1125 14.927344 33.1125 16.18125
Q 33.1125 17.491406 32.144531 18.152344
Q 31.178906 18.810937 29.261719 18.810937
Q 28.448437 18.810937 27.578906 18.682031
Q 26.711719 18.553125 25.795312 18.297656
L 25.795312 16.305469
Q 26.580469 16.685156 27.403125 16.877344
Q 28.228125 17.067187 29.076562 17.067187
Q 29.847656 17.067187 30.234375 16.85625
Q 30.623437 16.642969 30.623437 16.223437
Q 30.623437 15.871875 30.35625 15.700781
Q 30.089062 15.529687 29.289844 15.433594
L 28.828125 15.375
Q 27.077344 15.154687 26.374219 14.561719
Q 25.671094 13.96875 25.671094 12.759375
Q 25.671094 11.45625 26.564062 10.828125
Q 27.459375 10.197656 29.303906 10.197656
Q 30.030469 10.197656 30.827344 10.307812
Q 31.626562 10.415625 32.564062 10.65
z
M 37.945312 8.064844
L 37.945312 10.394531
L 40.65 10.394531
L 40.65 12.269531
L 37.945312 12.269531
L 37.945312 15.747656
Q 37.945312 16.319531 38.172656 16.521094
Q 38.4 16.722656 39.075 16.722656
L 40.422656 16.722656
L 40.422656 18.597656
L 38.172656 18.597656
Q 36.621094 18.597656 35.971875 17.950781
Q 35.325 17.301562 35.325 15.747656
L 35.325 12.269531
L 34.019531 12.269531
L 34.019531 10.394531
L 35.325 10.394531
L 35.325 8.064844
L 37.945312 8.064844
z
M 46.155469 12.072656
Q 45.283594 12.072656 44.826562 12.698437
Q 44.369531 13.324219 44.369531 14.503125
Q 44.369531 15.682031 44.826562 16.310156
Q 45.283594 16.935937 46.155469 16.935937
Q 47.013281 16.935937 47.465625 16.310156
Q 47.920312 15.682031 47.920312 14.503125
Q 47.920312 13.324219 47.465625 12.698437
Q 47.013281 12.072656 46.155469 12.072656
z
M 46.155469 10.197656
Q 48.271875 10.197656 49.4625 11.341406
Q 50.653125 12.482812 50.653125 14.503125
Q 50.653125 16.525781 49.4625 17.669531
Q 48.271875 18.810937 46.155469 18.810937
Q 44.032031 18.810937 42.834375 17.669531
Q 41.636719 16.525781 41.636719 14.503125
Q 41.636719 12.482812 42.834375 11.341406
Q 44.032031 10.197656 46.155469 10.197656
z
M 58.652344 12.628125
Q 58.307812 12.466406 57.965625 12.391406
Q 57.625781 12.314062 57.28125 12.314062
Q 56.271094 12.314062 55.725 12.963281
Q 55.178906 13.610156 55.178906 14.817187
L 55.178906 18.597656
L 52.558594 18.597656
L 52.558594 10.394531
L 55.178906 10.394531
L 55.178906 11.742187
Q 55.685156 10.935937 56.339062 10.567969
Q 56.995312 10.197656 57.911719 10.197656
Q 58.042969 10.197656 58.195312 10.209375
Q 58.35 10.21875 58.642969 10.25625
L 58.652344 12.628125
z
M 59.955469 10.394531
L 62.575781 10.394531
L 62.575781 18.597656
L 59.955469 18.597656
L 59.955469 10.394531
z
M 59.955469 7.2
L 62.575781 7.2
L 62.575781 9.339844
L 59.955469 9.339844
L 59.955469 7.2
z
M 71.725781 10.65
L 71.725781 12.789844
Q 71.191406 12.424219 70.652344 12.248437
Q 70.113281 12.072656 69.534375 12.072656
Q 68.4375 12.072656 67.825781 12.7125
Q 67.214062 13.352344 67.214062 14.503125
Q 67.214062 15.653906 67.825781 16.296094
Q 68.4375 16.935937 69.534375 16.935937
Q 70.150781 16.935937 70.703906 16.753125
Q 71.257031 16.567969 71.725781 16.209375
L 71.725781 18.35625
Q 71.109375 18.583594 70.476562 18.696094
Q 69.84375 18.810937 69.20625 18.810937
Q 66.986719 18.810937 65.732812 17.671875
Q 64.48125 16.532812 64.48125 14.503125
Q 64.48125 12.473437 65.732812 11.336719
Q 66.986719 10.197656 69.20625 10.197656
Q 69.850781 10.197656 70.476562 10.310156
Q 71.102344 10.422656 71.725781 10.65
z
M 77.664844 14.90625
Q 76.844531 14.90625 76.429687 15.185156
Q 76.017187 15.461719 76.017187 16.005469
Q 76.017187 16.502344 76.35 16.785937
Q 76.685156 17.067187 77.278125 17.067187
Q 78.016406 17.067187 78.522656 16.5375
Q 79.028906 16.005469 79.028906 15.20625
L 79.028906 14.90625
L 77.664844 14.90625
z
M 81.672656 13.917187
L 81.672656 18.597656
L 79.028906 18.597656
L 79.028906 17.38125
Q 78.501562 18.128906 77.840625 18.471094
Q 77.182031 18.810937 76.2375 18.810937
Q 74.9625 18.810937 74.167969 18.067969
Q 73.373437 17.322656 73.373437 16.136719
Q 73.373437 14.692969 74.364844 14.020312
Q 75.358594 13.345312 77.482031 13.345312
L 79.028906 13.345312
L 79.028906 13.141406
Q 79.028906 12.517969 78.536719 12.229687
Q 78.046875 11.939062 77.00625 11.939062
Q 76.164844 11.939062 75.438281 12.107812
Q 74.714062 12.276562 74.090625 12.614062
L 74.090625 10.614844
Q 74.934375 10.408594 75.782812 10.303125
Q 76.633594 10.197656 77.482031 10.197656
Q 79.701562 10.197656 80.685937 11.071875
Q 81.672656 11.946094 81.672656 13.917187
z
M 84.1125 7.2
L 86.732812 7.2
L 86.732812 18.597656
L 84.1125 18.597656
L 84.1125 7.2
z
M 94.476562 7.2
L 97.096875 7.2
L 97.096875 18.597656
L 94.476562 18.597656
L 94.476562 7.2
z
M 103.521094 12.072656
Q 102.649219 12.072656 102.192187 12.698437
Q 101.735156 13.324219 101.735156 14.503125
Q 101.735156 15.682031 102.192187 16.310156
Q 102.649219 16.935937 103.521094 16.935937
Q 104.378906 16.935937 104.83125 16.310156
Q 105.285937 15.682031 105.285937 14.503125
Q 105.285937 13.324219 104.83125 12.698437
Q 104.378906 12.072656 103.521094 12.072656
z
M 103.521094 10.197656
Q 105.6375 10.197656 106.828125 11.341406
Q 108.01875 12.482812 108.01875 14.503125
Q 108.01875 16.525781 106.828125 17.669531
Q 105.6375 18.810937 103.521094 18.810937
Q 101.397656 18.810937 100.2 17.669531
Q 99.002344 16.525781 99.002344 14.503125
Q 99.002344 12.482812 100.2 11.341406
Q 101.397656 10.197656 103.521094 10.197656
z
M 116.552344 10.65
L 116.552344 12.789844
Q 116.017969 12.424219 115.478906 12.248437
Q 114.939844 12.072656 114.360937 12.072656
Q 113.264062 12.072656 112.652344 12.7125
Q 112.040625 13.352344 112.040625 14.503125
Q 112.040625 15.653906 112.652344 16.296094
Q 113.264062 16.935937 114.360937 16.935937
Q 114.977344 16.935937 115.530469 16.753125
Q 116.083594 16.567969 116.552344 16.209375
L 116.552344 18.35625
Q 115.935937 18.583594 115.303125 18.696094
Q 114.670312 18.810937 114.032812 18.810937
Q 111.813281 18.810937 110.559375 17.671875
Q 109.307812 16.532812 109.307812 14.503125
Q 109.307812 12.473437 110.559375 11.336719
Q 111.813281 10.197656 114.032812 10.197656
Q 114.677344 10.197656 115.303125 10.310156
Q 115.928906 10.422656 116.552344 10.65
z
M 122.491406 14.90625
Q 121.671094 14.90625 121.25625 15.185156
Q 120.84375 15.461719 120.84375 16.005469
Q 120.84375 16.502344 121.176562 16.785937
Q 121.511719 17.067187 122.104687 17.067187
Q 122.842969 17.067187 123.349219 16.5375
Q 123.855469 16.005469 123.855469 15.20625
L 123.855469 14.90625
L 122.491406 14.90625
z
M 126.499219 13.917187
L 126.499219 18.597656
L 123.855469 18.597656
L 123.855469 17.38125
Q 123.328125 18.128906 122.667187 18.471094
Q 122.008594 18.810937 121.064062 18.810937
Q 119.789062 18.810937 118.994531 18.067969
Q 118.2 17.322656 118.2 16.136719
Q 118.2 14.692969 119.191406 14.020312
Q 120.185156 13.345312 122.308594 13.345312
L 123.855469 13.345312
L 123.855469 13.141406
Q 123.855469 12.517969 123.363281 12.229687
Q 122.873437 11.939062 121.832812 11.939062
Q 120.991406 11.939062 120.264844 12.107812
Q 119.540625 12.276562 118.917187 12.614062
L 118.917187 10.614844
Q 119.760937 10.408594 120.609375 10.303125
Q 121.460156 10.197656 122.308594 10.197656
Q 124.528125 10.197656 125.5125 11.071875
Q 126.499219 11.946094 126.499219 13.917187
z
M 128.939062 7.2
L 131.559375 7.2
L 131.559375 18.597656
L 128.939062 18.597656
L 128.939062 7.2
z
M 145.710937 10.65
L 145.710937 12.642187
Q 144.869531 12.290625 144.084375 12.114844
Q 143.301562 11.939062 142.605469 11.939062
Q 141.857812 11.939062 141.494531 12.126562
Q 141.133594 12.314062 141.133594 12.700781
Q 141.133594 13.017187 141.407812 13.185937
Q 141.682031 13.352344 142.392187 13.434375
L 142.853906 13.5
Q 144.869531 13.755469 145.563281 14.341406
Q 146.259375 14.927344 146.259375 16.18125
Q 146.259375 17.491406 145.291406 18.152344
Q 144.325781 18.810937 142.408594 18.810937
Q 141.595312 18.810937 140.725781 18.682031
Q 139.858594 18.553125 138.942187 18.297656
L 138.942187 16.305469
Q 139.727344 16.685156 140.55 16.877344
Q 141.375 17.067187 142.223437 17.067187
Q 142.994531 17.067187 143.38125 16.85625
Q 143.770312 16.642969 143.770312 16.223437
Q 143.770312 15.871875 143.503125 15.700781
Q 143.235937 15.529687 142.436719 15.433594
L 141.975 15.375
Q 140.224219 15.154687 139.521094 14.561719
Q 138.817969 13.96875 138.817969 12.759375
Q 138.817969 11.45625 139.710937 10.828125
Q 140.60625 10.197656 142.450781 10.197656
Q 143.177344 10.197656 143.974219 10.307812
Q 144.773437 10.415625 145.710937 10.65
z
M 147.496875 10.394531
L 150.046875 10.394531
L 151.422656 16.047656
L 152.807812 10.394531
L 154.996875 10.394531
L 156.375 15.989062
L 157.757812 10.394531
L 160.307812 10.394531
L 158.146875 18.597656
L 155.282812 18.597656
L 153.897656 12.958594
L 152.521875 18.597656
L 149.657812 18.597656
L 147.496875 10.394531
z
M 170.275781 14.475
L 170.275781 15.220312
L 164.146875 15.220312
Q 164.240625 16.14375 164.8125 16.605469
Q 165.384375 17.067187 166.408594 17.067187
Q 167.235937 17.067187 168.103125 16.821094
Q 168.972656 16.575 169.889062 16.078125
L 169.889062 18.098437
Q 168.958594 18.45 168.028125 18.630469
Q 167.097656 18.810937 166.167187 18.810937
Q 163.940625 18.810937 162.705469 17.678906
Q 161.472656 16.546875 161.472656 14.503125
Q 161.472656 12.496875 162.684375 11.348437
Q 163.896094 10.197656 166.021875 10.197656
Q 167.955469 10.197656 169.115625 11.3625
Q 170.275781 12.525 170.275781 14.475
z
M 167.580469 13.603125
Q 167.580469 12.855469 167.144531 12.398437
Q 166.708594 11.939062 166.005469 11.939062
Q 165.24375 11.939062 164.767969 12.367969
Q 164.292187 12.796875 164.175 13.603125
L 167.580469 13.603125
z
M 180.45 14.475
L 180.45 15.220312
L 174.321094 15.220312
Q 174.414844 16.14375 174.986719 16.605469
Q 175.558594 17.067187 176.582812 17.067187
Q 177.410156 17.067187 178.277344 16.821094
Q 179.146875 16.575 180.063281 16.078125
L 180.063281 18.098437
Q 179.132812 18.45 178.202344 18.630469
Q 177.271875 18.810937 176.341406 18.810937
Q 174.114844 18.810937 172.879687 17.678906
Q 171.646875 16.546875 171.646875 14.503125
Q 171.646875 12.496875 172.858594 11.348437
Q 174.070312 10.197656 176.196094 10.197656
Q 178.129687 10.197656 179.289844 11.3625
Q 180.45 12.525 180.45 14.475
z
M 177.754687 13.603125
Q 177.754687 12.855469 177.31875 12.398437
Q 176.882812 11.939062 176.179687 11.939062
Q 175.417969 11.939062 174.942187 12.367969
Q 174.466406 12.796875 174.349219 13.603125
L 177.754687 13.603125
z
M 185.057812 17.411719
L 185.057812 21.717187
L 182.4375 21.717187
L 182.4375 10.394531
L 185.057812 10.394531
L 185.057812 11.594531
Q 185.601562 10.877344 186.260156 10.5375
Q 186.91875 10.197656 187.776562 10.197656
Q 189.292969 10.197656 190.265625 11.402344
Q 191.240625 12.607031 191.240625 14.503125
Q 191.240625 16.399219 190.265625 17.60625
Q 189.292969 18.810937 187.776562 18.810937
Q 186.91875 18.810937 186.260156 18.471094
Q 185.601562 18.128906 185.057812 17.411719
z
M 186.801562 12.100781
Q 185.960156 12.100781 185.507812 12.719531
Q 185.057812 13.338281 185.057812 14.503125
Q 185.057812 15.667969 185.507812 16.286719
Q 185.960156 16.905469 186.801562 16.905469
Q 187.642969 16.905469 188.085937 16.291406
Q 188.53125 15.675 188.53125 14.503125
Q 188.53125 13.33125 188.085937 12.717187
Q 187.642969 12.100781 186.801562 12.100781
z
M 197.941406 13.544531
L 211.328906 13.544531
L 211.328906 15.433594
L 197.941406 15.433594
L 197.941406 13.544531
z
M 222.520312 12.072656
Q 221.648437 12.072656 221.191406 12.698437
Q 220.734375 13.324219 220.734375 14.503125
Q 220.734375 15.682031 221.191406 16.310156
Q 221.648437 16.935937 222.520312 16.935937
Q 223.378125 16.935937 223.830469 16.310156
Q 224.285156 15.682031 224.285156 14.503125
Q 224.285156 13.324219 223.830469 12.698437
Q 223.378125 12.072656 222.520312 12.072656
z
M 222.520312 10.197656
Q 224.636719 10.197656 225.827344 11.341406
Q 227.017969 12.482812 227.017969 14.503125
Q 227.017969 16.525781 225.827344 17.669531
Q 224.636719 18.810937 222.520312 18.810937
Q 220.396875 18.810937 219.199219 17.669531
Q 218.001562 16.525781 218.001562 14.503125
Q 218.001562 12.482812 219.199219 11.341406
Q 220.396875 10.197656 222.520312 10.197656
z
M 237.16875 13.603125
L 237.16875 18.597656
L 234.532031 18.597656
L 234.532031 17.784375
L 234.532031 14.775
Q 234.532031 13.713281 234.485156 13.310156
Q 234.438281 12.907031 234.321094 12.717187
Q 234.166406 12.459375 233.901562 12.316406
Q 233.639062 12.173437 233.301562 12.173437
Q 232.48125 12.173437 232.0125 12.808594
Q 231.54375 13.441406 231.54375 14.561719
L 231.54375 18.597656
L 228.923437 18.597656
L 228.923437 10.394531
L 231.54375 10.394531
L 231.54375 11.594531
Q 232.136719 10.877344 232.802344 10.5375
Q 233.470312 10.197656 234.276562 10.197656
Q 235.696875 10.197656 236.432812 11.069531
Q 237.16875 11.939062 237.16875 13.603125
z
M 239.601562 7.2
L 242.221875 7.2
L 242.221875 18.597656
L 239.601562 18.597656
L 239.601562 7.2
z
M 243.665625 10.394531
L 246.288281 10.394531
L 248.49375 15.960937
L 250.36875 10.394531
L 252.989062 10.394531
L 249.539062 19.373437
Q 249.021094 20.744531 248.327344 21.288281
Q 247.635937 21.834375 246.501562 21.834375
L 244.985156 21.834375
L 244.985156 20.114062
L 245.805469 20.114062
Q 246.471094 20.114062 246.773437 19.900781
Q 247.078125 19.689844 247.246875 19.139062
L 247.321875 18.911719
L 243.665625 10.394531
z
M 266.151562 10.65
L 266.151562 12.642187
Q 265.310156 12.290625 264.525 12.114844
Q 263.742188 11.939062 263.046094 11.939062
Q 262.298437 11.939062 261.935156 12.126562
Q 261.574219 12.314062 261.574219 12.700781
Q 261.574219 13.017187 261.848437 13.185937
Q 262.122656 13.352344 262.832812 13.434375
L 263.294531 13.5
Q 265.310156 13.755469 266.003906 14.341406
Q 266.7 14.927344 266.7 16.18125
Q 266.7 17.491406 265.732031 18.152344
Q 264.766406 18.810937 262.849219 18.810937
Q 262.035937 18.810937 261.166406 18.682031
Q 260.299219 18.553125 259.382812 18.297656
L 259.382812 16.305469
Q 260.167969 16.685156 260.990625 16.877344
Q 261.815625 17.067187 262.664062 17.067187
Q 263.435156 17.067187 263.821875 16.85625
Q 264.210938 16.642969 264.210938 16.223437
Q 264.210938 15.871875 263.94375 15.700781
Q 263.676562 15.529687 262.877344 15.433594
L 262.415625 15.375
Q 260.664844 15.154687 259.961719 14.561719
Q 259.258594 13.96875 259.258594 12.759375
Q 259.258594 11.45625 260.151562 10.828125
Q 261.046875 10.197656 262.891406 10.197656
Q 263.617969 10.197656 264.414844 10.307812
Q 265.214062 10.415625 266.151562 10.65
z
M 272.346094 14.90625
Q 271.525781 14.90625 271.110937 15.185156
Q 270.698437 15.461719 270.698437 16.005469
Q 270.698437 16.502344 271.03125 16.785937
Q 271.366406 17.067187 271.959375 17.067187
Q 272.697656 17.067187 273.203906 16.5375
Q 273.710156 16.005469 273.710156 15.20625
L 273.710156 14.90625
L 272.346094 14.90625
z
M 276.353906 13.917187
L 276.353906 18.597656
L 273.710156 18.597656
L 273.710156 17.38125
Q 273.182812 18.128906 272.521875 18.471094
Q 271.863281 18.810937 270.91875 18.810937
Q 269.64375 18.810937 268.849219 18.067969
Q 268.054688 17.322656 268.054688 16.136719
Q 268.054688 14.692969 269.046094 14.020312
Q 270.039844 13.345312 272.163281 13.345312
L 273.710156 13.345312
L 273.710156 13.141406
Q 273.710156 12.517969 273.217969 12.229687
Q 272.728125 11.939062 271.6875 11.939062
Q 270.846094 11.939062 270.119531 12.107812
Q 269.395312 12.276562 268.771875 12.614062
L 268.771875 10.614844
Q 269.615625 10.408594 270.464062 10.303125
Q 271.314844 10.197656 272.163281 10.197656
Q 274.382812 10.197656 275.367188 11.071875
Q 276.353906 11.946094 276.353906 13.917187
z
M 286.394531 11.75625
Q 286.89375 10.994531 287.578125 10.596094
Q 288.2625 10.197656 289.082812 10.197656
Q 290.496094 10.197656 291.236719 11.069531
Q 291.977344 11.939062 291.977344 13.603125
L 291.977344 18.597656
L 289.340625 18.597656
L 289.340625 14.320312
Q 289.347656 14.224219 289.35 14.123437
Q 289.354687 14.020312 289.354687 13.830469
Q 289.354687 12.958594 289.096875 12.567187
Q 288.841406 12.173437 288.269531 12.173437
Q 287.524219 12.173437 287.116406 12.789844
Q 286.710938 13.403906 286.694531 14.56875
L 286.694531 18.597656
L 284.057812 18.597656
L 284.057812 14.320312
Q 284.057812 12.958594 283.823437 12.567187
Q 283.589062 12.173437 282.989062 12.173437
Q 282.234375 12.173437 281.824219 12.792187
Q 281.414062 13.410937 281.414062 14.561719
L 281.414062 18.597656
L 278.777344 18.597656
L 278.777344 10.394531
L 281.414062 10.394531
L 281.414062 11.594531
Q 281.899219 10.900781 282.525 10.549219
Q 283.150781 10.197656 283.905469 10.197656
Q 284.753906 10.197656 285.405469 10.607812
Q 286.059375 11.017969 286.394531 11.75625
z
M 297.044531 17.411719
L 297.044531 21.717187
L 294.424219 21.717187
L 294.424219 10.394531
L 297.044531 10.394531
L 297.044531 11.594531
Q 297.588281 10.877344 298.246875 10.5375
Q 298.905469 10.197656 299.763281 10.197656
Q 301.279687 10.197656 302.252344 11.402344
Q 303.227344 12.607031 303.227344 14.503125
Q 303.227344 16.399219 302.252344 17.60625
Q 301.279687 18.810937 299.763281 18.810937
Q 298.905469 18.810937 298.246875 18.471094
Q 297.588281 18.128906 297.044531 17.411719
z
M 298.788281 12.100781
Q 297.946875 12.100781 297.494531 12.719531
Q 297.044531 13.338281 297.044531 14.503125
Q 297.044531 15.667969 297.494531 16.286719
Q 297.946875 16.905469 298.788281 16.905469
Q 299.629687 16.905469 300.072656 16.291406
Q 300.517969 15.675 300.517969 14.503125
Q 300.517969 13.33125 300.072656 12.717187
Q 299.629687 12.100781 298.788281 12.100781
z
M 305.160937 7.2
L 307.78125 7.2
L 307.78125 18.597656
L 305.160937 18.597656
L 305.160937 7.2
z
M 318.489844 14.475
L 318.489844 15.220312
L 312.360937 15.220312
Q 312.454687 16.14375 313.026562 16.605469
Q 313.598437 17.067187 314.622656 17.067187
Q 315.45 17.067187 316.317187 16.821094
Q 317.186719 16.575 318.103125 16.078125
L 318.103125 18.098437
Q 317.172656 18.45 316.242188 18.630469
Q 315.311719 18.810937 314.38125 18.810937
Q 312.154687 18.810937 310.919531 17.678906
Q 309.686719 16.546875 309.686719 14.503125
Q 309.686719 12.496875 310.898438 11.348437
Q 312.110156 10.197656 314.235937 10.197656
Q 316.169531 10.197656 317.329687 11.3625
Q 318.489844 12.525 318.489844 14.475
z
M 315.794531 13.603125
Q 315.794531 12.855469 315.358594 12.398437
Q 314.922656 11.939062 314.219531 11.939062
Q 313.457812 11.939062 312.982031 12.367969
Q 312.50625 12.796875 312.389062 13.603125
L 315.794531 13.603125
z
M 326.057812 11.594531
L 326.057812 7.2
L 328.694531 7.2
L 328.694531 18.597656
L 326.057812 18.597656
L 326.057812 17.411719
Q 325.516406 18.135937 324.8625 18.473437
Q 324.210938 18.810937 323.355469 18.810937
Q 321.839062 18.810937 320.864062 17.60625
Q 319.891406 16.399219 319.891406 14.503125
Q 319.891406 12.607031 320.864062 11.402344
Q 321.839062 10.197656 323.355469 10.197656
Q 324.203906 10.197656 324.860156 10.5375
Q 325.516406 10.877344 326.057812 11.594531
z
M 324.328125 16.905469
Q 325.171875 16.905469 325.614844 16.291406
Q 326.057812 15.675 326.057812 14.503125
Q 326.057812 13.33125 325.614844 12.717187
Q 325.171875 12.100781 324.328125 12.100781
Q 323.49375 12.100781 323.050781 12.717187
Q 322.607812 13.33125 322.607812 14.503125
Q 322.607812 15.675 323.050781 16.291406
Q 323.49375 16.905469 324.328125 16.905469
z
M 336.932812 16.65
L 339.424219 16.65
L 339.424219 9.58125
L 336.867188 10.108594
L 336.867188 8.189062
L 339.407812 7.661719
L 342.089062 7.661719
L 342.089062 16.65
L 344.580469 16.65
L 344.580469 18.597656
L 336.932812 18.597656
L 336.932812 16.65
z
M 352.511719 13.117969
Q 352.511719 11.067187 352.127344 10.230469
Q 351.742969 9.391406 350.833594 9.391406
Q 349.926562 9.391406 349.5375 10.230469
Q 349.148438 11.067187 349.148438 13.117969
Q 349.148438 15.192187 349.5375 16.042969
Q 349.926562 16.891406 350.833594 16.891406
Q 351.735937 16.891406 352.122656 16.042969
Q 352.511719 15.192187 352.511719 13.117969
z
M 355.33125 13.141406
Q 355.33125 15.857812 354.159375 17.334375
Q 352.9875 18.810937 350.833594 18.810937
Q 348.672656 18.810937 347.500781 17.334375
Q 346.328906 15.857812 346.328906 13.141406
Q 346.328906 10.415625 347.500781 8.941406
Q 348.672656 7.464844 350.833594 7.464844
Q 352.9875 7.464844 354.159375 8.941406
Q 355.33125 10.415625 355.33125 13.141406
z
M 357.309375 7.2
L 359.929688 7.2
L 359.929688 13.403906
L 362.948437 10.394531
L 365.995312 10.394531
L 361.9875 14.158594
L 366.309375 18.597656
L 363.13125 18.597656
L 359.929688 15.178125
L 359.929688 18.597656
L 357.309375 18.597656
L 357.309375 7.2
z
M 378.914062 10.65
L 378.914062 12.642187
Q 378.072656 12.290625 377.2875 12.114844
Q 376.504687 11.939062 375.808594 11.939062
Q 375.060937 11.939062 374.697656 12.126562
Q 374.336719 12.314062 374.336719 12.700781
Q 374.336719 13.017187 374.610937 13.185937
Q 374.885156 13.352344 375.595312 13.434375
L 376.057031 13.5
Q 378.072656 13.755469 378.766406 14.341406
Q 379.4625 14.927344 379.4625 16.18125
Q 379.4625 17.491406 378.494531 18.152344
Q 377.528906 18.810937 375.611719 18.810937
Q 374.798437 18.810937 373.928906 18.682031
Q 373.061719 18.553125 372.145312 18.297656
L 372.145312 16.305469
Q 372.930469 16.685156 373.753125 16.877344
Q 374.578125 17.067187 375.426562 17.067187
Q 376.197656 17.067187 376.584375 16.85625
Q 376.973437 16.642969 376.973437 16.223437
Q 376.973437 15.871875 376.70625 15.700781
Q 376.439062 15.529687 375.639844 15.433594
L 375.178125 15.375
Q 373.427344 15.154687 372.724219 14.561719
Q 372.021094 13.96875 372.021094 12.759375
Q 372.021094 11.45625 372.914062 10.828125
Q 373.809375 10.197656 375.653906 10.197656
Q 376.380469 10.197656 377.177344 10.307812
Q 377.976562 10.415625 378.914062 10.65
z
M 389.620312 14.475
L 389.620312 15.220312
L 383.491406 15.220312
Q 383.585156 16.14375 384.157031 16.605469
Q 384.728906 17.067187 385.753125 17.067187
Q 386.580469 17.067187 387.447656 16.821094
Q 388.317187 16.575 389.233594 16.078125
L 389.233594 18.098437
Q 388.303125 18.45 387.372656 18.630469
Q 386.442187 18.810937 385.511719 18.810937
Q 383.285156 18.810937 382.05 17.678906
Q 380.817187 16.546875 380.817187 14.503125
Q 380.817187 12.496875 382.028906 11.348437
Q 383.240625 10.197656 385.366406 10.197656
Q 387.3 10.197656 388.460156 11.3625
Q 389.620312 12.525 389.620312 14.475
z
M 386.925 13.603125
Q 386.925 12.855469 386.489062 12.398437
Q 386.053125 11.939062 385.35 11.939062
Q 384.588281 11.939062 384.1125 12.367969
Q 383.636719 12.796875 383.519531 13.603125
L 386.925 13.603125
z
M 397.701562 12.628125
Q 397.357031 12.466406 397.014844 12.391406
Q 396.675 12.314062 396.330469 12.314062
Q 395.320312 12.314062 394.774219 12.963281
Q 394.228125 13.610156 394.228125 14.817187
L 394.228125 18.597656
L 391.607812 18.597656
L 391.607812 10.394531
L 394.228125 10.394531
L 394.228125 11.742187
Q 394.734375 10.935937 395.388281 10.567969
Q 396.044531 10.197656 396.960938 10.197656
Q 397.092187 10.197656 397.244531 10.209375
Q 397.399219 10.21875 397.692187 10.25625
L 397.701562 12.628125
z
M 399.004687 10.394531
L 401.625 10.394531
L 401.625 18.597656
L 399.004687 18.597656
L 399.004687 10.394531
z
M 399.004687 7.2
L 401.625 7.2
L 401.625 9.339844
L 399.004687 9.339844
L 399.004687 7.2
z
M 412.333594 14.475
L 412.333594 15.220312
L 406.204687 15.220312
Q 406.298437 16.14375 406.870312 16.605469
Q 407.442187 17.067187 408.466406 17.067187
Q 409.29375 17.067187 410.160937 16.821094
Q 411.030469 16.575 411.946875 16.078125
L 411.946875 18.098437
Q 411.016406 18.45 410.085938 18.630469
Q 409.155469 18.810937 408.225 18.810937
Q 405.998437 18.810937 404.763281 17.678906
Q 403.530469 16.546875 403.530469 14.503125
Q 403.530469 12.496875 404.742188 11.348437
Q 405.953906 10.197656 408.079687 10.197656
Q 410.013281 10.197656 411.173437 11.3625
Q 412.333594 12.525 412.333594 14.475
z
M 409.638281 13.603125
Q 409.638281 12.855469 409.202344 12.398437
Q 408.766406 11.939062 408.063281 11.939062
Q 407.301562 11.939062 406.825781 12.367969
Q 406.35 12.796875 406.232812 13.603125
L 409.638281 13.603125
z
M 420.728906 10.65
L 420.728906 12.642187
Q 419.8875 12.290625 419.102344 12.114844
Q 418.319531 11.939062 417.623437 11.939062
Q 416.875781 11.939062 416.5125 12.126562
Q 416.151562 12.314062 416.151562 12.700781
Q 416.151562 13.017187 416.425781 13.185937
Q 416.7 13.352344 417.410156 13.434375
L 417.871875 13.5
Q 419.8875 13.755469 420.58125 14.341406
Q 421.277344 14.927344 421.277344 16.18125
Q 421.277344 17.491406 420.309375 18.152344
Q 419.34375 18.810937 417.426562 18.810937
Q 416.613281 18.810937 415.74375 18.682031
Q 414.876562 18.553125 413.960156 18.297656
L 413.960156 16.305469
Q 414.745312 16.685156 415.567969 16.877344
Q 416.392969 17.067187 417.241406 17.067187
Q 418.0125 17.067187 418.399219 16.85625
Q 418.788281 16.642969 418.788281 16.223437
Q 418.788281 15.871875 418.521094 15.700781
Q 418.253906 15.529687 417.454687 15.433594
L 416.992969 15.375
Q 415.242188 15.154687 414.539062 14.561719
Q 413.835938 13.96875 413.835938 12.759375
Q 413.835938 11.45625 414.728906 10.828125
Q 415.624219 10.197656 417.46875 10.197656
Q 418.195312 10.197656 418.992188 10.307812
Q 419.791406 10.415625 420.728906 10.65
z
M 435.098437 10.65
L 435.098437 12.789844
Q 434.564062 12.424219 434.025 12.248437
Q 433.485937 12.072656 432.907031 12.072656
Q 431.810156 12.072656 431.198437 12.7125
Q 430.586719 13.352344 430.586719 14.503125
Q 430.586719 15.653906 431.198437 16.296094
Q 431.810156 16.935937 432.907031 16.935937
Q 433.523438 16.935937 434.076562 16.753125
Q 434.629687 16.567969 435.098437 16.209375
L 435.098437 18.35625
Q 434.482031 18.583594 433.849219 18.696094
Q 433.216406 18.810937 432.578906 18.810937
Q 430.359375 18.810937 429.105469 17.671875
Q 427.853906 16.532812 427.853906 14.503125
Q 427.853906 12.473437 429.105469 11.336719
Q 430.359375 10.197656 432.578906 10.197656
Q 433.223437 10.197656 433.849219 10.310156
Q 434.475 10.422656 435.098437 10.65
z
M 443.45625 12.628125
Q 443.111719 12.466406 442.769531 12.391406
Q 442.429688 12.314062 442.085156 12.314062
Q 441.075 12.314062 440.528906 12.963281
Q 439.982812 13.610156 439.982812 14.817187
L 439.982812 18.597656
L 437.3625 18.597656
L 437.3625 10.394531
L 439.982812 10.394531
L 439.982812 11.742187
Q 440.489062 10.935937 441.142969 10.567969
Q 441.799219 10.197656 442.715625 10.197656
Q 442.846875 10.197656 442.999219 10.209375
Q 443.153906 10.21875 443.446875 10.25625
L 443.45625 12.628125
z
M 448.661719 12.072656
Q 447.789844 12.072656 447.332812 12.698437
Q 446.875781 13.324219 446.875781 14.503125
Q 446.875781 15.682031 447.332812 16.310156
Q 447.789844 16.935937 448.661719 16.935937
Q 449.519531 16.935937 449.971875 16.310156
Q 450.426562 15.682031 450.426562 14.503125
Q 450.426562 13.324219 449.971875 12.698437
Q 449.519531 12.072656 448.661719 12.072656
z
M 448.661719 10.197656
Q 450.778125 10.197656 451.96875 11.341406
Q 453.159375 12.482812 453.159375 14.503125
Q 453.159375 16.525781 451.96875 17.669531
Q 450.778125 18.810937 448.661719 18.810937
Q 446.538281 18.810937 445.340625 17.669531
Q 444.142969 16.525781 444.142969 14.503125
Q 444.142969 12.482812 445.340625 11.341406
Q 446.538281 10.197656 448.661719 10.197656
z
M 461.472656 10.65
L 461.472656 12.642187
Q 460.63125 12.290625 459.846094 12.114844
Q 459.063281 11.939062 458.367188 11.939062
Q 457.619531 11.939062 457.25625 12.126562
Q 456.895312 12.314062 456.895312 12.700781
Q 456.895312 13.017187 457.169531 13.185937
Q 457.44375 13.352344 458.153906 13.434375
L 458.615625 13.5
Q 460.63125 13.755469 461.325 14.341406
Q 462.021094 14.927344 462.021094 16.18125
Q 462.021094 17.491406 461.053125 18.152344
Q 460.0875 18.810937 458.170312 18.810937
Q 457.357031 18.810937 456.4875 18.682031
Q 455.620312 18.553125 454.703906 18.297656
L 454.703906 16.305469
Q 455.489062 16.685156 456.311719 16.877344
Q 457.136719 17.067187 457.985156 17.067187
Q 458.75625 17.067187 459.142969 16.85625
Q 459.532031 16.642969 459.532031 16.223437
Q 459.532031 15.871875 459.264844 15.700781
Q 458.997656 15.529687 458.198437 15.433594
L 457.736719 15.375
Q 455.985937 15.154687 455.282812 14.561719
Q 454.579687 13.96875 454.579687 12.759375
Q 454.579687 11.45625 455.472656 10.828125
Q 456.367969 10.197656 458.2125 10.197656
Q 458.939062 10.197656 459.735937 10.307812
Q 460.535156 10.415625 461.472656 10.65
z
M 470.4 10.65
L 470.4 12.642187
Q 469.558594 12.290625 468.773437 12.114844
Q 467.990625 11.939062 467.294531 11.939062
Q 466.546875 11.939062 466.183594 12.126562
Q 465.822656 12.314062 465.822656 12.700781
Q 465.822656 13.017187 466.096875 13.185937
Q 466.371094 13.352344 467.08125 13.434375
L 467.542969 13.5
Q 469.558594 13.755469 470.252344 14.341406
Q 470.948437 14.927344 470.948437 16.18125
Q 470.948437 17.491406 469.980469 18.152344
Q 469.014844 18.810937 467.097656 18.810937
Q 466.284375 18.810937 465.414844 18.682031
Q 464.547656 18.553125 463.63125 18.297656
L 463.63125 16.305469
Q 464.416406 16.685156 465.239062 16.877344
Q 466.064062 17.067187 466.9125 17.067187
Q 467.683594 17.067187 468.070312 16.85625
Q 468.459375 16.642969 468.459375 16.223437
Q 468.459375 15.871875 468.192187 15.700781
Q 467.925 15.529687 467.125781 15.433594
L 466.664062 15.375
Q 464.913281 15.154687 464.210156 14.561719
Q 463.507031 13.96875 463.507031 12.759375
Q 463.507031 11.45625 464.4 10.828125
Q 465.295312 10.197656 467.139844 10.197656
Q 467.866406 10.197656 468.663281 10.307812
Q 469.4625 10.415625 470.4 10.65
z
M 481.10625 14.475
L 481.10625 15.220312
L 474.977344 15.220312
Q 475.071094 16.14375 475.642969 16.605469
Q 476.214844 17.067187 477.239062 17.067187
Q 478.066406 17.067187 478.933594 16.821094
Q 479.803125 16.575 480.719531 16.078125
L 480.719531 18.098437
Q 479.789062 18.45 478.858594 18.630469
Q 477.928125 18.810937 476.997656 18.810937
Q 474.771094 18.810937 473.535937 17.678906
Q 472.303125 16.546875 472.303125 14.503125
Q 472.303125 12.496875 473.514844 11.348437
Q 474.726562 10.197656 476.852344 10.197656
Q 478.785937 10.197656 479.946094 11.3625
Q 481.10625 12.525 481.10625 14.475
z
M 478.410937 13.603125
Q 478.410937 12.855469 477.975 12.398437
Q 477.539062 11.939062 476.835937 11.939062
Q 476.074219 11.939062 475.598437 12.367969
Q 475.122656 12.796875 475.005469 13.603125
L 478.410937 13.603125
z
M 489.501562 10.65
L 489.501562 12.642187
Q 488.660156 12.290625 487.875 12.114844
Q 487.092187 11.939062 486.396094 11.939062
Q 485.648437 11.939062 485.285156 12.126562
Q 484.924219 12.314062 484.924219 12.700781
Q 484.924219 13.017187 485.198437 13.185937
Q 485.472656 13.352344 486.182812 13.434375
L 486.644531 13.5
Q 488.660156 13.755469 489.353906 14.341406
Q 490.05 14.927344 490.05 16.18125
Q 490.05 17.491406 489.082031 18.152344
Q 488.116406 18.810937 486.199219 18.810937
Q 485.385937 18.810937 484.516406 18.682031
Q 483.649219 18.553125 482.732812 18.297656
L 482.732812 16.305469
Q 483.517969 16.685156 484.340625 16.877344
Q 485.165625 17.067187 486.014062 17.067187
Q 486.785156 17.067187 487.171875 16.85625
Q 487.560937 16.642969 487.560937 16.223437
Q 487.560937 15.871875 487.29375 15.700781
Q 487.026562 15.529687 486.227344 15.433594
L 485.765625 15.375
Q 484.014844 15.154687 483.311719 14.561719
Q 482.608594 13.96875 482.608594 12.759375
Q 482.608594 11.45625 483.501562 10.828125
Q 484.396875 10.197656 486.241406 10.197656
Q 486.967969 10.197656 487.764844 10.307812
Q 488.564062 10.415625 489.501562 10.65
z
M 503.336719 12.628125
Q 502.992187 12.466406 502.65 12.391406
Q 502.310156 12.314062 501.965625 12.314062
Q 500.955469 12.314062 500.409375 12.963281
Q 499.863281 13.610156 499.863281 14.817187
L 499.863281 18.597656
L 497.242969 18.597656
L 497.242969 10.394531
L 499.863281 10.394531
L 499.863281 11.742187
Q 500.369531 10.935937 501.023437 10.567969
Q 501.679687 10.197656 502.596094 10.197656
Q 502.727344 10.197656 502.879687 10.209375
Q 503.034375 10.21875 503.327344 10.25625
L 503.336719 12.628125
z
M 507.501562 8.064844
L 507.501562 10.394531
L 510.20625 10.394531
L 510.20625 12.269531
L 507.501562 12.269531
L 507.501562 15.747656
Q 507.501562 16.319531 507.728906 16.521094
Q 507.95625 16.722656 508.63125 16.722656
L 509.978906 16.722656
L 509.978906 18.597656
L 507.728906 18.597656
Q 506.177344 18.597656 505.528125 17.950781
Q 504.88125 17.301562 504.88125 15.747656
L 504.88125 12.269531
L 503.575781 12.269531
L 503.575781 10.394531
L 504.88125 10.394531
L 504.88125 8.064844
L 507.501562 8.064844
z
M 512.1375 11.369531
L 521.526562 11.369531
L 521.526562 13.089844
L 512.1375 13.089844
L 512.1375 11.369531
z
M 512.1375 14.7
L 521.526562 14.7
L 521.526562 16.436719
L 512.1375 16.436719
L 512.1375 14.7
z
M 524.875781 16.65
L 527.367188 16.65
L 527.367188 9.58125
L 524.810156 10.108594
L 524.810156 8.189062
L 527.350781 7.661719
L 530.032031 7.661719
L 530.032031 16.65
L 532.523438 16.65
L 532.523438 18.597656
L 524.875781 18.597656
L 524.875781 16.65
z
" style="fill: #c9d1d9"/>
   </g>
   <g id="line2d_37">
    <path d="M 73.587001 189.51737
L 171.543282 166.731341
L 269.499562 138.593302
L 367.455842 111.736797
L 465.412123 106.304792
" clip-path="url(#p87044606a0)" style="fill: none; stroke-dasharray: 5.92,2.56; stroke-dashoffset: 0; stroke: #e8783c; stroke-opacity: 0.85; stroke-width: 1.6"/>
    <defs>
     <path id="m7d094edece" d="M -3 3
L 3 3
L 3 -3
L -3 -3
z
" style="stroke: #e8783c; stroke-opacity: 0.85; stroke-linejoin: miter"/>
    </defs>
    <g clip-path="url(#p87044606a0)">
     <use xlink:href="#m7d094edece" x="73.587001" y="189.51737" style="fill: #e8783c; fill-opacity: 0.85; stroke: #e8783c; stroke-opacity: 0.85; stroke-linejoin: miter"/>
     <use xlink:href="#m7d094edece" x="171.543282" y="166.731341" style="fill: #e8783c; fill-opacity: 0.85; stroke: #e8783c; stroke-opacity: 0.85; stroke-linejoin: miter"/>
     <use xlink:href="#m7d094edece" x="269.499562" y="138.593302" style="fill: #e8783c; fill-opacity: 0.85; stroke: #e8783c; stroke-opacity: 0.85; stroke-linejoin: miter"/>
     <use xlink:href="#m7d094edece" x="367.455842" y="111.736797" style="fill: #e8783c; fill-opacity: 0.85; stroke: #e8783c; stroke-opacity: 0.85; stroke-linejoin: miter"/>
     <use xlink:href="#m7d094edece" x="465.412123" y="106.304792" style="fill: #e8783c; fill-opacity: 0.85; stroke: #e8783c; stroke-opacity: 0.85; stroke-linejoin: miter"/>
    </g>
   </g>
   <g id="line2d_38">
    <path d="M 73.587001 219.732443
L 171.543282 190.601711
L 269.499562 165.092055
L 367.455842 141.20474
L 465.412123 131.751578
" clip-path="url(#p87044606a0)" style="fill: none; stroke: #33c295; stroke-opacity: 0.85; stroke-width: 1.6; stroke-linecap: square"/>
    <defs>
     <path id="mb0855549a2" d="M 0 -3
L -3 3
L 3 3
z
" style="stroke: #33c295; stroke-opacity: 0.85; stroke-linejoin: miter"/>
    </defs>
    <g clip-path="url(#p87044606a0)">
     <use xlink:href="#mb0855549a2" x="73.587001" y="219.732443" style="fill: #33c295; fill-opacity: 0.85; stroke: #33c295; stroke-opacity: 0.85; stroke-linejoin: miter"/>
     <use xlink:href="#mb0855549a2" x="171.543282" y="190.601711" style="fill: #33c295; fill-opacity: 0.85; stroke: #33c295; stroke-opacity: 0.85; stroke-linejoin: miter"/>
     <use xlink:href="#mb0855549a2" x="269.499562" y="165.092055" style="fill: #33c295; fill-opacity: 0.85; stroke: #33c295; stroke-opacity: 0.85; stroke-linejoin: miter"/>
     <use xlink:href="#mb0855549a2" x="367.455842" y="141.20474" style="fill: #33c295; fill-opacity: 0.85; stroke: #33c295; stroke-opacity: 0.85; stroke-linejoin: miter"/>
     <use xlink:href="#mb0855549a2" x="465.412123" y="131.751578" style="fill: #33c295; fill-opacity: 0.85; stroke: #33c295; stroke-opacity: 0.85; stroke-linejoin: miter"/>
    </g>
   </g>
   <g id="line2d_39">
    <path d="M 73.587001 246.769195
L 171.543282 222.34388
L 269.499562 196.588661
L 367.455842 172.163346
L 465.412123 162.518775
" clip-path="url(#p87044606a0)" style="fill: none; stroke-dasharray: 10.24,2.56,1.6,2.56; stroke-dashoffset: 0; stroke: #e08cbf; stroke-opacity: 0.85; stroke-width: 1.6"/>
    <defs>
     <path id="m722cf043b7" d="M -0 4.242641
L 4.242641 0
L 0 -4.242641
L -4.242641 -0
z
" style="stroke: #e08cbf; stroke-opacity: 0.85; stroke-linejoin: miter"/>
    </defs>
    <g clip-path="url(#p87044606a0)">
     <use xlink:href="#m722cf043b7" x="73.587001" y="246.769195" style="fill: #e08cbf; fill-opacity: 0.85; stroke: #e08cbf; stroke-opacity: 0.85; stroke-linejoin: miter"/>
     <use xlink:href="#m722cf043b7" x="171.543282" y="222.34388" style="fill: #e08cbf; fill-opacity: 0.85; stroke: #e08cbf; stroke-opacity: 0.85; stroke-linejoin: miter"/>
     <use xlink:href="#m722cf043b7" x="269.499562" y="196.588661" style="fill: #e08cbf; fill-opacity: 0.85; stroke: #e08cbf; stroke-opacity: 0.85; stroke-linejoin: miter"/>
     <use xlink:href="#m722cf043b7" x="367.455842" y="172.163346" style="fill: #e08cbf; fill-opacity: 0.85; stroke: #e08cbf; stroke-opacity: 0.85; stroke-linejoin: miter"/>
     <use xlink:href="#m722cf043b7" x="465.412123" y="162.518775" style="fill: #e08cbf; fill-opacity: 0.85; stroke: #e08cbf; stroke-opacity: 0.85; stroke-linejoin: miter"/>
    </g>
   </g>
   <g id="line2d_40">
    <path d="M 73.587001 109.46257
L 171.543282 85.5922
L 269.499562 63.478421
L 367.455842 44.709797
L 465.412123 42.666426
" clip-path="url(#p87044606a0)" style="fill: none; stroke: #56b4e9; stroke-width: 2.2; stroke-linecap: square"/>
    <defs>
     <path id="m911fe6dc4f" d="M 0 3
C 0.795609 3 1.55874 2.683901 2.12132 2.12132
C 2.683901 1.55874 3 0.795609 3 0
C 3 -0.795609 2.683901 -1.55874 2.12132 -2.12132
C 1.55874 -2.683901 0.795609 -3 0 -3
C -0.795609 -3 -1.55874 -2.683901 -2.12132 -2.12132
C -2.683901 -1.55874 -3 -0.795609 -3 0
C -3 0.795609 -2.683901 1.55874 -2.12132 2.12132
C -1.55874 2.683901 -0.795609 3 0 3
z
" style="stroke: #56b4e9"/>
    </defs>
    <g clip-path="url(#p87044606a0)">
     <use xlink:href="#m911fe6dc4f" x="73.587001" y="109.46257" style="fill: #56b4e9; stroke: #56b4e9"/>
     <use xlink:href="#m911fe6dc4f" x="171.543282" y="85.5922" style="fill: #56b4e9; stroke: #56b4e9"/>
     <use xlink:href="#m911fe6dc4f" x="269.499562" y="63.478421" style="fill: #56b4e9; stroke: #56b4e9"/>
     <use xlink:href="#m911fe6dc4f" x="367.455842" y="44.709797" style="fill: #56b4e9; stroke: #56b4e9"/>
     <use xlink:href="#m911fe6dc4f" x="465.412123" y="42.666426" style="fill: #56b4e9; stroke: #56b4e9"/>
    </g>
   </g>
   <g id="line2d_41">
    <defs>
     <path id="m2454e0b254" d="M 0 4.5
C 1.193414 4.5 2.338109 4.025852 3.181981 3.181981
C 4.025852 2.338109 4.5 1.193414 4.5 0
C 4.5 -1.193414 4.025852 -2.338109 3.181981 -3.181981
C 2.338109 -4.025852 1.193414 -4.5 0 -4.5
C -1.193414 -4.5 -2.338109 -4.025852 -3.181981 -3.181981
C -4.025852 -2.338109 -4.5 -1.193414 -4.5 0
C -4.5 1.193414 -4.025852 2.338109 -3.181981 3.181981
C -2.338109 4.025852 -1.193414 4.5 0 4.5
z
" style="stroke: #56b4e9"/>
    </defs>
    <g clip-path="url(#p87044606a0)">
     <use xlink:href="#m2454e0b254" x="269.499562" y="63.478421" style="fill: #56b4e9; stroke: #56b4e9"/>
    </g>
   </g>
   <g id="line2d_42">
    <g clip-path="url(#p87044606a0)">
     <use xlink:href="#m2454e0b254" x="367.455842" y="44.709797" style="fill: #56b4e9; stroke: #56b4e9"/>
    </g>
   </g>
   <g id="line2d_43">
    <g clip-path="url(#p87044606a0)">
     <use xlink:href="#m2454e0b254" x="465.412123" y="42.666426" style="fill: #56b4e9; stroke: #56b4e9"/>
    </g>
   </g>
   <g id="text_12">
    <text style="font-weight: 700; font-size: 9px; font-family: 'DejaVu Sans'; text-anchor: start; fill: #56b4e9" x="471.412123" y="41.004668" transform="rotate(-0 471.412123 41.004668)">N=10k · 2.13× @ 16 threads</text>
   </g>
   <g id="text_13">
    <text style="font-size: 9px; font-family: 'DejaVu Sans'; text-anchor: start; fill: #e8783c" x="471.412123" y="108.643034" transform="rotate(-0 471.412123 108.643034)">N=50k</text>
   </g>
   <g id="text_14">
    <text style="font-size: 9px; font-family: 'DejaVu Sans'; text-anchor: start; fill: #33c295" x="471.412123" y="134.08982" transform="rotate(-0 471.412123 134.08982)">N=100k</text>
   </g>
   <g id="text_15">
    <text style="font-size: 9px; font-family: 'DejaVu Sans'; text-anchor: start; fill: #e08cbf" x="471.412123" y="164.857017" transform="rotate(-0 471.412123 164.857017)">N=200k</text>
   </g>
   <g id="text_16">
    <text style="font-size: 9px; font-family: 'DejaVu Sans'; text-anchor: end; fill: #8b949e" x="465.412123" y="67.148755" transform="rotate(-0 465.412123 67.148755)">  real-time (rt = 1.0)</text>
   </g>
   <g id="line2d_44">
    <defs>
     <path id="ma2faaef1b6" d="M 0 5
C 1.326016 5 2.597899 4.473168 3.535534 3.535534
C 4.473168 2.597899 5 1.326016 5 0
C 5 -1.326016 4.473168 -2.597899 3.535534 -3.535534
C 2.597899 -4.473168 1.326016 -5 0 -5
C -1.326016 -5 -2.597899 -4.473168 -3.535534 -3.535534
C -4.473168 -2.597899 -5 -1.326016 -5 0
C -5 1.326016 -4.473168 2.597899 -3.535534 3.535534
C -2.597899 4.473168 -1.326016 5 0 5
z
" style="stroke: #8b949e; stroke-width: 1.5"/>
    </defs>
    <g clip-path="url(#p87044606a0)">
     <use xlink:href="#ma2faaef1b6" x="465.412123" y="69.310865" style="fill-opacity: 0; stroke: #8b949e; stroke-width: 1.5"/>
    </g>
   </g>
   <g id="text_17">
    <text style="font-size: 8px; font-family: 'DejaVu Sans'; text-anchor: start; fill: #8b949e" x="66.33818" y="257.030811" transform="rotate(-0 66.33818 257.030811)">rt normalized per bio-time (N=200k used T_bio=500 ms)</text>
   </g>
   <g id="patch_6">
    <path d="M 294.511013 115.1008
Q 378.995398 92.4647 462.399842 70.117952
" style="fill: none; stroke: #8b949e; stroke-linecap: round"/>
    <path d="M 458.675714 69.355805
L 462.399842 70.117952
L 459.555647 72.639966
" style="fill: none; stroke: #8b949e; stroke-linecap: round"/>
   </g>
   <g id="text_18">
    <g id="patch_7">
     <path d="M 171.543282 141.524245
L 315.429688 141.524245
Q 317.979688 141.524245 317.979688 138.974245
L 317.979688 118.569597
Q 317.979688 116.019597 315.429688 116.019597
L 171.543282 116.019597
Q 168.993282 116.019597 168.993282 118.569597
L 168.993282 138.974245
Q 168.993282 141.524245 171.543282 141.524245
z
" style="fill: #0d1117; opacity: 0.95; stroke: #8b949e; stroke-width: 0.8; stroke-linejoin: miter"/>
    </g>
    <text style="font-size: 8.5px; font-family: 'DejaVu Sans'; fill: #8b949e" transform="translate(171.543282 125.879099)">~17–20k crossing:</text>
    <text style="font-size: 8.5px; font-family: 'DejaVu Sans'; fill: #8b949e" transform="translate(171.543282 136.081423)">interpolated (no sample 10k–50k)</text>
   </g>
  </g>
  <g id="text_19">
   <text style="font-style: italic; font-size: 8px; font-family: 'DejaVu Sans'; text-anchor: middle; fill: #8b949e" x="274.697344" y="309.907781" transform="rotate(-0 274.697344 309.907781)">HISTORICAL LOCAL RUN — NOT RELEASE-BOUND · NEST 3.8.0 · OpenMP · 16 cores · ~500 syn/neuron · ~13 Hz async-irregular</text>
  </g>
 </g>
 <defs>
  <clipPath id="p87044606a0">
   <rect x="58.697344" y="30.597656" width="423.36" height="233.28"/>
  </clipPath>
 </defs>
</svg>
