<svg xmlns="http://www.w3.org/2000/svg" width="820" height="520" viewBox="0 0 820 520" font-family="-apple-system, BlinkMacSystemFont, 'Segoe UI', 'Noto Sans', Helvetica, Arial, sans-serif" role="img"><defs>
  <linearGradient id="pageBg" x1="0" y1="0" x2="0" y2="1">
    <stop offset="0" stop-color="#11161d"/><stop offset="1" stop-color="#0d1117"/>
  </linearGradient>
  <linearGradient id="surface" x1="0" y1="0" x2="0" y2="1">
    <stop offset="0" stop-color="#161b22"/><stop offset="1" stop-color="#11161d"/>
  </linearGradient>
  <linearGradient id="busAction" x1="0" y1="0" x2="1" y2="0"><stop offset="0" stop-color="#e8783c" stop-opacity="0.85"/><stop offset="0.5" stop-color="#ff8a4c" stop-opacity="1"/><stop offset="1" stop-color="#e8783c" stop-opacity="0.85"/></linearGradient>
  <linearGradient id="contractHero" x1="0" y1="0" x2="1" y2="1">
    <stop offset="0" stop-color="#a78bfa"/><stop offset="1" stop-color="#7c3aed"/>
  </linearGradient>
  <radialGradient id="gridDot" cx="0.5" cy="0.5" r="0.5">
    <stop offset="0" stop-color="#8b949e" stop-opacity="0.5"/>
    <stop offset="1" stop-color="#8b949e" stop-opacity="0"/>
  </radialGradient>
  <pattern id="grid" width="22" height="22" patternUnits="userSpaceOnUse">
    <circle cx="2" cy="2" r="1.4" fill="url(#gridDot)"/>
  </pattern>
  <pattern id="gridMajor" width="110" height="110" patternUnits="userSpaceOnUse">
    <path d="M110 0H0V110" fill="none" stroke="#8b949e" stroke-width="0.75" stroke-opacity="0.22"/>
  </pattern>
  <filter id="soft" x="-40%" y="-40%" width="180%" height="180%" color-interpolation-filters="sRGB">
    <feDropShadow dx="0" dy="4" stdDeviation="7" flood-color="#05070b" flood-opacity="0.6"/>
  </filter>
  <filter id="halo" x="-60%" y="-60%" width="220%" height="220%" color-interpolation-filters="sRGB">
    <feGaussianBlur stdDeviation="3"/>
  </filter>
  <filter id="glow" x="-90%" y="-90%" width="280%" height="280%" color-interpolation-filters="sRGB">
    <feGaussianBlur in="SourceGraphic" stdDeviation="3.4" result="b"/>
    <feFlood flood-color="#ff8a4c" flood-opacity="0.9"/>
    <feComposite in2="b" operator="in" result="g"/>
    <feMerge><feMergeNode in="g"/><feMergeNode in="g"/><feMergeNode in="SourceGraphic"/></feMerge>
  </filter>
  <marker id="arrowAction" markerUnits="userSpaceOnUse" markerWidth="12" markerHeight="12" refX="9" refY="5.5" orient="auto"><path d="M1,1 L9,5.5 L1,10 Z" fill="#e8783c"/></marker>
  <marker id="arrowControl" markerUnits="userSpaceOnUse" markerWidth="12" markerHeight="12" refX="9" refY="5.5" orient="auto"><path d="M1,1 L9,5.5 L1,10 Z" fill="#3a9ad9"/></marker>
  <marker id="replyControl" markerUnits="userSpaceOnUse" markerWidth="12" markerHeight="12" refX="9" refY="5.5" orient="auto"><path d="M2,1.5 L9,5.5 L2,9.5" fill="none" stroke="#3a9ad9" stroke-width="1.7" stroke-linecap="round" stroke-linejoin="round"/></marker>
  <marker id="arrowPercep" markerUnits="userSpaceOnUse" markerWidth="12" markerHeight="12" refX="9" refY="5.5" orient="auto"><path d="M1,1 L9,5.5 L1,10 Z" fill="#56b4e9"/></marker>
  <marker id="tapObserve" markerUnits="userSpaceOnUse" markerWidth="10" markerHeight="10" refX="5" refY="5" orient="auto"><circle cx="5" cy="5" r="3.2" fill="none" stroke="#8b949e" stroke-width="1.5"/></marker>
  <marker id="arrowContract" markerUnits="userSpaceOnUse" markerWidth="12" markerHeight="12" refX="9" refY="5.5" orient="auto"><path d="M1,1 L9,5.5 L1,10 Z" fill="#a78bfa"/></marker>
  <marker id="submoduleArrow" markerUnits="userSpaceOnUse" markerWidth="12" markerHeight="12" refX="9" refY="5.5" orient="auto"><path d="M2,1.5 L9,5.5 L2,9.5" fill="none" stroke="#8b949e" stroke-width="1.7" stroke-linecap="round" stroke-linejoin="round"/></marker>
  <marker id="arrowActive" markerUnits="userSpaceOnUse" markerWidth="12" markerHeight="12" refX="9" refY="5.5" orient="auto"><path d="M1,1 L9,5.5 L1,10 Z" fill="#33c295"/></marker>
  <marker id="arrowEstop" markerUnits="userSpaceOnUse" markerWidth="12" markerHeight="12" refX="9" refY="5.5" orient="auto"><path d="M1,1 L9,5.5 L1,10 Z" fill="#e8783c" stroke="#ffd9c2" stroke-width="0.6"/></marker>
  <marker id="arrowHold" markerUnits="userSpaceOnUse" markerWidth="12" markerHeight="12" refX="9" refY="5.5" orient="auto"><path d="M1,1 L9,5.5 L1,10 Z" fill="#f0b429"/></marker>
  <marker id="arrowMut" markerUnits="userSpaceOnUse" markerWidth="12" markerHeight="12" refX="9" refY="5.5" orient="auto"><path d="M1,1 L9,5.5 L1,10 Z" fill="#8b949e"/></marker>
  <marker id="arrowConfig" markerUnits="userSpaceOnUse" markerWidth="12" markerHeight="12" refX="9" refY="5.5" orient="auto"><path d="M1,1 L9,5.5 L1,10 Z" fill="#e08cbf"/></marker>
  <filter id="glowContract" x="-90%" y="-90%" width="280%" height="280%" color-interpolation-filters="sRGB">
    <feGaussianBlur in="SourceGraphic" stdDeviation="3.4" result="b"/>
    <feFlood flood-color="#a78bfa" flood-opacity="0.9"/>
    <feComposite in2="b" operator="in" result="g"/>
    <feMerge><feMergeNode in="g"/><feMergeNode in="g"/><feMergeNode in="SourceGraphic"/></feMerge>
  </filter>
  <filter id="glowActive" x="-90%" y="-90%" width="280%" height="280%" color-interpolation-filters="sRGB">
    <feGaussianBlur in="SourceGraphic" stdDeviation="3.4" result="b"/>
    <feFlood flood-color="#33c295" flood-opacity="0.9"/>
    <feComposite in2="b" operator="in" result="g"/>
    <feMerge><feMergeNode in="g"/><feMergeNode in="g"/><feMergeNode in="SourceGraphic"/></feMerge>
  </filter>
</defs><rect x="0" y="0" width="820" height="520" rx="0" fill="url(#pageBg)"/><rect x="0" y="0" width="820" height="520" rx="0" fill="url(#gridMajor)"/><rect x="0" y="0" width="820" height="520" rx="0" fill="url(#grid)"/><text x="28" y="50" font-family="-apple-system, BlinkMacSystemFont, 'Segoe UI', 'Noto Sans', Helvetica, Arial, sans-serif" font-size="24" font-weight="800" font-style="normal" fill="#e6edf3" text-anchor="start" letter-spacing="-0.3" text-rendering="geometricPrecision">ECOSYSTEM</text><text x="29" y="64" font-family="-apple-system, BlinkMacSystemFont, 'Segoe UI', 'Noto Sans', Helvetica, Arial, sans-serif" font-size="10.5" font-weight="600" font-style="normal" fill="#8b949e" text-anchor="start" letter-spacing="1.0" text-rendering="geometricPrecision">LATEST IMMUTABLE TAG v0.7.0  ·  WIRE 0.7 RELEASE</text><line x1="28" y1="74" x2="792" y2="74" stroke="#30363d" stroke-width="1" stroke-linecap="butt"/><text x="792" y="48" font-family="ui-monospace, SFMono-Regular, 'SF Mono', Menlo, Consolas, 'Liberation Mono', monospace" font-size="10" font-weight="600" font-style="normal" fill="#8b949e" text-anchor="end" letter-spacing="0.8" text-rendering="geometricPrecision">NCP · v0.7.0 · WIRE 0.7 · CONTRACT f05e328cad20959d</text><path d="M300,192 L342,192 Q350,192 350,200 L350,266 Q350,274 358,274 L380,274" fill="none" stroke="#a78bfa" stroke-width="2" stroke-linecap="round" stroke-linejoin="round" marker-end="url(#arrowContract)"/><path d="M300,298 L380,298" fill="none" stroke="#a78bfa" stroke-width="2" stroke-linecap="round" stroke-linejoin="round" marker-end="url(#arrowContract)"/><path d="M300,404 L342,404 Q350,404 350,396 L350,330 Q350,322 358,322 L380,322" fill="none" stroke="#a78bfa" stroke-width="2" stroke-linecap="round" stroke-linejoin="round" marker-end="url(#arrowContract)"/><line x1="364" y1="294" x2="364" y2="302" stroke="#a78bfa" stroke-width="1" stroke-linecap="round" stroke-opacity="0.7"/><line x1="372" y1="294" x2="372" y2="302" stroke="#a78bfa" stroke-width="1" stroke-linecap="round" stroke-opacity="0.7"/><path d="M300,412 L632,412" fill="none" stroke="#8b949e" stroke-width="1.5" stroke-linecap="round" stroke-linejoin="round" stroke-dasharray="6 4" marker-end="url(#submoduleArrow)"/><rect x="56" y="150" width="244" height="84" rx="12" fill="url(#surface)" filter="url(#soft)"/><rect x="56" y="150" width="244" height="84" rx="12" fill="none" stroke="#30363d" stroke-width="1.5"/><rect x="62" y="162" width="4" height="60" rx="2" fill="#3a9ad9"/><path d="M294,150 L300,150 L300,156" fill="none" stroke="#8b949e" stroke-width="1" stroke-linecap="round" stroke-linejoin="round" stroke-opacity="0.5"/><path d="M56,228 L56,234 L62,234" fill="none" stroke="#8b949e" stroke-width="1" stroke-linecap="round" stroke-linejoin="round" stroke-opacity="0.5"/><rect x="70" y="160" width="26" height="15" rx="4" fill="#1b232c" stroke="#30363d" stroke-width="1"/><text x="83" y="170.5" font-family="ui-monospace, SFMono-Regular, 'SF Mono', Menlo, Consolas, 'Liberation Mono', monospace" font-size="10" font-weight="700" font-style="normal" fill="#c9d1d9" text-anchor="middle" text-rendering="geometricPrecision">E1</text><g transform="translate(74,190) scale(1.0000)" fill="none" stroke="#3a9ad9" stroke-width="2" stroke-linecap="round" stroke-linejoin="round"><path d="M9.5 5.2A3.2 3.2 0 0 0 4 7.6a3 3 0 0 0-1 5.6a3.2 3.2 0 0 0 4 3.6a2.6 2.6 0 0 0 2.5 1.6"/><path d="M14.5 5.2A3.2 3.2 0 0 1 20 7.6a3 3 0 0 1 1 5.6a3.2 3.2 0 0 1-4 3.6a2.6 2.6 0 0 1-2.5 1.6"/><path d="M12 5v13.4"/><circle cx="12" cy="5" r="0.5" fill="#3a9ad9" stroke="#3a9ad9"/><circle cx="7.5" cy="9" r="0.5" fill="#3a9ad9" stroke="#3a9ad9"/><circle cx="16.5" cy="9" r="0.5" fill="#3a9ad9" stroke="#3a9ad9"/><circle cx="8" cy="14" r="0.5" fill="#3a9ad9" stroke="#3a9ad9"/><circle cx="16" cy="14" r="0.5" fill="#3a9ad9" stroke="#3a9ad9"/><path d="M12 8.2 7.5 9M12 8.2 16.5 9M12 12.5 8 14M12 12.5 16 14"/></g><text x="108" y="198" font-family="-apple-system, BlinkMacSystemFont, 'Segoe UI', 'Noto Sans', Helvetica, Arial, sans-serif" font-size="14" font-weight="700" font-style="normal" fill="#e6edf3" text-anchor="start" text-rendering="geometricPrecision">Engram</text><text x="108" y="214" font-family="-apple-system, BlinkMacSystemFont, 'Segoe UI', 'Noto Sans', Helvetica, Arial, sans-serif" font-size="10" font-weight="500" font-style="normal" fill="#c9d1d9" text-anchor="start" text-rendering="geometricPrecision">commander · NEST + SessionService</text><rect x="56" y="256" width="244" height="84" rx="12" fill="url(#surface)" filter="url(#soft)"/><rect x="56" y="256" width="244" height="84" rx="12" fill="none" stroke="#30363d" stroke-width="1.5"/><rect x="62" y="268" width="4" height="60" rx="2" fill="#8b949e"/><path d="M294,256 L300,256 L300,262" fill="none" stroke="#8b949e" stroke-width="1" stroke-linecap="round" stroke-linejoin="round" stroke-opacity="0.5"/><path d="M56,334 L56,340 L62,340" fill="none" stroke="#8b949e" stroke-width="1" stroke-linecap="round" stroke-linejoin="round" stroke-opacity="0.5"/><rect x="70" y="266" width="26" height="15" rx="4" fill="#1b232c" stroke="#30363d" stroke-width="1"/><text x="83" y="276.5" font-family="ui-monospace, SFMono-Regular, 'SF Mono', Menlo, Consolas, 'Liberation Mono', monospace" font-size="10" font-weight="700" font-style="normal" fill="#c9d1d9" text-anchor="middle" text-rendering="geometricPrecision">C1</text><g transform="translate(74,296) scale(1.0000)" fill="none" stroke="#8b949e" stroke-width="2" stroke-linecap="round" stroke-linejoin="round"><rect x="5" y="8" width="14" height="11" rx="3"/><path d="M12 8V5"/><circle cx="12" cy="3.6" r="1.4" fill="#8b949e" stroke="none"/><circle cx="9" cy="12.5" r="1.2" fill="#8b949e" stroke="none"/><circle cx="15" cy="12.5" r="1.2" fill="#8b949e" stroke="none"/><path d="M9.5 16h5"/><path d="M5 12.5H3M19 12.5h2"/></g><text x="108" y="304" font-family="-apple-system, BlinkMacSystemFont, 'Segoe UI', 'Noto Sans', Helvetica, Arial, sans-serif" font-size="14" font-weight="700" font-style="normal" fill="#e6edf3" text-anchor="start" text-rendering="geometricPrecision">crebain</text><text x="108" y="320" font-family="-apple-system, BlinkMacSystemFont, 'Segoe UI', 'Noto Sans', Helvetica, Arial, sans-serif" font-size="10" font-weight="500" font-style="normal" fill="#c9d1d9" text-anchor="start" text-rendering="geometricPrecision">example body · robot / UAV plant</text><rect x="56" y="362" width="244" height="84" rx="12" fill="url(#surface)" filter="url(#soft)"/><rect x="56" y="362" width="244" height="84" rx="12" fill="none" stroke="#30363d" stroke-width="1.5"/><rect x="62" y="374" width="4" height="60" rx="2" fill="#8b949e"/><path d="M294,362 L300,362 L300,368" fill="none" stroke="#8b949e" stroke-width="1" stroke-linecap="round" stroke-linejoin="round" stroke-opacity="0.5"/><path d="M56,440 L56,446 L62,446" fill="none" stroke="#8b949e" stroke-width="1" stroke-linecap="round" stroke-linejoin="round" stroke-opacity="0.5"/><rect x="70" y="372" width="26" height="15" rx="4" fill="#1b232c" stroke="#30363d" stroke-width="1"/><text x="83" y="382.5" font-family="ui-monospace, SFMono-Regular, 'SF Mono', Menlo, Consolas, 'Liberation Mono', monospace" font-size="10" font-weight="700" font-style="normal" fill="#c9d1d9" text-anchor="middle" text-rendering="geometricPrecision">P1</text><g transform="translate(74,402) scale(1.0000)" fill="none" stroke="#8b949e" stroke-width="2" stroke-linecap="round" stroke-linejoin="round"><path d="M2.5 12c2.2-4 6-6 9.5-6s7.3 2 9.5 6c-2.2 4-6 6-9.5 6s-7.3-2-9.5-6Z"/><circle cx="12" cy="12" r="3"/></g><text x="108" y="410" font-family="-apple-system, BlinkMacSystemFont, 'Segoe UI', 'Noto Sans', Helvetica, Arial, sans-serif" font-size="14" font-weight="700" font-style="normal" fill="#e6edf3" text-anchor="start" text-rendering="geometricPrecision">prisoma</text><text x="108" y="426" font-family="-apple-system, BlinkMacSystemFont, 'Segoe UI', 'Noto Sans', Helvetica, Arial, sans-serif" font-size="10" font-weight="500" font-style="normal" fill="#c9d1d9" text-anchor="start" text-rendering="geometricPrecision">example analysis · observer client</text><rect x="380" y="196" width="240" height="164" rx="12" fill="url(#contractHero)" stroke="#30363d" stroke-width="1.5" filter="url(#glowContract)"/><rect x="394" y="209" width="212" height="2" rx="1" fill="#ffffff" fill-opacity="0.5"/><rect x="396" y="210" width="26" height="15" rx="4" fill="#ffffff" fill-opacity="0.16"/><text x="409" y="220.5" font-family="ui-monospace, SFMono-Regular, 'SF Mono', Menlo, Consolas, 'Liberation Mono', monospace" font-size="10" font-weight="700" font-style="normal" fill="#ffffff" text-anchor="middle" text-rendering="geometricPrecision">U1</text><g transform="translate(486.0,226) scale(1.1667)" fill="none" stroke="#ffffff" stroke-width="2" stroke-linecap="round" stroke-linejoin="round"><circle cx="7.5" cy="7.5" r="3.5"/><path d="M10 10l8.5 8.5"/><path d="M16 16l2-2M18.5 18.5l2-2"/></g><text x="500.0" y="278" font-family="-apple-system, BlinkMacSystemFont, 'Segoe UI', 'Noto Sans', Helvetica, Arial, sans-serif" font-size="17" font-weight="800" font-style="normal" fill="#ffffff" text-anchor="middle" text-rendering="geometricPrecision">NCP</text><text x="500.0" y="295" font-family="-apple-system, BlinkMacSystemFont, 'Segoe UI', 'Noto Sans', Helvetica, Arial, sans-serif" font-size="11" font-weight="600" font-style="normal" fill="#ffffff" fill-opacity="0.92" text-anchor="middle" text-rendering="geometricPrecision">the wire contract</text><text x="500.0" y="316" font-family="ui-monospace, SFMono-Regular, 'SF Mono', Menlo, Consolas, 'Liberation Mono', monospace" font-size="9.5" font-weight="600" font-style="normal" fill="#ffffff" fill-opacity="0.9" text-anchor="middle" text-rendering="geometricPrecision">ncp-core · ncp-zenoh · ncp-gateway</text><line x1="402" y1="324" x2="598" y2="324" stroke="#ffffff" stroke-width="1" stroke-linecap="round" stroke-opacity="0.18"/><text x="500.0" y="336" font-family="ui-monospace, SFMono-Regular, 'SF Mono', Menlo, Consolas, 'Liberation Mono', monospace" font-size="8.5" font-weight="500" font-style="normal" fill="#ffffff" fill-opacity="0.76" text-anchor="middle" text-rendering="geometricPrecision">peers: ncp-python · ncp-cpp · @sepahead/ncp</text><rect x="438.0" y="343" width="124" height="15" rx="6" fill="#ffffff" fill-opacity="0.13"/><text x="500.0" y="353.5" font-family="ui-monospace, SFMono-Regular, 'SF Mono', Menlo, Consolas, 'Liberation Mono', monospace" font-size="9" font-weight="700" font-style="normal" fill="#ffffff" text-anchor="middle" text-rendering="geometricPrecision">v0.7.0 · f05e328c</text><rect x="632" y="388" width="152" height="84" rx="12" fill="url(#surface)" filter="url(#soft)"/><rect x="632" y="388" width="152" height="84" rx="12" fill="none" stroke="#30363d" stroke-width="1.5" stroke-dasharray="6 4"/><path d="M778,388 L784,388 L784,394" fill="none" stroke="#8b949e" stroke-width="1" stroke-linecap="round" stroke-linejoin="round" stroke-opacity="0.5"/><path d="M632,466 L632,472 L638,472" fill="none" stroke="#8b949e" stroke-width="1" stroke-linecap="round" stroke-linejoin="round" stroke-opacity="0.5"/><rect x="646" y="398" width="26" height="15" rx="4" fill="#1b232c" stroke="#30363d" stroke-width="1"/><text x="659" y="408.5" font-family="ui-monospace, SFMono-Regular, 'SF Mono', Menlo, Consolas, 'Liberation Mono', monospace" font-size="10" font-weight="700" font-style="normal" fill="#8b949e" text-anchor="middle" text-rendering="geometricPrecision">L1</text><g transform="translate(648,430) scale(0.8333)" fill="none" stroke="#8b949e" stroke-width="2" stroke-linecap="round" stroke-linejoin="round"><path d="M5 5.5A1.5 1.5 0 0 1 6.5 4H19v15H6.5A1.5 1.5 0 0 0 5 20.5Z"/><path d="M5 5.5v15"/><path d="M9 8h6M9 11h6"/></g><text x="676" y="436" font-family="-apple-system, BlinkMacSystemFont, 'Segoe UI', 'Noto Sans', Helvetica, Arial, sans-serif" font-size="13" font-weight="700" font-style="normal" fill="#8b949e" text-anchor="start" text-rendering="geometricPrecision">pid-rs</text><text x="676" y="451" font-family="-apple-system, BlinkMacSystemFont, 'Segoe UI', 'Noto Sans', Helvetica, Arial, sans-serif" font-size="9" font-weight="500" font-style="normal" fill="#8b949e" text-anchor="start" text-rendering="geometricPrecision">PID estimators · sci lib</text><rect x="292.5" y="179.5" width="67" height="25" rx="8" fill="#0d1117"/><rect x="294.0" y="181.0" width="64" height="22" rx="8" fill="#1b232c" stroke="#30363d" stroke-width="1"/><rect x="301.0" y="187.0" width="10" height="10" rx="2" fill="#a78bfa"/><text x="317.0" y="196.0" font-family="ui-monospace, SFMono-Regular, 'SF Mono', Menlo, Consolas, 'Liberation Mono', monospace" font-size="9.5" font-weight="700" font-style="normal" fill="#c9d1d9" text-anchor="start" text-rendering="geometricPrecision">v0.7.0</text><rect x="292.5" y="285.5" width="67" height="25" rx="8" fill="#0d1117"/><rect x="294.0" y="287.0" width="64" height="22" rx="8" fill="#1b232c" stroke="#30363d" stroke-width="1"/><rect x="301.0" y="293.0" width="10" height="10" rx="2" fill="#a78bfa"/><text x="317.0" y="302.0" font-family="ui-monospace, SFMono-Regular, 'SF Mono', Menlo, Consolas, 'Liberation Mono', monospace" font-size="9.5" font-weight="700" font-style="normal" fill="#c9d1d9" text-anchor="start" text-rendering="geometricPrecision">v0.7.0</text><rect x="292.5" y="391.5" width="67" height="25" rx="8" fill="#0d1117"/><rect x="294.0" y="393.0" width="64" height="22" rx="8" fill="#1b232c" stroke="#30363d" stroke-width="1"/><rect x="301.0" y="399.0" width="10" height="10" rx="2" fill="#a78bfa"/><text x="317.0" y="408.0" font-family="ui-monospace, SFMono-Regular, 'SF Mono', Menlo, Consolas, 'Liberation Mono', monospace" font-size="9.5" font-weight="700" font-style="normal" fill="#c9d1d9" text-anchor="start" text-rendering="geometricPrecision">v0.7.0</text><rect x="369.5" y="395.5" width="217" height="33" rx="8" fill="#0d1117"/><rect x="371.0" y="397.0" width="214" height="30" rx="8" fill="#1b232c" stroke="#8b949e" stroke-width="1" stroke-dasharray="4 4" fill-opacity="0.85"/><text x="383.0" y="410.0" font-family="-apple-system, BlinkMacSystemFont, 'Segoe UI', 'Noto Sans', Helvetica, Arial, sans-serif" font-size="10.5" font-weight="700" font-style="normal" fill="#8b949e" text-anchor="start" text-rendering="geometricPrecision">git submodule</text><text x="383.0" y="421.0" font-family="-apple-system, BlinkMacSystemFont, 'Segoe UI', 'Noto Sans', Helvetica, Arial, sans-serif" font-size="9.5" font-weight="500" font-style="italic" fill="#8b949e" text-anchor="start" text-rendering="geometricPrecision">NOT an NCP wire consumer</text><rect x="28" y="488" width="764" height="26" rx="8" fill="#1b232c" stroke="#30363d" stroke-width="1"/><line x1="48" y1="501" x2="70" y2="501" stroke="#a78bfa" stroke-width="2" stroke-linecap="round"/><text x="78" y="505" font-family="-apple-system, BlinkMacSystemFont, 'Segoe UI', 'Noto Sans', Helvetica, Arial, sans-serif" font-size="9.5" font-weight="600" font-style="normal" fill="#c9d1d9" text-anchor="start" text-rendering="geometricPrecision">pin tag v0.7.0 (depends-on)</text><line x1="300" y1="501" x2="322" y2="501" stroke="#8b949e" stroke-width="1.5" stroke-linecap="round" stroke-dasharray="6 4"/><text x="330" y="505" font-family="-apple-system, BlinkMacSystemFont, 'Segoe UI', 'Noto Sans', Helvetica, Arial, sans-serif" font-size="9.5" font-weight="600" font-style="normal" fill="#c9d1d9" text-anchor="start" text-rendering="geometricPrecision">git submodule · NOT an NCP wire consumer</text><rect x="600" y="496" width="12" height="10" rx="2" fill="url(#contractHero)"/><text x="618" y="505" font-family="-apple-system, BlinkMacSystemFont, 'Segoe UI', 'Noto Sans', Helvetica, Arial, sans-serif" font-size="9" font-weight="600" font-style="normal" fill="#c9d1d9" text-anchor="start" text-rendering="geometricPrecision">the wire contract (only filled node)</text></svg>