<svg xmlns="http://www.w3.org/2000/svg" xml:lang="en" width="1600" height="1334" viewBox="0 0 1600 1334" role="img" aria-labelledby="fsm-title fsm-desc">
<title id="fsm-title">NCP current plant-admission state model</title>
<desc id="fsm-desc">The current compatibility governor starts in HOLD after valid configuration. It enters Active only with fresh input and live authority. An admitted ESTOP, a geofence breach, a link burst, or sustained sensor silence latches ESTOP. Only a deployment reset leaves ESTOP. Invalid configuration fails closed. Current UNRELEASED runtime. It is not release or certification evidence.</desc>
<defs>
<style>.s{font-family:'Source Sans Pro', 'Source Sans 3', Arial, 'Liberation Sans', 'Helvetica Neue', Helvetica, sans-serif}.r{font-family:'Latin Modern Roman', 'LM Roman 10', 'Times New Roman', 'Liberation Serif', Times, serif}</style>
<marker id="fsm-arrow-lapis" viewBox="0 0 16 14" refX="16" refY="7" markerWidth="16" markerHeight="14" markerUnits="userSpaceOnUse" orient="auto-start-reverse"><path d="M0,0 L16,7 L0,14 z" fill="#8DB2D8"/></marker>
<marker id="fsm-arrow-muted" viewBox="0 0 16 14" refX="16" refY="7" markerWidth="16" markerHeight="14" markerUnits="userSpaceOnUse" orient="auto-start-reverse"><path d="M0,0 L16,7 L0,14 z" fill="#AAB7BE"/></marker>
<marker id="fsm-arrow-pomegranate" viewBox="0 0 16 14" refX="16" refY="7" markerWidth="16" markerHeight="14" markerUnits="userSpaceOnUse" orient="auto-start-reverse"><path d="M0,0 L16,7 L0,14 z" fill="#E6A095"/></marker>
<marker id="fsm-arrow-turquoise" viewBox="0 0 16 14" refX="16" refY="7" markerWidth="16" markerHeight="14" markerUnits="userSpaceOnUse" orient="auto-start-reverse"><path d="M0,0 L16,7 L0,14 z" fill="#6FC1BD"/></marker>
<pattern id="fsm-hatch" width="12" height="12" patternUnits="userSpaceOnUse" patternTransform="rotate(40)"><line x1="0" y1="0" x2="0" y2="12" stroke="#D8AA45" stroke-width="3"/></pattern>
</defs>
<rect width="1600" height="1334" fill="#131D26"/>
<rect x="1265.7" y="18" width="282.3" height="38" rx="19" fill="#6FC1BD"/>
<path d="M52 66 L1548 66" stroke="#3D5263" stroke-width="2" fill="none" stroke-linecap="butt"/>
<path d="M52 66 L260 66" stroke="#D8AA45" stroke-width="7" fill="none" stroke-linecap="butt"/>
<rect x="52" y="256" width="418.7" height="206" rx="14" fill="#1A2631" stroke="#E6A095" stroke-width="3"/>
<path d="M52 270 L52 270 Q52 256 66 256 L456.7 256 Q470.7 256 470.7 270 L470.7 270 Z" fill="#E6A095"/>
<path d="M78 336 L444.7 336" stroke="#3D5263" stroke-width="2" fill="none" stroke-linecap="butt"/>
<rect x="590.7" y="256" width="418.7" height="206" rx="14" fill="#1A2631" stroke="#8DB2D8" stroke-width="3"/>
<path d="M590.7 270 L590.7 270 Q590.7 256 604.7 256 L995.3 256 Q1009.3 256 1009.3 270 L1009.3 270 Z" fill="#8DB2D8"/>
<path d="M616.7 336 L983.3 336" stroke="#3D5263" stroke-width="2" fill="none" stroke-linecap="butt"/>
<rect x="1129.3" y="256" width="418.7" height="206" rx="14" fill="#1A2631" stroke="#6FC1BD" stroke-width="3"/>
<path d="M1129.3 270 L1129.3 270 Q1129.3 256 1143.3 256 L1534 256 Q1548 256 1548 270 L1548 270 Z" fill="#6FC1BD"/>
<path d="M1155.3 336 L1522 336" stroke="#3D5263" stroke-width="2" fill="none" stroke-linecap="butt"/>
<rect x="590.7" y="612" width="957.3" height="206" rx="14" fill="#1F3340" stroke="#E6A095" stroke-width="3"/>
<path d="M590.7 626 L590.7 626 Q590.7 612 604.7 612 L1534 612 Q1548 612 1548 626 L1548 626 Z" fill="#E6A095"/>
<path d="M616.7 692 L1522 692" stroke="#3D5263" stroke-width="2" fill="none" stroke-linecap="butt"/>
<circle cx="800" cy="192" r="16" fill="#ECE5D5"/>
<rect x="52" y="612" width="418.7" height="206" rx="14" fill="#1A2631" stroke="#AAB7BE" stroke-width="3" stroke-dasharray="12 8"/>
<path d="M78 692 L444.7 692" stroke="#3D5263" stroke-width="2" fill="none" stroke-linecap="butt"/>
<rect x="52" y="858" width="1496" height="272" rx="14" fill="#1A2631" stroke="#8DB2D8" stroke-width="3"/>
<path d="M52 872 L52 872 Q52 858 66 858 L1534 858 Q1548 858 1548 872 L1548 872 Z" fill="#8DB2D8"/>
<path d="M78 938 L1522 938" stroke="#3D5263" stroke-width="2" fill="none" stroke-linecap="butt"/>
<rect x="52" y="1164" width="1496" height="130" rx="10" fill="#1E3240"/>
<rect x="52" y="1164" width="10" height="130" rx="5" fill="#D8AA45"/>
<path d="M800 208 L800 256" fill="none" stroke="#8DB2D8" stroke-width="4" stroke-linejoin="round" marker-end="url(#fsm-arrow-lapis)"/>
<path d="M784 192 L261.3 192 L261.3 256" fill="none" stroke="#E6A095" stroke-width="4" stroke-linejoin="round" marker-end="url(#fsm-arrow-pomegranate)"/>
<path d="M1009.3 329 L1129.3 329" fill="none" stroke="#6FC1BD" stroke-width="4" stroke-linejoin="round" marker-end="url(#fsm-arrow-turquoise)"/>
<path d="M1129.3 389 L1009.3 389" fill="none" stroke="#8DB2D8" stroke-width="4" stroke-linejoin="round" marker-end="url(#fsm-arrow-lapis)"/>
<path d="M800 462 L800 612" fill="none" stroke="#E6A095" stroke-width="4" stroke-linejoin="round" marker-end="url(#fsm-arrow-pomegranate)"/>
<path d="M1338.7 462 L1338.7 612" fill="none" stroke="#E6A095" stroke-width="4" stroke-linejoin="round" marker-end="url(#fsm-arrow-pomegranate)"/>
<path d="M590.7 715 L470.7 715" fill="none" stroke="#AAB7BE" stroke-width="4" stroke-linejoin="round" stroke-dasharray="12 9" marker-end="url(#fsm-arrow-muted)"/>
<circle cx="801" cy="232" r="23.2" fill="#8DB2D8"/>
<circle cx="470.7" cy="192" r="23.8" fill="#E6A095"/>
<circle cx="1069.3" cy="329" r="23.2" fill="#6FC1BD"/>
<circle cx="1069.3" cy="389" r="23.2" fill="#8DB2D8"/>
<circle cx="800" cy="537" r="23.2" fill="#E6A095"/>
<circle cx="1338.7" cy="537" r="23.2" fill="#E6A095"/>
<circle cx="530.7" cy="715" r="22.5" fill="#AAB7BE"/>
<text x="1406.8" y="43.5" class="s" font-size="24" fill="#10202B" font-weight="700" letter-spacing="1" text-anchor="middle">CURRENT RUNTIME</text>
<text x="52" y="46" class="s" font-size="24" fill="#AAB7BE" font-weight="700" letter-spacing="2">PLANT ADMISSION STATES</text>
<text x="52" y="114" class="s" font-size="38" fill="#8DB2D8" font-weight="700">The current governor outputs only bounded candidates</text>
<text x="78" y="316" class="s" font-size="28" fill="#ECE5D5" font-weight="700">CONFIG FAIL-CLOSED</text>
<text x="78" y="374" class="r" font-size="25" fill="#ECE5D5">Invalid configuration. A</text>
<text x="78" y="407" class="r" font-size="25" fill="#ECE5D5">non-ESTOP input returns</text>
<text x="78" y="440" class="r" font-size="25" fill="#ECE5D5">HOLD.</text>
<text x="616.7" y="316" class="s" font-size="28" fill="#ECE5D5" font-weight="700">HOLD</text>
<text x="616.7" y="374" class="r" font-size="25" fill="#ECE5D5">Non-latching. The body applies</text>
<text x="616.7" y="407" class="r" font-size="25" fill="#ECE5D5">its installed HOLD action.</text>
<text x="1155.3" y="316" class="s" font-size="28" fill="#ECE5D5" font-weight="700">ACTIVE</text>
<text x="1155.3" y="374" class="r" font-size="25" fill="#ECE5D5">Valid command, fresh sensor,</text>
<text x="1155.3" y="407" class="r" font-size="25" fill="#ECE5D5">and live authority.</text>
<text x="616.7" y="672" class="s" font-size="28" fill="#ECE5D5" font-weight="700">ESTOP (latched)</text>
<text x="616.7" y="730" class="r" font-size="25" fill="#ECE5D5">Only a deployment reset leaves ESTOP. The body applies its installed ESTOP</text>
<text x="616.7" y="763" class="r" font-size="25" fill="#ECE5D5">action.</text>
<text x="830" y="201" class="s" font-size="24" fill="#AAB7BE" font-weight="600">start</text>
<text x="801" y="240.5" class="s" font-size="24" fill="#10202B" font-weight="700" letter-spacing="1" text-anchor="middle">A</text>
<text x="470.7" y="200.5" class="s" font-size="24" fill="#10202B" font-weight="700" letter-spacing="1" text-anchor="middle">G</text>
<text x="1069.3" y="337.5" class="s" font-size="24" fill="#10202B" font-weight="700" letter-spacing="1" text-anchor="middle">B</text>
<text x="1069.3" y="397.5" class="s" font-size="24" fill="#10202B" font-weight="700" letter-spacing="1" text-anchor="middle">C</text>
<text x="800" y="545.5" class="s" font-size="24" fill="#10202B" font-weight="700" letter-spacing="1" text-anchor="middle">D</text>
<text x="1338.7" y="545.5" class="s" font-size="24" fill="#10202B" font-weight="700" letter-spacing="1" text-anchor="middle">D</text>
<text x="78" y="672" class="s" font-size="28" fill="#ECE5D5" font-weight="700">Deployment reset</text>
<text x="78" y="730" class="r" font-size="25" fill="#ECE5D5">Retire the generation, authority,</text>
<text x="78" y="763" class="r" font-size="25" fill="#ECE5D5">lease, and streams. A new</text>
<text x="78" y="796" class="r" font-size="25" fill="#ECE5D5">session starts in HOLD.</text>
<text x="530.7" y="723.5" class="s" font-size="24" fill="#10202B" font-weight="700" letter-spacing="1" text-anchor="middle">E</text>
<text x="78" y="918" class="s" font-size="28" fill="#ECE5D5" font-weight="700">Transitions</text>
<text x="78" y="976" class="r" font-size="25" fill="#ECE5D5">A valid configuration opens in HOLD. G invalid configuration fails closed.</text>
<text x="78" y="1009" class="r" font-size="25" fill="#ECE5D5">B fresh sensor, live authority, and a valid Active command enter ACTIVE.</text>
<text x="78" y="1042" class="r" font-size="25" fill="#ECE5D5">C stale or invalid input returns to HOLD without a latch.</text>
<text x="78" y="1075" class="r" font-size="25" fill="#ECE5D5">D an admitted ESTOP, geofence breach, link burst, or sensor silence latches ESTOP.</text>
<text x="78" y="1108" class="r" font-size="25" fill="#ECE5D5">E only a deployment reset leaves ESTOP. It starts a new generation.</text>
<text x="84" y="1202" class="s" font-size="24" fill="#AAB7BE" font-weight="600">INVARIANT</text>
<text x="84" y="1240" class="r" font-size="25" fill="#ECE5D5">An unattributable envelope or a missing safe frame latches local ESTOP and returns an error, not a wire frame.</text>
<text x="84" y="1273" class="r" font-size="25" fill="#ECE5D5">NCP defines no universal zero-safe action. The plant profile names each action.</text>
</svg>
